<svg width="82" height="80" xmlns="http://www.w3.org/2000/svg" xmlns:xlink="http://www.w3.org/1999/xlink" xml:space="preserve" overflow="hidden"><g transform="translate(-550 -124)"><g><g><g><g><path d="M551 124 631 124 631 204 551 204Z" fill="#DD344C" fill-rule="evenodd" fill-opacity="1"/><path d="M565 190 565 139.414 590.293 164.707C590.488 164.902 590.744 165 591 165 591.256 165 591.512 164.902 591.707 164.707L617 139.414 617 190 565 190ZM615.586 138 591 162.586 566.414 138 615.586 138ZM618 136 564 136C563.447 136 563 136.448 563 137L563 191C563 191.552 563.447 192 564 192L618 192C618.553 192 619 191.552 619 191L619 137C619 136.448 618.553 136 618 136Z" fill="#FFFFFF" fill-rule="evenodd" fill-opacity="1"/></g></g></g></g></g></svg>