<svg width="81" height="80" xmlns="http://www.w3.org/2000/svg" xmlns:xlink="http://www.w3.org/1999/xlink" xml:space="preserve" overflow="hidden"><g transform="translate(-313 -124)"><g><g><g><g><path d="M314 124 394 124 394 204 314 204Z" fill="#ED7100" fill-rule="evenodd" fill-opacity="1"/><path d="M351 169.553 351 171.602C336.938 174.908 335 180.719 335 186L333 186C333 180.23 335.077 173.18 351 169.553ZM351 174.76 351 176.898C341.007 180.854 341 187.011 341 192L339 192C339 186.879 339.009 179.191 351 174.76ZM379 185.575C379 186.361 378.361 187 377.575 187L356.425 187C355.639 187 355 186.361 355 185.575L355 172.424C355 171.639 355.639 171 356.425 171L377.575 171C378.361 171 379 171.639 379 172.424L379 185.575ZM377.575 169 356.425 169C354.536 169 353 170.536 353 172.424L353 185.575C353 187.464 354.536 189 356.425 189L377.575 189C379.464 189 381 187.464 381 185.575L381 172.424C381 170.536 379.464 169 377.575 169ZM381 163 381 165C335.756 165 329 173.145 329 178L327 178C327 170.604 337.039 165.92 356.893 164 337.039 162.079 327 157.395 327 150L329 150C329 154.855 335.756 163 381 163ZM381 159 381 161C338.703 161 333 151.395 333 142L335 142C335 150.406 340.465 159 381 159ZM381 155 381 157C362.663 157 350.728 154.641 344.51 149.788 339 145.488 339 140.004 339 136L341 136C341 143.566 341 155 381 155ZM365 181.277 365 176.723 368.984 179 365 181.277ZM371.496 178.132 364.496 174.132C364.187 173.954 363.806 173.956 363.498 174.135 363.189 174.314 363 174.643 363 175L363 183C363 183.356 363.189 183.686 363.498 183.865 363.653 183.955 363.826 184 364 184 364.171 184 364.343 183.956 364.496 183.868L371.496 179.868C371.808 179.69 372 179.359 372 179 372 178.641 371.808 178.309 371.496 178.132Z" fill="#FFFFFF" fill-rule="evenodd" fill-opacity="1"/></g></g></g></g></g></svg>