<svg width="80" height="80" viewBox="0 0 80 80" xmlns="http://www.w3.org/2000/svg" xmlns:xlink="http://www.w3.org/1999/xlink" overflow="hidden"><g id="Icon-Architecture/64/Arch_Amazon-Chime-SDK_64" stroke="none" stroke-width="1" fill="none" fill-rule="evenodd"><g id="Icon-Architecture-BG/64/Business-Applications" fill="#DD344C"><rect x="0" y="0" width="80" height="80" id="Rectangle"/></g><g id="Icon-Service/64/Amazon-Chime-SDK_64" fill="#FFFFFF" transform="translate(12 12)"><path d="M30.999 36.356 26.741 34 22.999 34 22.999 32 25.999 32 25.999 28.544 20.39 24.909 16.999 26.616 16.999 33.465 22.554 37.168 21.444 38.832 15.444 34.832C15.166 34.647 14.999 34.335 14.999 34L14.999 26.618 12.03 25.134 5.999 28.581 5.999 32.382 8.927 33.846 10.999 32.465 10.999 29 12.999 29 12.999 33C12.999 33.335 12.832 33.647 12.554 33.832L9.999 35.535 9.999 39C9.999 39.335 9.832 39.647 9.554 39.832L6.554 41.832 5.444 40.168 7.999 38.465 7.999 35.618 5.059 34.148 1.999 36.096 1.999 42.563 5.407 44.087C5.768 44.248 5.999 44.606 5.999 45L5.999 49.485 12.091 53.836 14.999 52.382 14.999 44.135 10.64 47.768 9.358 46.232 14.999 41.531 14.999 39.535 12.444 37.832 13.554 36.168 16.554 38.168C16.832 38.354 16.999 38.666 16.999 39L16.999 47 21.999 47 21.999 49 16.999 49 16.999 52.323 20.862 53.869 26.999 49.485 26.999 45.481 22.374 41.781 23.624 40.219 28.172 43.858 30.999 42.747 30.999 36.356ZM32.999 35.766 32.999 43.429C32.999 43.84 32.747 44.209 32.364 44.359L28.999 45.682 28.999 50C28.999 50.323 28.843 50.626 28.58 50.814L21.58 55.814C21.408 55.937 21.204 56 20.999 56 20.874 56 20.747 55.977 20.628 55.929L16.045 54.095 12.446 55.895C12.113 56.06 11.719 56.027 11.418 55.814L4.418 50.814C4.155 50.626 3.999 50.323 3.999 50L3.999 45.648 0.592 44.123C0.231 43.962 0 43.605 0 43.21L0 35.547C0 35.206 0.175 34.888 0.463 34.704L3.999 32.451 3.999 28C3.999 27.641 4.191 27.31 4.503 27.132L11.503 23.132C11.794 22.966 12.148 22.957 12.446 23.106L15.997 24.881 20.002 22.865C20.321 22.705 20.698 22.726 20.996 22.918L27.543 27.161C27.827 27.345 27.999 27.661 27.999 28L27.999 32.41 32.483 34.891C32.802 35.067 32.999 35.402 32.999 35.766L32.999 35.766ZM19.999 20 21.999 20 21.999 6 19.999 6 19.999 20ZM26.999 23 28.999 23 28.999 10 26.999 10 26.999 23ZM33.999 28 35.999 28 35.999 6 33.999 6 33.999 28ZM47.999 18 49.999 18 49.999 10 47.999 10 47.999 18ZM12.999 19 14.999 19 14.999 12 12.999 12 12.999 19ZM40.999 22 42.999 22 42.999 12 40.999 12 40.999 22ZM40.999 46C40.88 46 40.76 45.979 40.644 45.935 40.256 45.787 39.999 45.415 39.999 45L39.999 37 34.999 37 34.999 35 40.999 35C41.552 35 41.999 35.448 41.999 36L41.999 42.37 48.252 35.335C48.441 35.122 48.714 35 48.999 35L51.999 35C53.298 35 53.999 33.417 53.999 31.927L53.999 4.637C53.999 3.183 52.893 2 51.533 2L10.696 2C10.276 2 8.999 2 8.999 4.637L8.999 22.857 6.999 22.857 6.999 4.637C6.999 1.733 8.381-3.55271e-15 10.696-3.55271e-15L51.533-3.55271e-15C53.996-3.55271e-15 55.999 2.08 55.999 4.637L55.999 31.927C55.999 34.386 54.597 37 51.999 37L49.448 37 41.746 45.665C41.553 45.882 41.279 46 40.999 46L40.999 46Z" id="Fill-3"/></g></g></svg>