<svg width="81" height="80" xmlns="http://www.w3.org/2000/svg" xmlns:xlink="http://www.w3.org/1999/xlink" xml:space="preserve" overflow="hidden"><g transform="translate(-549 -124)"><g><g><g><g><path d="M550 124 630 124 630 204 550 204Z" fill="#E7157B" fill-rule="evenodd" fill-opacity="1"/><path d="M611.084 184.084C608.374 184.084 606.169 181.879 606.169 179.168 606.169 176.458 608.374 174.252 611.084 174.252 613.795 174.252 616 176.458 616 179.168 616 181.879 613.795 184.084 611.084 184.084L611.084 184.084ZM611.084 172.252C607.271 172.252 604.169 175.355 604.169 179.168 604.169 182.981 607.271 186.084 611.084 186.084 614.897 186.084 618 182.981 618 179.168 618 175.355 614.897 172.252 611.084 172.252ZM611.084 169.084C608.374 169.084 606.169 166.879 606.169 164.168 606.169 161.458 608.374 159.252 611.084 159.252 613.795 159.252 616 161.458 616 164.168 616 166.879 613.795 169.084 611.084 169.084ZM611.084 157.252C607.271 157.252 604.169 160.355 604.169 164.168 604.169 167.981 607.271 171.084 611.084 171.084 614.897 171.084 618 167.981 618 164.168 618 160.355 614.897 157.252 611.084 157.252ZM611.084 153.916C608.374 153.916 606.169 151.71 606.169 149 606.169 146.289 608.374 144.084 611.084 144.084 613.795 144.084 616 146.289 616 149 616 151.71 613.795 153.916 611.084 153.916ZM611.084 142.084C607.271 142.084 604.169 145.187 604.169 149 604.169 152.813 607.271 155.916 611.084 155.916 614.897 155.916 618 152.813 618 149 618 145.187 614.897 142.084 611.084 142.084ZM618 136.084 618 138.084 600 138.084 600 190.084 618 190.084 618 192.084 599 192.084C598.447 192.084 598 191.636 598 191.084L598 165.084 582.105 165.084 582.105 163.084 598 163.084 598 137.084C598 136.532 598.447 136.084 599 136.084L618 136.084ZM564 170.417 564 157.751 575.875 164.084 564 170.417ZM578.471 163.202 563.471 155.202C563.159 155.035 562.786 155.046 562.485 155.227 562.185 155.407 562 155.733 562 156.084L562 172.084C562 172.435 562.185 172.761 562.485 172.941 562.644 173.036 562.821 173.084 563 173.084 563.161 173.084 563.323 173.045 563.471 172.966L578.471 164.966C578.797 164.792 579 164.453 579 164.084 579 163.715 578.797 163.376 578.471 163.202ZM564 150.084 576 150.084 576 138.084 564 138.084 564 150.084ZM563 152.084 577 152.084C577.553 152.084 578 151.636 578 151.084L578 137.084C578 136.532 577.553 136.084 577 136.084L563 136.084C562.447 136.084 562 136.532 562 137.084L562 151.084C562 151.636 562.447 152.084 563 152.084ZM570.258 190.084C566.808 190.084 564 187.276 564 183.826 564 180.375 566.808 177.568 570.258 177.568 573.709 177.568 576.517 180.375 576.517 183.826 576.517 187.276 573.709 190.084 570.258 190.084ZM570.258 175.568C565.704 175.568 562 179.272 562 183.826 562 188.379 565.704 192.084 570.258 192.084 574.812 192.084 578.517 188.379 578.517 183.826 578.517 179.272 574.812 175.568 570.258 175.568Z" fill="#FFFFFF" fill-rule="evenodd" fill-opacity="1"/></g></g></g></g></g></svg>