<svg width="49" height="49" xmlns="http://www.w3.org/2000/svg" xmlns:xlink="http://www.w3.org/1999/xlink" xml:space="preserve" overflow="hidden"><g transform="translate(-685 -405)"><g><g><g><g><path d="M695.584 445.43 699.421 441.593 700.835 443.007 696.302 447.54C696.106 447.736 695.851 447.833 695.595 447.833 695.344 447.833 695.093 447.74 694.898 447.552L692.834 445.552 694.227 444.115 695.584 445.43ZM700.835 433.34 696.302 437.873C696.106 438.069 695.851 438.166 695.595 438.166 695.344 438.166 695.093 438.073 694.898 437.885L692.834 435.885 694.227 434.448 695.584 435.763 699.421 431.926 700.835 433.34ZM700.835 423.674 696.302 428.207C696.106 428.402 695.851 428.5 695.595 428.5 695.344 428.5 695.093 428.406 694.898 428.218L692.834 426.218 694.227 424.782 695.584 426.097 699.421 422.26 700.835 423.674ZM700.835 414.007 696.302 418.54C696.106 418.736 695.851 418.833 695.595 418.833 695.344 418.833 695.093 418.74 694.898 418.552L692.834 416.552 694.227 415.115 695.584 416.43 699.421 412.593 700.835 414.007ZM720 443 722 443 722 451C722 451.552 721.553 452 721 452L689 452C688.447 452 688 451.552 688 451L688 409C688 408.448 688.447 408 689 408L721 408C721.553 408 722 408.448 722 409L722 420 720 420 720 410 690 410 690 450 720 450 720 443ZM711 432 710 432 710 430 711 430 711 426 713 426 713 430 714 430 714 432 713 432 713 437 711 437 711 432ZM718 435 717 435 717 433 718 433 718 426 720 426 720 433 721 433 721 435 720 435 720 437 718 437 718 435ZM725 430 724 430 724 428 725 428 725 426 727 426 727 428 728 428 728 430 727 430 727 437 725 437 725 430ZM708 439 730 439 730 424 708 424 708 439ZM731 422 707 422C706.447 422 706 422.448 706 423L706 440C706 440.552 706.447 441 707 441L731 441C731.553 441 732 440.552 732 440L732 423C732 422.448 731.553 422 731 422Z" fill="#7AA116" fill-rule="evenodd" fill-opacity="1"/></g></g></g></g></g></svg>