<svg width="81" height="81" xmlns="http://www.w3.org/2000/svg" xmlns:xlink="http://www.w3.org/1999/xlink" xml:space="preserve" overflow="hidden"><g transform="translate(-549 -124)"><g><g><g><g><path d="M550 125 630 125 630 205 550 205Z" fill="#8C4FFF" fill-rule="evenodd" fill-opacity="1"/><path d="M599 168.943C599 174.607 596.308 177.636 591 177.967L591 152.806 599 155.865 599 168.943ZM581 168.943 581 155.865 589 152.806 589 177.957C582.43 177.527 581 172.88 581 168.943ZM589.643 150.419 579.643 154.242C579.256 154.39 579 154.762 579 155.176L579 168.943C579 172.267 580.072 180 590 180 597.094 180 601 176.073 601 168.943L601 155.176C601 154.762 600.744 154.39 600.357 154.242L590.357 150.419C590.127 150.331 589.873 150.331 589.643 150.419ZM604 168.943C604 181.986 593.284 183 590 183 576.675 183 576 171.29 576 168.943L576 152.423 590 147.07 604 152.423 604 168.943ZM564 146 571 146 571 139 564 139 564 146ZM609 146 616 146 616 139 609 139 609 146ZM609 191 616 191 616 184 609 184 609 191ZM564 191 571 191 571 184 564 184 564 191ZM617 148C617.553 148 618 147.552 618 147L618 138C618 137.447 617.553 137 617 137L608 137C607.447 137 607 137.447 607 138L607 146.586 603.496 150.09 590.357 145.066C590.127 144.978 589.873 144.978 589.643 145.066L576.504 150.09 573 146.586 573 138C573 137.447 572.553 137 572 137L563 137C562.447 137 562 137.447 562 138L562 147C562 147.552 562.447 148 563 148L571.586 148 574.48 150.894C574.19 151.074 574 151.385 574 151.735L574 168.943C574 171.803 574.634 174.844 576.081 177.505L571.586 182 563 182C562.447 182 562 182.447 562 183L562 192C562 192.552 562.447 193 563 193L572 193C572.553 193 573 192.552 573 192L573 183.414 577.188 179.226C579.681 182.585 583.773 185 590 185 596.7 185 600.6 182.41 602.868 179.282L607 183.414 607 192C607 192.552 607.447 193 608 193L617 193C617.553 193 618 192.552 618 192L618 183C618 182.447 617.553 182 617 182L608.414 182 603.948 177.534C605.817 173.981 606 170.23 606 168.943L606 151.735C606 151.385 605.81 151.074 605.52 150.894L608.414 148 617 148Z" fill="#FFFFFF" fill-rule="evenodd" fill-opacity="1"/></g></g></g></g></g></svg>