<svg width="81" height="80" xmlns="http://www.w3.org/2000/svg" xmlns:xlink="http://www.w3.org/1999/xlink" xml:space="preserve" overflow="hidden"><g transform="translate(-549 -124)"><g><g><g><g><path d="M550 124 630 124 630 204 550 204Z" fill="#01A88D" fill-rule="evenodd" fill-opacity="1"/><path d="M578.107 148.142C577.31 148.642 576.521 149.134 575.745 149.618 572.124 151.872 568.703 154.003 566.157 156.056 562.978 158.618 561.612 161.955 562.094 165.975 562.462 169.032 564.914 171.953 569.588 174.904L570.657 173.212C568.398 171.786 566.733 170.379 565.629 169L578.001 169 578.001 167 564.429 167C564.261 166.576 564.131 166.153 564.081 165.736 563.679 162.4 564.769 159.743 567.413 157.612 569.864 155.636 573.234 153.537 576.802 151.315 577.581 150.83 578.373 150.337 579.171 149.835 581.907 148.117 586.999 144.917 586.999 139L586.999 136 584.999 136 584.999 139C584.999 139.346 584.97 139.676 584.929 140L564.002 140 564.002 136 562.002 136 562.002 139.986C561.938 144.381 565.783 147.038 568.872 149.173L569.186 149.39 570.325 147.746 570.008 147.528C567.779 145.986 565.322 144.281 564.392 142L584.393 142C583.238 144.708 580.609 146.569 578.107 148.142ZM593.001 177 618.001 177 618.001 175 593.001 175 593.001 177ZM593.001 153 618.001 153 618.001 151 593.001 151 593.001 153ZM593.001 169 606.001 169 606.001 167 593.001 167 593.001 169ZM564.606 186 584.553 186C583.623 183.72 581.166 182.015 578.936 180.473L578.62 180.254 579.758 178.611 580.073 178.828C583.162 180.963 587.006 183.62 586.943 188.015L586.943 192 584.943 192 584.943 188 564.07 188C564.029 188.324 564.001 188.655 564.001 189L564.001 192 562.001 192 562.001 189C562.001 183.085 567.092 179.885 569.828 178.165 570.627 177.663 571.419 177.17 572.197 176.686 575.765 174.464 579.135 172.365 581.586 170.389 584.23 168.258 585.32 165.6 584.919 162.265 584.868 161.847 584.738 161.425 584.571 161L573.001 161 573.001 159 583.37 159C582.266 157.622 580.601 156.215 578.342 154.788L579.411 153.097C582.523 155.062 584.628 157.014 585.81 159L613.001 159 613.001 161 586.693 161C586.787 161.341 586.863 161.682 586.905 162.026 587.387 166.046 586.021 169.383 582.842 171.945 580.296 173.998 576.876 176.128 573.254 178.383 572.478 178.867 571.689 179.358 570.892 179.859 568.39 181.432 565.762 183.293 564.606 186Z" fill="#FFFFFF" fill-rule="evenodd" fill-opacity="1"/></g></g></g></g></g></svg>