<svg width="82" height="80" xmlns="http://www.w3.org/2000/svg" xmlns:xlink="http://www.w3.org/1999/xlink" xml:space="preserve" overflow="hidden"><g transform="translate(-550 -124)"><g><g><g><g><path d="M551 124 631 124 631 204 551 204Z" fill="#01A88D" fill-rule="evenodd" fill-opacity="1"/><path d="M565 158.001 611.999 158.001 611.999 156.001 565 156.001 565 158.001ZM587 140 611.999 140 611.999 138 587 138 587 140ZM577 140 580 140 580 138 577 138 577 140ZM571 140 574 140 574 138 571 138 571 140ZM565 140 568 140 568 138 565 138 565 140ZM607.714 174.331C607.714 177.912 604.909 180.717 601.328 180.717 597.747 180.717 594.941 177.912 594.941 174.331 594.941 170.749 597.747 167.944 601.328 167.944 604.909 167.944 607.714 170.749 607.714 174.331ZM609.713 174.331C609.713 169.628 606.029 165.944 601.328 165.944 596.625 165.944 592.941 169.628 592.941 174.331 592.941 179.033 596.625 182.717 601.328 182.717 606.029 182.717 609.713 179.033 609.713 174.331ZM620.987 191.987C621.036 191.616 620.937 191.303 620.693 191.059L612.55 183.132C611.842 184.032 611.03 184.844 610.13 185.553L618.079 193.688C618.692 194.301 619.652 193.91 620.278 193.284 620.671 192.891 620.929 192.418 620.987 191.987ZM601.328 186.612C608.099 186.612 613.607 181.102 613.607 174.331 613.607 167.559 608.099 162.049 601.328 162.049 594.557 162.049 589.048 167.559 589.048 174.331 589.048 181.102 594.557 186.612 601.328 186.612ZM622.969 192.252C622.853 193.123 622.399 193.991 621.692 194.698 620.83 195.561 619.804 196 618.831 196 618.029 196 617.265 195.702 616.657 195.095L608.447 186.691C606.349 187.906 603.922 188.612 601.328 188.612 593.454 188.612 587.048 182.205 587.048 174.331 587.048 166.457 593.454 160.049 601.328 160.049 609.201 160.049 615.607 166.457 615.607 174.331 615.607 176.924 614.901 179.351 613.688 181.449L622.098 189.635C622.796 190.333 623.103 191.259 622.969 192.252ZM565 166.002 586.919 166.002C587.335 165.303 587.79 164.63 588.301 164.001L565 164.001 565 166.002ZM615.999 143.001 615.999 136C615.999 135.449 615.551 135 614.999 135L562 135C561.448 135 561 135.449 561 136L561 143.001 615.999 143.001ZM617.999 136 617.999 144.001 617.999 172.703C617.75 170.449 617.054 168.33 615.999 166.434L615.999 145.001 561 145.001 561 188.003 591.33 188.003C592.392 188.794 593.539 189.478 594.772 190.003L560 190.003C559.447 190.003 559 189.555 559 189.003L559 144.001 559 136C559 134.346 560.346 133 562 133L614.999 133C616.653 133 617.999 134.346 617.999 136ZM584.764 172.002C584.662 172.658 584.599 173.324 584.576 174.002L565 174.002 565 172.002 584.764 172.002Z" fill="#FFFFFF" fill-rule="evenodd" fill-opacity="1"/></g></g></g></g></g></svg>