<svg width="49" height="48" xmlns="http://www.w3.org/2000/svg" xmlns:xlink="http://www.w3.org/1999/xlink" xml:space="preserve" overflow="hidden"><g transform="translate(-497 -296)"><g><g><g><g><path d="M539.945 336.906 534.316 331.638 540.394 325.5C541.55 327.067 542.177 328.959 542.177 330.927 542.177 333.153 541.387 335.246 539.945 336.906ZM523.882 331.465C523.871 331.286 523.867 331.107 523.867 330.927 523.867 326.219 527.44 322.328 532.017 321.826L532.017 331.528C532.017 331.785 532.123 332.018 532.289 332.199L532.149 332.349 538.474 338.269C536.904 339.439 535.012 340.082 533.022 340.082 528.178 340.082 524.164 336.299 523.882 331.465ZM516.091 316.895C518.543 316.895 520.946 317.58 523.041 318.878 524.35 319.689 525.492 320.717 526.469 321.92 523.916 323.782 522.182 326.694 521.913 330.021L502.534 330.021C503.029 322.696 508.92 316.895 516.091 316.895ZM508.791 307.401C508.791 303.375 512.067 300.1 516.092 300.1 520.118 300.1 523.392 303.375 523.392 307.401 523.392 311.427 520.118 314.702 516.092 314.702 512.067 314.702 508.791 311.427 508.791 307.401ZM540.474 323.014C540.211 323.034 539.94 323.117 539.748 323.31L534.017 329.097 534.017 320.772C534.017 320.506 533.912 320.252 533.724 320.065 533.537 319.877 533.283 319.772 533.017 319.772 531.288 319.772 529.657 320.18 528.195 320.886 527.042 319.412 525.674 318.157 524.093 317.177 522.975 316.485 521.778 315.951 520.536 315.569 523.427 313.99 525.392 310.921 525.392 307.401 525.392 302.272 521.22 298.1 516.092 298.1 510.963 298.1 506.791 302.272 506.791 307.401 506.791 310.922 508.758 313.991 511.65 315.57 505.211 317.554 500.5 323.725 500.5 331.021 500.5 331.573 500.947 332.021 501.5 332.021L521.933 332.021C522.486 337.695 527.268 342.082 533.022 342.082 535.958 342.082 538.73 340.95 540.825 338.896 542.987 336.783 544.177 333.953 544.177 330.927 544.177 328.101 543.117 325.404 541.191 323.333 541.005 323.133 540.747 323.018 540.474 323.014ZM537.017 314.075C538.872 314.28 540.63 315.051 542.038 316.276L537.017 321.346 537.017 314.075ZM535.636 324.702C535.759 324.753 535.889 324.777 536.017 324.777 536.279 324.777 536.536 324.674 536.728 324.481L544.169 316.966C544.546 316.586 544.556 315.975 544.191 315.582 542.089 313.319 539.111 312.021 536.017 312.021 535.464 312.021 535.017 312.468 535.017 313.021L535.017 323.777C535.017 324.183 535.262 324.548 535.636 324.702Z" fill="#E7157B" fill-rule="evenodd" fill-opacity="1"/></g></g></g></g></g></svg>