<svg xmlns="http://www.w3.org/2000/svg" xmlns:lucid="lucid" width="122" height="122"><g lucid:page-tab-id="0_0" stroke="#fff" stroke-opacity="0" stroke-width="2"><path d="M1 1h120v120H1z" fill="#3b48cc"/><path d="M46.7 45.1c-14.16 0-24.84-4.48-24.84-10.42 0-5.94 10.68-10.42 24.84-10.42s24.84 4.48 24.84 10.42c0 5.94-10.68 10.42-24.84 10.42zm0-18.4c-13.2 0-22.4 4.2-22.4 8s9.2 8 22.4 8c13.22 0 22.4-4.2 22.4-8s-9.18-8-22.4-8z" fill="#fff"/><path d="M69.1 34.68h2.44v17.74H69.1zM46.68 97.74c-14.15 0-24.88-4.48-24.88-10.35V34.67h2.43v52.7c0 3.8 9.2 8.02 22.4 8.02s22.4-4.22 22.4-8V76.16h2.43V87.4c.1 5.86-10.62 10.34-24.78 10.34z" fill="#fff"/><path d="M36.4 62.6C27.38 60.9 22 57.35 22 53h2.45c0 2.88 5 5.73 12.42 7.12zM46.76 81.6c-14.14 0-24.78-4.5-24.78-10.42h2.44c0 3.78 9.17 8 22.38 8 10.6 0 16.2-2.5 16.25-2.52l1 2.2c-.3.1-6.14 2.73-17.3 2.73zM51.83 69.8h-5.4c-1.57 0-2.84-1.28-2.84-2.84V61.5c-.03-1.58 1.22-2.88 2.8-2.9h5.42c1.6 0 2.86 1.28 2.86 2.85v5.4c.06 1.56-1.16 2.88-2.74 2.95h-.1zm-5.4-8.66c-.23 0-.4.2-.4.42v5.4c0 .2.17.4.4.4h5.4c.22 0 .4-.2.4-.4V61.5c0-.22-.18-.4-.4-.42zM72.47 69.8h-5.4c-1.58 0-2.84-1.28-2.84-2.84V61.5c-.02-1.58 1.23-2.88 2.8-2.9h5.44c1.57 0 2.84 1.28 2.84 2.85v5.4c.06 1.56-1.16 2.88-2.73 2.95h-.1zm-5.4-8.66c-.22 0-.4.2-.4.42v5.4c0 .2.18.4.4.4h5.4c.22 0 .4-.2.4-.4V61.5c0-.22-.18-.4-.4-.42zM93.1 69.8h-5.4c-1.57 0-2.84-1.28-2.84-2.84V61.5c-.03-1.58 1.23-2.88 2.8-2.9h5.45c1.57 0 2.85 1.28 2.85 2.85v5.4c.05 1.56-1.17 2.88-2.74 2.95h-.1zm-5.4-8.66c-.23 0-.42.2-.42.42v5.4c.02.22.2.4.43.4h5.4c.22 0 .4-.18.42-.4V61.5c0-.23-.2-.42-.42-.42z" fill="#fff"/><path d="M97.7 73.9H83.2c-1.34 0-2.44-1.13-2.44-2.48v-3.87h-1.27v3.85c0 1.35-1.1 2.44-2.43 2.44H62.57c-1.4 0-2.5-1.1-2.5-2.44v-3.8H58.8v3.8c0 1.35-1.1 2.44-2.44 2.44H41.83c-1.34 0-2.43-1.1-2.43-2.44V57c0-1.35 1.1-2.45 2.43-2.45h14.53c1.34.02 2.44 1.1 2.44 2.46v4.8h1.27V57c0-1.35 1.1-2.45 2.5-2.45h14.47c1.33 0 2.43 1.1 2.43 2.46v4.8h1.27V57c0-1.35 1.1-2.45 2.44-2.45H97.7c1.35-.04 2.44 1.03 2.5 2.38V71.4c0 1.35-1.03 2.48-2.37 2.5h-.12zM83.2 65.17v6.23H97.7V57H83.2v7.22h-6.14v-7.2H62.57v7.2h-6.2v-7.2H41.82V71.4h14.53v-6.23h6.2v6.4h14.48V65.2z" fill="#fff"/></g></svg>