<svg width="82" height="80" xmlns="http://www.w3.org/2000/svg" xmlns:xlink="http://www.w3.org/1999/xlink" xml:space="preserve" overflow="hidden"><g transform="translate(-790 -124)"><g><g><g><g><path d="M791 124 871 124 871 204 791 204Z" fill="#01A88D" fill-rule="evenodd" fill-opacity="1"/><path d="M843.823 190.01C843.515 186.127 841.437 182.569 838.244 180.556 836.478 179.444 834.452 178.855 832.385 178.855 826.375 178.855 821.429 183.774 820.947 190.01L843.823 190.01ZM832.406 176.855C835.844 176.855 838.64 174.058 838.64 170.62 838.64 167.182 835.844 164.385 832.406 164.385 828.968 164.385 826.171 167.182 826.171 170.62 826.171 174.058 828.968 176.855 832.406 176.855ZM845.862 191.01C845.862 191.562 845.415 192.01 844.862 192.01L819.909 192.01C819.356 192.01 818.909 191.562 818.909 191.01 818.909 184.789 822.755 179.505 828.075 177.611 825.736 176.157 824.171 173.571 824.171 170.62 824.171 166.079 827.865 162.385 832.406 162.385 836.946 162.385 840.64 166.079 840.64 170.62 840.64 173.573 839.073 176.159 836.733 177.614 837.629 177.933 838.494 178.349 839.31 178.864 843.351 181.411 845.862 186.065 845.862 191.01ZM811.501 165.158 812.53 166.873 818.388 163.359 822.022 165.556 823.057 163.845 819.063 161.429 819.064 157.116 825.56 153.391C825.872 153.213 826.063 152.882 826.063 152.524L826.063 142.993 824.063 142.993 824.063 151.945 818.079 155.376 812.063 152.02 812.063 144.5 818.063 140.922 818.063 147.993 820.063 147.993 820.063 139.729 824.41 137.136 831.063 140.336 831.063 159.993 833.063 159.993 833.063 139.707C833.063 139.323 832.843 138.972 832.497 138.806L824.793 135.101C824.489 134.956 824.136 134.972 823.846 135.143L810.551 143.073C810.249 143.254 810.063 143.58 810.063 143.932L810.063 151.508 803.692 154.056C803.313 154.208 803.065 154.573 803.063 154.981L803 170.159C802.999 170.505 803.176 170.827 803.469 171.011L810.063 175.139 810.063 181.802C810.063 182.116 810.212 182.413 810.464 182.601L815.725 186.548 816.925 184.948 812.063 181.302 812.063 174.585C812.063 174.482 812.048 174.381 812.017 174.285L817.793 170.82 816.763 169.105 810.344 172.956 805.002 169.611 805.025 164.01 811.215 160.296 810.185 158.581 805.035 161.671 805.06 155.663 810.552 153.467 817.064 157.1 817.063 161.822 811.501 165.158ZM842.735 166.309C843.078 165.174 843.252 164.014 843.252 162.863 843.252 157.59 839.722 152.915 834.669 151.494L834.128 153.42C838.322 154.599 841.252 158.482 841.252 162.863 841.252 163.818 841.107 164.783 840.821 165.731L842.735 166.309ZM858.998 167.639 855.222 177.518C855.124 177.776 854.924 177.981 854.669 178.086 854.414 178.191 854.128 178.186 853.877 178.073L850.636 176.612C850.494 176.839 850.36 177.058 850.229 177.271 849.341 178.718 848.574 179.969 846.827 181.288L845.622 179.691C847.067 178.601 847.678 177.604 848.525 176.225 848.799 175.779 849.09 175.305 849.429 174.793 849.701 174.385 850.227 174.234 850.674 174.435L853.732 175.814 856.751 167.915 853.538 166.894C853.071 166.745 852.78 166.281 852.851 165.796 853.207 163.369 853.138 160.9 852.649 158.454 852.553 157.975 852.818 157.496 853.275 157.323L856.414 156.134 852.954 148.414 849.974 149.964C849.538 150.189 849.008 150.068 848.715 149.678 847.217 147.693 845.418 145.996 843.368 144.635 842.961 144.364 842.809 143.838 843.01 143.391L844.39 140.32 836.4 137.277 835.239 139.997 833.399 139.212 834.938 135.608C835.149 135.114 835.714 134.875 836.214 135.066L846.093 138.828C846.35 138.927 846.555 139.126 846.661 139.381 846.766 139.635 846.762 139.922 846.649 140.173L845.176 143.452C846.896 144.687 848.443 146.147 849.788 147.806L852.97 146.15C853.216 146.024 853.5 146.003 853.761 146.093 854.021 146.183 854.232 146.377 854.344 146.628L858.673 156.284C858.786 156.535 858.79 156.822 858.684 157.077 858.578 157.331 858.373 157.531 858.115 157.628L854.762 158.898C855.109 161.011 855.168 163.137 854.938 165.24L858.366 166.329C858.629 166.413 858.844 166.6 858.964 166.848 859.084 167.096 859.095 167.383 858.998 167.639Z" fill="#FFFFFF" fill-rule="evenodd" fill-opacity="1"/></g></g></g></g></g></svg>