<svg width="48" height="48" viewBox="0 0 48 48" xmlns="http://www.w3.org/2000/svg" xmlns:xlink="http://www.w3.org/1999/xlink" overflow="hidden"><g id="Icon-Resource/Database/Res_Amazon-DynamoDB_Amazon-DynamoDB-Accelerator_48" stroke="none" stroke-width="1" fill="none" fill-rule="evenodd"><path d="M6 35 30 35 30 33 6 33 6 35ZM2 27.927 17 27.927 17 25.927 2 25.927 2 27.927ZM22 31 22 27.927 19.084 27.927 19.084 25.927 22 25.927 22 23 24 23 24 25.927 27 25.927 27 27.927 24 27.927 24 31 22 31ZM34.4 39.656 36.959 29.981C37.038 29.681 36.974 29.361 36.784 29.114 36.596 28.869 36.303 28.725 35.992 28.725L31.608 28.725 35.641 20 42.011 20 38.004 26.474C37.813 26.782 37.805 27.17 37.98 27.487 38.157 27.804 38.492 28 38.854 28L42.842 28 34.4 39.656ZM45.691 26.545C45.521 26.211 45.177 26 44.801 26L40.649 26 44.656 19.527C44.847 19.218 44.855 18.83 44.68 18.514 44.503 18.196 44.168 18 43.806 18L35.001 18C34.611 18 34.257 18.227 34.093 18.58L29.137 29.305C28.994 29.615 29.019 29.976 29.202 30.264 29.387 30.551 29.704 30.725 30.045 30.725L34.693 30.725 31.095 44.335C30.972 44.801 31.198 45.288 31.633 45.494 31.771 45.56 31.917 45.591 32.062 45.591 32.374 45.591 32.678 45.445 32.871 45.178L45.61 27.587C45.831 27.282 45.862 26.88 45.691 26.545L45.691 26.545ZM28.448 40.084 28.749 42.061C27.238 42.291 25.661 42.408 24.063 42.408 16.853 42.408 9.553 40.37 9.553 36.475L11.553 36.475C11.553 38.117 16.313 40.408 24.063 40.408 25.561 40.408 27.036 40.299 28.448 40.084L28.448 40.084ZM11.033 9.754C11.033 7.84 16.464 5 23.966 5 31.763 5 37 7.572 37 9.976 37 11.638 31.936 14.053 24 14.053 16.159 14.053 11.121 11.695 11.002 10.035L11.033 9.754ZM11 13.123C13.768 15.042 18.991 16.053 24 16.053 29.009 16.053 34.232 15.042 37 13.123L37 16 39 16 39 10 38.997 10C38.997 9.992 39 9.985 39 9.976 39 5.934 32.677 3 23.966 3 15.933 3 9.136 6.047 9.034 9.672L9 9.976C9 9.985 9.003 9.992 9.003 10L9 10 9 24 11 24 11 13.123Z" id="Amazon-DATABASE_Amazon-DynamoDB_Amazon-DynamoDB-Accelerator_Resource-Icon_light-bg" fill="#C925D1"/></g></svg>