<svg width="80" height="80" viewBox="0 0 80 80" xmlns="http://www.w3.org/2000/svg" xmlns:xlink="http://www.w3.org/1999/xlink" overflow="hidden"><g id="Icon-Architecture/64/Arch_Amazon-Verified-Permissions_64" stroke="none" stroke-width="1" fill="none" fill-rule="evenodd"><g id="Icon-Architecture-BG/64/Security-Identity-Compliance" fill="#DD344C"><rect x="0" y="0" width="80" height="80" id="Rectangle"/></g><path d="M48 48 58 48 58 50 48 50 48 54 58 54 58 56 48 56 48 59 46 59 46 45 48 45 48 48ZM66 53.522 64.485 53.436C64.014 53.402 63.561 53.736 63.453 54.214 63.147 55.569 62.614 56.855 61.871 58.035 61.61 58.448 61.687 58.989 62.051 59.314L63.183 60.324 60.324 63.183 59.318 62.056C58.992 61.689 58.45 61.614 58.038 61.876 56.86 62.62 55.573 63.153 54.213 63.46 53.736 63.568 53.407 64.005 53.436 64.493L53.521 66 49.479 66 49.564 64.492C49.593 64.004 49.264 63.567 48.787 63.459 47.432 63.152 46.146 62.619 44.965 61.873 44.551 61.612 44.009 61.687 43.685 62.053L42.677 63.183 39.817 60.324 40.946 59.317C41.312 58.991 41.388 58.45 41.127 58.037 40.384 56.859 39.852 55.573 39.545 54.214 39.437 53.736 38.974 53.402 38.513 53.436L37 53.522 37 49.478 38.518 49.564C38.997 49.583 39.44 49.264 39.55 48.787 39.856 47.434 40.39 46.15 41.135 44.972 41.396 44.558 41.319 44.017 40.955 43.691L39.817 42.677 42.677 39.817 43.691 40.954C44.019 41.318 44.56 41.393 44.971 41.133 46.146 40.392 47.431 39.86 48.786 39.554 49.264 39.446 49.593 39.01 49.564 38.522L49.479 37 53.521 37 53.436 38.523C53.407 39.011 53.736 39.448 54.213 39.555 55.567 39.862 56.851 40.394 58.026 41.136 58.438 41.396 58.98 41.32 59.307 40.957L60.323 39.817 63.183 42.677 62.048 43.689C61.684 44.014 61.607 44.556 61.868 44.969 62.611 46.145 63.145 47.429 63.451 48.787 63.559 49.264 64.014 49.583 64.483 49.564L66 49.478 66 53.522ZM67.687 47.692C67.487 47.504 67.217 47.405 66.943 47.421L65.189 47.521C64.898 46.516 64.498 45.55 63.993 44.634L65.305 43.464C65.51 43.281 65.631 43.022 65.639 42.747 65.646 42.472 65.54 42.206 65.346 42.011L60.989 37.655C60.795 37.46 60.525 37.347 60.254 37.362 59.979 37.37 59.72 37.491 59.536 37.696L58.361 39.012C57.446 38.508 56.481 38.108 55.479 37.817L55.578 36.057C55.594 35.782 55.496 35.513 55.307 35.313 55.118 35.113 54.855 35 54.58 35L48.42 35C48.145 35 47.882 35.113 47.693 35.313 47.504 35.513 47.406 35.782 47.422 36.057L47.521 37.815C46.518 38.106 45.553 38.505 44.637 39.009L43.464 37.696C43.28 37.491 43.021 37.37 42.746 37.362 42.472 37.35 42.205 37.46 42.011 37.655L37.654 42.011C37.46 42.206 37.354 42.472 37.361 42.747 37.369 43.022 37.49 43.281 37.695 43.464L39.01 44.637C38.505 45.553 38.104 46.519 37.812 47.521L36.057 47.421C35.785 47.404 35.512 47.504 35.313 47.692 35.113 47.881 35 48.145 35 48.419L35 54.581C35 54.855 35.113 55.119 35.313 55.308 35.513 55.496 35.786 55.594 36.057 55.579L37.806 55.479C38.097 56.485 38.497 57.453 39.003 58.371L37.696 59.536C37.49 59.719 37.369 59.979 37.361 60.253 37.354 60.529 37.46 60.795 37.654 60.989L42.011 65.346C42.205 65.541 42.469 65.653 42.746 65.638 43.021 65.63 43.281 65.51 43.464 65.304L44.63 63.998C45.549 64.504 46.517 64.905 47.521 65.197L47.422 66.943C47.406 67.218 47.504 67.487 47.693 67.687 47.882 67.887 48.145 68 48.42 68L54.58 68C54.855 68 55.118 67.887 55.307 67.687 55.496 67.487 55.594 67.218 55.578 66.943L55.479 65.199C56.486 64.907 57.455 64.506 58.373 64L59.536 65.304C59.719 65.51 59.979 65.63 60.254 65.638 60.527 65.655 60.795 65.541 60.989 65.346L65.346 60.989C65.54 60.795 65.646 60.529 65.639 60.254 65.631 59.979 65.51 59.719 65.305 59.536L63.995 58.368C64.5 57.45 64.9 56.483 65.191 55.479L66.943 55.579C67.216 55.593 67.487 55.496 67.687 55.308 67.887 55.119 68 54.855 68 54.581L68 48.419C68 48.145 67.887 47.881 67.687 47.692L67.687 47.692ZM31.742 36.218 24.197 43.763C24.01 43.951 23.756 44.056 23.49 44.056 23.225 44.056 22.971 43.951 22.783 43.763L19.012 39.991 20.426 38.577 23.49 41.642 30.328 34.804 31.742 36.218ZM31.742 21.826 24.197 29.37C24.01 29.558 23.756 29.663 23.49 29.663 23.225 29.663 22.971 29.558 22.783 29.37L19.012 25.598 20.426 24.184 23.49 27.249 30.328 20.412 31.742 21.826ZM29.856 52.355 26.319 55.892 29.856 59.429 28.442 60.843 24.905 57.306 21.368 60.843 19.954 59.429 23.491 55.892 19.954 52.355 21.368 50.941 24.905 54.478 28.442 50.941 29.856 52.355ZM45 15.659 50.973 21 45 21 45 15.659ZM14 14 43 14 43 22C43 22.552 43.447 23 44 23L52 23 52 33 54 33 54 21.471C54 21.186 53.879 20.915 53.667 20.725L44.193 12.254C44.01 12.091 43.772 12 43.526 12L13 12C12.447 12 12 12.448 12 13L12 67C12 67.552 12.447 68 13 68L38 68 38 66 14 66 14 14Z" id="Fill-1" fill="#FFFFFF"/></g></svg>