<svg width="82" height="80" xmlns="http://www.w3.org/2000/svg" xmlns:xlink="http://www.w3.org/1999/xlink" xml:space="preserve" overflow="hidden"><g transform="translate(-790 -124)"><g><g><g><g><path d="M791 124 871 124 871 204 791 204Z" fill="#C925D1" fill-rule="evenodd" fill-opacity="1"/><path d="M854.95 173.7 851.262 171.164C852.171 168.88 852.632 166.471 852.632 163.992 852.632 161.143 852 158.308 850.798 155.74L854.402 153.152C856.113 156.495 857.013 160.22 857.013 163.992 857.013 167.384 856.32 170.644 854.95 173.7ZM855.609 151.181C855.469 150.936 855.23 150.762 854.954 150.701 854.677 150.642 854.388 150.701 854.158 150.866L848.941 154.611C848.536 154.902 848.407 155.447 848.638 155.888 849.961 158.407 850.632 161.133 850.632 163.992 850.632 166.469 850.12 168.866 849.11 171.117 848.912 171.557 849.057 172.076 849.456 172.35L854.781 176.012C854.949 176.127 855.147 176.187 855.347 176.187 855.43 176.187 855.513 176.177 855.595 176.156 855.874 176.085 856.109 175.896 856.239 175.639 858.08 172.006 859.013 168.087 859.013 163.992 859.013 159.5 857.836 155.07 855.609 151.181ZM831.04 190.012 831.04 185.075C837.447 185.065 843.529 182.104 847.508 177.101L851.582 179.904C846.673 186.243 839.07 190.002 831.04 190.012ZM805 164.007C805 150.329 815.616 139.091 829.04 138.082L829.04 143.036C818.341 144.033 809.936 153.052 809.936 164.007 809.936 174.961 818.341 183.981 829.04 184.977L829.04 189.932C815.616 188.922 805 177.685 805 164.007ZM850.719 147.052 846.694 149.942C842.7 145.487 837.049 142.947 831.04 142.938L831.04 138.001C838.657 138.01 845.769 141.294 850.719 147.052ZM840.858 154.131C838.25 151.53 834.708 150.054 831.007 150.054 823.318 150.054 817.063 156.306 817.055 163.993L811.937 163.993C811.945 153.484 820.496 144.937 831.007 144.937 836.384 144.937 841.447 147.176 845.058 151.116L840.858 154.131ZM831.007 177.959C835.087 177.959 838.987 176.141 841.625 173.054L845.853 175.963C842.244 180.434 836.77 183.076 831.007 183.076 821.162 183.076 813.038 175.578 812.041 165.993L817.213 165.993C818.182 172.746 823.989 177.959 831.007 177.959ZM847.854 174.912 841.99 170.879C841.545 170.572 840.939 170.674 840.62 171.108 838.339 174.191 834.835 175.959 831.007 175.959 824.416 175.959 819.054 170.597 819.054 164.007 819.054 157.416 824.416 152.054 831.007 152.054 834.437 152.054 837.708 153.534 839.979 156.115 840.319 156.5 840.895 156.567 841.313 156.267L847.115 152.101 852.754 148.053C852.976 147.893 853.123 147.65 853.161 147.379 853.199 147.108 853.124 146.833 852.954 146.619 847.6 139.87 839.6 136 831.007 136 815.563 136 803 148.564 803 164.007 803 179.45 815.563 192.013 831.007 192.013 840.034 192.013 848.561 187.615 853.817 180.248 853.972 180.03 854.034 179.758 853.987 179.494 853.941 179.23 853.791 178.995 853.569 178.844L847.854 174.912Z" fill="#FFFFFF" fill-rule="evenodd" fill-opacity="1"/></g></g></g></g></g></svg>