<svg xmlns="http://www.w3.org/2000/svg" xmlns:lucid="lucid" width="121" height="121"><g lucid:page-tab-id="0_0" stroke="#000" stroke-opacity="0"><path d="M.5.5h120v120H.5z" fill="#01a88d"/><path d="M102.5 99.48v3.02H20c-.83 0-1.5-.67-1.5-1.5V18.5h3.02v80.98h80.98zm-76.7-3.7l-2.6-1.6L35.22 74.7c.58-.84 2-.84 2.6 0l9.83 16.04 8.3-51c.1-.74.77-1.25 1.44-1.25h.08c.67 0 1.26.5 1.42 1.17L70.4 92 79 83.43c.25-.33.67-.42 1.18-.42.42 0 .84.26 1.1.6l6.46 9.07 4.7-4.7 2.1 2.1-5.96 5.96c-.34.34-.76.5-1.18.5-.42-.08-.84-.33-1.1-.67l-6.46-9.07-9.24 9.23c-.42.42-1 .6-1.5.42-.52-.17-.94-.6-1.02-1.1L57.64 48 50 95.28c-.08.58-.6 1.1-1.18 1.17-.16 0-.25.1-.33.1-.52 0-1.02-.35-1.27-.77l-10.75-17.4L25.8 95.8zm48.06-50.74c-1.1-9.5-9.4-16.04-18.9-14.95-4.62.58-8.66 2.76-11.43 6.3C40.76 39.9 39.5 44.45 40 49c.68 5.7 3.87 10.4 8.74 13l-1.43 2.7c-5.7-3.1-9.48-8.74-10.24-15.37-.67-5.38.84-10.6 4.12-14.8 3.28-4.1 8.06-6.8 13.44-7.38 11.17-1.34 20.92 6.4 22.26 17.56.92 7.82-2.6 15.3-9.24 19.33l-1.6-2.52c5.63-3.44 8.66-9.74 7.82-16.46zm24.7 29.57c1.5 1.27 1 3.46-.26 5.05-1.18 1.5-3.2 2.6-4.8 1.35L75.97 66.8c1.76-1.76 3.36-3.78 4.62-5.96L98.55 74.6zm-54.1-3.18l1.42-2.7c-7.3-3.6-12.18-10.74-13.1-18.8-1.6-13.36 7.98-25.54 21.34-27.14 13.35-1.6 25.53 8.07 27.04 21.42 1.18 10.08-4.03 20-13.1 24.53l1.34 2.7c1.52-.77 2.94-1.6 4.2-2.6l18.06 14.52c1 .84 2.2 1.26 3.45 1.26 1.94 0 4.04-1.08 5.55-3.1 2.52-3.1 2.44-7.14-.25-9.24L82 58.16c1.94-4.38 2.78-9.34 2.2-14.3C82.4 28.84 68.72 18.1 53.77 19.85c-15.04 1.77-25.8 15.38-24.02 30.4 1.1 9.08 6.55 17.06 14.7 21.18z" fill="#fff"/></g></svg>