<svg width="81" height="80" xmlns="http://www.w3.org/2000/svg" xmlns:xlink="http://www.w3.org/1999/xlink" xml:space="preserve" overflow="hidden"><g transform="translate(-313 -124)"><g><g><g><g><path d="M314 124 394 124 394 204 314 204Z" fill="#E7157B" fill-rule="evenodd" fill-opacity="1"/><path d="M340 176 342 176 342 165 340 165 340 176ZM361 176 363 176 363 165 361 165 361 176ZM354 176 356 176 356 151 354 151 354 176ZM347 176 349 176 349 160 347 160 347 176ZM380 182.193 344.42 189.886 328.12 167.833 338.685 138.061 361.05 139.924 362.002 157.056C362.017 157.33 362.145 157.586 362.355 157.763 362.565 157.941 362.84 158.025 363.111 157.994L380 156.117 380 182.193ZM381.667 154.255C381.454 154.065 381.171 153.976 380.89 154.006L363.94 155.89 362.998 138.944C362.971 138.446 362.58 138.045 362.083 138.003L338.083 136.003C337.624 135.966 337.209 136.238 337.058 136.666L326.058 167.666C325.947 167.979 325.998 168.327 326.197 168.594L343.197 191.594C343.387 191.853 343.687 192 344 192 344.071 192 344.141 191.993 344.211 191.978L381.211 183.978C381.672 183.878 382 183.471 382 183L382 155C382 154.715 381.879 154.444 381.667 154.255Z" fill="#FFFFFF" fill-rule="evenodd" fill-opacity="1"/></g></g></g></g></g></svg>