<svg width="49" height="49" xmlns="http://www.w3.org/2000/svg" xmlns:xlink="http://www.w3.org/1999/xlink" xml:space="preserve" overflow="hidden"><g transform="translate(-284 -405)"><g><g><g><g><path d="M295.604 431.036 295.604 429.036C298.781 429.036 301.365 431.62 301.365 434.797L299.365 434.797C299.365 432.723 297.677 431.036 295.604 431.036M325.813 432.016 326.097 430.266C328.145 431.466 328.771 432.158 328.956 432.453 328.641 432.513 327.789 432.537 325.813 432.016M308.641 419.481C298.299 419.481 291.293 417.012 290.779 415.228L290.75 415.019C290.889 413.227 298.227 410 308.641 410 319.056 410 326.395 413.227 326.534 415.019L326.505 415.228C325.991 417.012 318.984 419.481 308.641 419.481M302 434.5C302 438.084 299.083 441 295.5 441 291.916 441 289 438.084 289 434.5 289 430.916 291.916 428 295.5 428 299.083 428 302 430.916 302 434.5M330.999 432.249C330.774 431.051 329.36 429.785 326.438 428.16L328.471 415.619C328.473 415.61 328.469 415.6 328.47 415.591L328.475 415.591 328.527 415.203C328.533 415.159 328.536 415.115 328.536 415.071 328.536 410.904 318.051 408 308.641 408 299.232 408 288.749 410.904 288.749 415.071 288.749 415.115 288.751 415.159 288.757 415.203L288.809 415.591 288.82 415.59C288.823 415.612 288.815 415.634 288.82 415.656L291.142 427.216C288.666 428.703 287 431.407 287 434.5 287 439.187 290.813 443 295.5 443 296.498 443 297.453 442.818 298.343 442.5L303.108 451.665 304.883 450.743 300.138 441.614C302.459 440.095 304 437.476 304 434.5 304 429.813 300.186 426 295.5 426 294.634 426 293.8 426.132 293.013 426.373L291.414 418.411C295.094 420.435 302.034 421.481 308.641 421.481 315.33 421.481 322.359 420.41 326.004 418.336L323.88 431.441C319.419 429.991 313.708 427.397 310.988 426.12 310.99 426.079 311 426.041 311 426 311 424.897 310.102 424 309 424 307.897 424 307 424.897 307 426 307 427.103 307.897 428 309 428 309.308 428 309.597 427.924 309.858 427.799 312.901 429.236 318.885 431.956 323.556 433.439L321.35 447.046C320.918 447.636 317.515 450.051 308.641 450.051L308.641 452.051C317.912 452.051 323.122 449.317 323.327 447.355L325.492 433.997C326.731 434.316 327.74 434.485 328.528 434.485 329.518 434.485 330.186 434.233 330.611 433.726 330.96 433.309 331.098 432.785 330.999 432.249" fill="#7AA116" fill-rule="evenodd" fill-opacity="1"/></g></g></g></g></g></svg>