<svg width="49" height="49" xmlns="http://www.w3.org/2000/svg" xmlns:xlink="http://www.w3.org/1999/xlink" xml:space="preserve" overflow="hidden"><g transform="translate(-789 -524)"><g><g><g><g><path d="M827 564.121 832 564.121 832 562.121 827 562.121 827 564.121ZM822 566.121C822.023 566.121 822.047 566.12 822.071 566.118 822.36 566.098 822.626 565.953 822.8 565.721L825.8 561.721 824.2 560.521 821.892 563.598 820.707 562.414 819.293 563.828 821.293 565.828C821.481 566.016 821.735 566.121 822 566.121ZM827 557.121 832 557.121 832 555.121 827 555.121 827 557.121ZM822 559.121C822.023 559.121 822.047 559.12 822.071 559.118 822.36 559.098 822.626 558.953 822.8 558.721L825.8 554.721 824.2 553.521 821.892 556.598 820.707 555.414 819.293 556.828 821.293 558.828C821.481 559.016 821.735 559.121 822 559.121ZM818 568.993 834 568.993 834 549.993 818 549.993 818 568.993ZM836 548.993 836 569.993C836 570.545 835.553 570.993 835 570.993L817 570.993C816.447 570.993 816 570.545 816 569.993L816 548.993C816 548.441 816.447 547.993 817 547.993L835 547.993C835.553 547.993 836 548.441 836 548.993ZM810 550.993C810.256 550.993 810.512 550.895 810.707 550.7L813.707 547.7 812.293 546.286 811 547.579 811 538.407 812.293 539.7 813.707 538.286 810.707 535.286C810.316 534.895 809.684 534.895 809.293 535.286L806.293 538.286 807.707 539.7 809 538.407 809 547.579 807.707 546.286 806.293 547.7 809.293 550.7C809.488 550.895 809.744 550.993 810 550.993ZM804.707 546.7 807.707 543.7C808.098 543.309 808.098 542.677 807.707 542.286L804.707 539.286 803.293 540.7 804.586 541.993 801 541.993 801 543.993 804.586 543.993 803.293 545.286 804.707 546.7ZM815.414 543.993 819 543.993 819 541.993 815.414 541.993 816.707 540.7 815.293 539.286 812.293 542.286C811.902 542.677 811.902 543.309 812.293 543.7L815.293 546.7 816.707 545.286 815.414 543.993ZM802 553.993 814 553.993 814 555.993 802 555.993C801.49 555.993 801.039 555.997 800.635 556 800.315 556.003 800.021 556.005 799.748 556.005 798.272 556.005 797.389 555.935 796.396 555.447 794.368 554.45 792 551.764 792 547.475 792 542.122 795.532 540.07 797.71 539.313L797.679 538.774C797.677 534.274 800.644 529.664 804.578 527.993 809.185 526.035 814.066 527.008 817.632 530.596 818.677 531.646 819.543 532.907 820.218 534.357 821.626 533.306 823.469 532.971 825.182 533.533 827.443 534.276 828.864 536.335 829.069 539.11 831.577 539.828 835.002 542.006 835.97 545.878L834.03 546.364C833.083 542.577 829.294 541.13 827.913 540.892 827.377 540.8 827.014 540.296 827.094 539.759 827.096 537.562 826.171 535.963 824.558 535.433 823.14 534.967 821.572 535.483 820.662 536.717 820.443 537.014 820.07 537.168 819.71 537.113 819.344 537.058 819.037 536.805 818.914 536.456 818.287 534.674 817.378 533.177 816.214 532.006 814.788 530.572 810.878 527.49 805.359 529.833 802.173 531.187 799.677 535.089 799.677 538.716L799.753 539.983C799.781 540.461 799.467 540.891 799.004 541.011 797.135 541.49 794 542.968 794 547.475 794 550.845 795.766 552.909 797.278 553.652 797.997 554.006 798.604 554.016 800.618 554 801.027 553.997 801.484 553.993 802 553.993Z" fill="#8C4FFF" fill-rule="evenodd" fill-opacity="1"/></g></g></g></g></g></svg>