<svg width="80" height="80" viewBox="0 0 80 80" xmlns="http://www.w3.org/2000/svg" xmlns:xlink="http://www.w3.org/1999/xlink" overflow="hidden"><g id="Icon-Architecture/64/Arch_AWS-AppFabric_64" stroke="none" stroke-width="1" fill="none" fill-rule="evenodd"><g id="Icon-Architecture-BG/64/Business-Applications" fill="#DD344C"><rect x="0" y="0" width="80" height="80" id="Rectangle"/></g><g id="Icon-Service/64/AWS-AppFabric_64" fill="#FFFFFF" transform="translate(12 12)"><path d="M51.996 32.414C57.324 27.085 57.324 18.414 51.996 13.085 46.667 7.756 37.996 7.755 32.667 13.085L21.024 24.727C17.535 28.217 16.196 33.34 17.531 38.097L19.457 37.557C18.317 33.495 19.46 29.121 22.438 26.142L34.081 14.499C38.631 9.95 46.032 9.95 50.582 14.499 55.131 19.048 55.131 26.451 50.582 31L26.989 54.592 28.403 56.006 51.996 32.414ZM13.668 47.165C10.017 47.165 6.586 45.744 4.004 43.163 1.422 40.581 0 37.149 0 33.498 0 29.848 1.422 26.415 4.004 23.834L27.838 0 29.252 1.414 5.418 25.248C3.214 27.452 2 30.382 2 33.498 2 36.615 3.214 39.545 5.418 41.748 7.622 43.952 10.552 45.165 13.668 45.165 16.785 45.165 19.715 43.952 21.918 41.748L33.56 30.106C36.713 26.954 37.79 22.368 36.372 18.138L38.268 17.502C39.93 22.456 38.667 27.828 34.975 31.52L23.332 43.163C20.751 45.744 17.319 47.165 13.668 47.165L13.668 47.165Z" id="Fill-5"/></g></g></svg>