<svg width="80" height="80" viewBox="0 0 80 80" xmlns="http://www.w3.org/2000/svg" xmlns:xlink="http://www.w3.org/1999/xlink" overflow="hidden"><g id="Icon-Architecture/64/Arch_AWS-AppConfig_64" stroke="none" stroke-width="1" fill="none" fill-rule="evenodd"><g id="Icon-Architecture-BG/64/Management-Governance" fill="#E7157B"><rect x="0" y="0" width="80" height="80" id="Rectangle"/></g><path d="M50.871 37.366C50.871 42.053 47.058 45.866 42.371 45.866 37.684 45.866 33.871 42.053 33.871 37.366 33.871 32.679 37.684 28.866 42.371 28.866 47.058 28.866 50.871 32.679 50.871 37.366L50.871 37.366ZM52.871 37.366C52.871 31.576 48.161 26.866 42.371 26.866 36.581 26.866 31.871 31.576 31.871 37.366 31.871 43.156 36.581 47.866 42.371 47.866 48.161 47.866 52.871 43.156 52.871 37.366L52.871 37.366ZM47.91 62.418C48.1 62.218 48.197 61.949 48.182 61.674L47.999 58.473C49.846 57.979 51.611 57.248 53.265 56.291L55.4 58.685C55.583 58.89 55.843 59.011 56.118 59.019 56.394 59.042 56.659 58.921 56.853 58.726L63.702 51.878C63.896 51.683 64.003 51.417 63.995 51.142 63.987 50.867 63.866 50.608 63.661 50.425L61.259 48.283C62.214 46.631 62.944 44.868 63.437 43.023L66.649 43.207C66.934 43.223 67.193 43.124 67.393 42.936 67.594 42.747 67.707 42.484 67.707 42.209L67.707 32.524C67.707 32.249 67.594 31.986 67.393 31.797 67.194 31.608 66.921 31.51 66.65 31.525L63.434 31.708C62.941 29.867 62.211 28.106 61.255 26.453L63.661 24.307C63.866 24.124 63.987 23.865 63.995 23.589 64.003 23.314 63.896 23.048 63.702 22.854L56.853 16.006C56.659 15.81 56.392 15.696 56.118 15.713 55.843 15.721 55.584 15.842 55.4 16.047L53.247 18.46C51.597 17.505 49.838 16.776 47.999 16.284L48.182 13.057C48.197 12.783 48.1 12.513 47.91 12.314 47.722 12.114 47.459 12 47.183 12L37.499 12C37.224 12 36.961 12.114 36.772 12.314 36.583 12.513 36.485 12.783 36.501 13.057L36.683 16.282C34.844 16.773 33.084 17.502 31.432 18.456L29.282 16.047C29.099 15.842 28.84 15.721 28.564 15.713 28.295 15.698 28.023 15.811 27.829 16.006L20.98 22.854C20.786 23.048 20.68 23.314 20.687 23.589 20.695 23.864 20.816 24.124 21.021 24.307L23.433 26.458C22.476 28.109 21.745 29.869 21.251 31.708L18.032 31.525C17.759 31.509 17.488 31.608 17.289 31.797 17.089 31.986 16.975 32.249 16.975 32.524L16.975 42.209C16.975 42.484 17.089 42.747 17.289 42.936 17.489 43.125 17.761 43.229 18.034 43.207L21.985 42.976 21.868 40.979 18.975 41.149 18.975 33.582 21.966 33.752C22.454 33.776 22.889 33.451 22.998 32.975 23.496 30.783 24.358 28.704 25.563 26.799 25.824 26.386 25.748 25.844 25.384 25.518L23.143 23.519 28.495 18.168 30.492 20.407C30.817 20.771 31.359 20.846 31.771 20.586 33.678 19.385 35.756 18.525 37.949 18.03 38.427 17.922 38.756 17.485 38.727 16.997L38.558 14 46.125 14 45.955 16.999C45.927 17.487 46.256 17.924 46.732 18.032 48.925 18.527 51.002 19.388 52.906 20.591 53.317 20.849 53.86 20.776 54.186 20.411L56.187 18.168 61.539 23.519 59.304 25.513C58.939 25.839 58.863 26.38 59.124 26.793 60.328 28.7 61.19 30.78 61.686 32.974 61.795 33.451 62.237 33.776 62.719 33.752L65.707 33.582 65.707 41.15 62.723 40.979C62.237 40.954 61.798 41.28 61.689 41.757 61.192 43.956 60.331 46.037 59.128 47.942 58.867 48.355 58.943 48.897 59.308 49.222L61.539 51.212 56.188 56.564 54.204 54.34C53.878 53.973 53.336 53.899 52.924 54.16 51.017 55.365 48.934 56.228 46.732 56.725 46.256 56.833 45.927 57.27 45.955 57.758L46.125 60.731 38.591 60.731 38.727 59.185 36.735 59.009 36.503 61.643C36.478 61.923 36.572 62.199 36.762 62.407 36.951 62.614 37.219 62.731 37.499 62.731L47.183 62.731C47.459 62.731 47.722 62.618 47.91 62.418L47.91 62.418ZM37.101 54.554 35.726 53.102 23.215 64.956 24.59 66.408 37.101 54.554ZM25.246 46.654 23.875 45.198 12.68 55.735 14.051 57.191 25.246 46.654ZM13.414 67.706 12 66.292 31.756 46.536 33.17 47.95 13.414 67.706Z" id="AWS-AppConfig_Icon_64_Squid" fill="#FFFFFF"/></g></svg>