<svg width="80" height="80" viewBox="0 0 80 80" xmlns="http://www.w3.org/2000/svg" xmlns:xlink="http://www.w3.org/1999/xlink" overflow="hidden"><g id="Icon-Architecture/64/Arch_AWS-Audit-Manager_64" stroke="none" stroke-width="1" fill="none" fill-rule="evenodd"><g id="Icon-Architecture-BG/64/Security-Identity-Compliance" fill="#DD344C"><rect x="0" y="0" width="80" height="80" id="Rectangle"/></g><g id="Icon-Service/64/AWS-Audit-Manager_64" fill="#FFFFFF" transform="translate(12 12)"><path d="M50.707 40.293 49.293 41.707 52.586 45 42 45 42 47 52.586 47 49.293 50.293 50.707 51.707 55.707 46.707C56.098 46.316 56.098 45.684 55.707 45.293L50.707 40.293ZM24 47 34.586 47 31.293 50.293 32.707 51.707 37.707 46.707C38.098 46.316 38.098 45.684 37.707 45.293L32.707 40.293 31.293 41.707 34.586 45 24 45 24 47ZM14.707 51.707 19.707 46.707C20.098 46.316 20.098 45.684 19.707 45.293L14.707 40.293 13.293 41.707 16.586 45 6 45 6 47 16.586 47 13.293 50.293 14.707 51.707ZM6 34 24 34 24 32 6 32 6 34ZM6 23 24 23 24 21 6 21 6 23ZM30 23 36 23 36 20 30 20 30 23ZM37 18C37.553 18 38 18.448 38 19L38 24C38 24.552 37.553 25 37 25L29 25C28.447 25 28 24.552 28 24L28 19C28 18.448 28.447 18 29 18L37 18ZM30 35 54 35 54 32 30 32 30 35ZM56 31 56 36C56 36.552 55.553 37 55 37L29 37C28.447 37 28 36.552 28 36L28 31C28 30.448 28.447 30 29 30L55 30C55.553 30 56 30.448 56 31L56 31ZM35 9 40.586 9 35 3.414 35 9ZM42 51 44 51 44 55C44 55.552 43.553 56 43 56L1 56C0.447 56 3.55271e-15 55.552 3.55271e-15 55L3.55271e-15 1C3.55271e-15 0.448 0.447 0 1 0L34 0C34.266 0 34.52 0.105 34.707 0.293L43.707 9.293C43.895 9.481 44 9.735 44 10L44 27 42 27 42 11 34 11C33.447 11 33 10.552 33 10L33 2 2 2 2 54 42 54 42 51ZM15 16C14.744 16 14.488 15.902 14.293 15.707L10.293 11.707 11.707 10.293 15 13.586 22.293 6.293 23.707 7.707 15.707 15.707C15.512 15.902 15.256 16 15 16L15 16Z" id="Fill-7"/></g></g></svg>