<svg width="80" height="80" viewBox="0 0 80 80" xmlns="http://www.w3.org/2000/svg" xmlns:xlink="http://www.w3.org/1999/xlink" overflow="hidden"><g id="Icon-Architecture/64/Arch_AWS-App-Mesh_64" stroke="none" stroke-width="1" fill="none" fill-rule="evenodd"><g id="Icon-Architecture-BG/64/Networking-Content-Delivery" fill="#8C4FFF"><rect x="0" y="0" width="80" height="80" id="Rectangle"/></g><path d="M40.703 16.8808C40.273 17.3107 39.574 17.3107 39.144 16.8808 38.936 16.6728 38.821 16.3958 38.821 16.1007 38.821 15.8068 38.936 15.5297 39.144 15.3208 39.359 15.1067 39.641 14.9987 39.924 14.9987 40.206 14.9987 40.488 15.1067 40.703 15.3208L40.703 15.3217C40.911 15.5297 41.026 15.8068 41.026 16.1007 41.026 16.3958 40.911 16.6728 40.703 16.8808L40.703 16.8808ZM43.026 16.1007C43.026 15.2718 42.703 14.4928 42.117 13.9067L42.117 13.9067C40.908 12.6978 38.939 12.6978 37.73 13.9067 37.144 14.4928 36.821 15.2718 36.821 16.1007 36.821 16.2297 36.843 16.3547 36.858 16.4807L31.621 19.3608 32.586 21.1127 37.724 18.2868C37.726 18.2897 37.728 18.2927 37.73 18.2948 38.335 18.8997 39.13 19.2017 39.924 19.2017 40.718 19.2017 41.513 18.8997 42.117 18.2957 42.126 18.2868 42.132 18.2757 42.14 18.2668L48.472 21.7617 49.438 20.0107 42.992 16.4527C43.005 16.3358 43.026 16.2208 43.026 16.1007L43.026 16.1007ZM60.524 54.0327C60.108 54.4487 59.382 54.4487 58.966 54.0317 58.758 53.8237 58.642 53.5477 58.642 53.2537 58.642 52.9588 58.758 52.6818 58.966 52.4738 59.174 52.2658 59.45 52.1507 59.745 52.1507 60.04 52.1507 60.316 52.2658 60.524 52.4738L60.524 52.4738C60.732 52.6818 60.848 52.9588 60.848 53.2528 60.848 53.5477 60.732 53.8237 60.524 54.0327L60.524 54.0327ZM61.938 51.0588C61.653 50.7738 61.314 50.5607 60.951 50.4147L60.951 47.0207 58.951 47.0207 58.951 50.2907C58.432 50.4207 57.941 50.6688 57.552 51.0588 56.966 51.6447 56.642 52.4238 56.642 53.2537 56.642 53.6287 56.717 53.9897 56.844 54.3317L50.662 57.4398 51.56 59.2267 58.16 55.9087C58.636 56.1937 59.176 56.3558 59.745 56.3558 60.574 56.3558 61.353 56.0327 61.938 55.4468 62.524 54.8607 62.848 54.0817 62.848 53.2528 62.848 52.4238 62.524 51.6457 61.938 51.0597L61.938 51.0588ZM19.323 54.1147C19.115 53.9067 19 53.6307 19 53.3358 19 53.0407 19.115 52.7648 19.323 52.5558 19.531 52.3478 19.807 52.2337 20.102 52.2337 20.397 52.2337 20.674 52.3478 20.882 52.5558L20.882 52.5568C21.09 52.7648 21.205 53.0407 21.205 53.3358 21.205 53.6307 21.09 53.9067 20.882 54.1147 20.466 54.5308 19.739 54.5317 19.323 54.1147L19.323 54.1147ZM23.205 53.3358C23.205 52.5067 22.882 51.7277 22.296 51.1418 21.92 50.7658 21.45 50.5238 20.951 50.3887L20.951 47.0207 18.951 47.0207 18.951 50.4748C18.566 50.6217 18.209 50.8418 17.909 51.1418 17.323 51.7277 17 52.5067 17 53.3358 17 54.1647 17.323 54.9437 17.909 55.5288 18.494 56.1147 19.273 56.4378 20.102 56.4378 20.673 56.4378 21.215 56.2757 21.691 55.9888L26.832 58.5418 27.721 56.7508 23.005 54.4087C23.131 54.0687 23.205 53.7088 23.205 53.3358L23.205 53.3358ZM58.951 43.0207 60.951 43.0207 60.951 38.0207 58.951 38.0207 58.951 43.0207ZM18.951 43.0207 20.951 43.0207 20.951 38.0207 18.951 38.0207 18.951 43.0207ZM40.703 64.6647C40.273 65.0947 39.574 65.0947 39.144 64.6647 38.936 64.4567 38.821 64.1797 38.821 63.8848 38.821 63.5908 38.936 63.3138 39.144 63.1058 39.359 62.8908 39.641 62.7827 39.924 62.7827 40.206 62.7827 40.488 62.8908 40.703 63.1058L40.703 63.1058C40.911 63.3138 41.026 63.5908 41.026 63.8848 41.026 64.1797 40.911 64.4567 40.703 64.6647L40.703 64.6647ZM47.088 59.2357 42.142 61.7217C42.133 61.7127 42.127 61.7007 42.117 61.6917L42.117 61.6908C41.778 61.3517 41.377 61.1177 40.951 60.9688L40.951 54.0207 38.951 54.0207 38.951 60.9528C38.506 61.0998 38.084 61.3377 37.73 61.6908 37.724 61.6978 37.72 61.7057 37.713 61.7127L31.304 58.5298 30.415 60.3208 36.857 63.5197C36.843 63.6408 36.821 63.7607 36.821 63.8848 36.821 64.7138 37.144 65.4938 37.73 66.0788 38.335 66.6837 39.13 66.9857 39.924 66.9857 40.718 66.9857 41.513 66.6837 42.117 66.0798 42.703 65.4938 43.026 64.7138 43.026 63.8848 43.026 63.7658 43.005 63.6507 42.992 63.5337L47.986 61.0228 47.088 59.2357ZM59.745 26.3927C60.027 26.3927 60.309 26.4998 60.524 26.7148L60.524 26.7148C60.732 26.9228 60.848 27.1998 60.848 27.4947 60.848 27.7887 60.732 28.0658 60.524 28.2747 60.108 28.6908 59.382 28.6908 58.966 28.2738 58.758 28.0658 58.642 27.7887 58.642 27.4947 58.642 27.1998 58.758 26.9228 58.966 26.7148 59.181 26.4998 59.463 26.3927 59.745 26.3927L59.745 26.3927ZM51.715 33.7298 58.219 30.1817C58.449 30.3127 58.694 30.4137 58.951 30.4818L58.951 34.0207 60.951 34.0207 60.951 30.3528C61.315 30.1987 61.65 29.9767 61.938 29.6887 62.524 29.1028 62.848 28.3237 62.848 27.4947 62.848 26.6658 62.524 25.8867 61.938 25.3008L61.938 25.2997C60.919 24.2808 59.363 24.1318 58.175 24.8318L52.94 21.9428 51.974 23.6938 56.853 26.3867C56.719 26.7358 56.642 27.1087 56.642 27.4947 56.642 27.8948 56.722 28.2808 56.865 28.6418L50.758 31.9737 51.715 33.7298ZM40.703 40.4787C40.287 40.8947 39.56 40.8957 39.144 40.4787 38.936 40.2707 38.821 39.9938 38.821 39.6987 38.821 39.4048 38.936 39.1287 39.144 38.9198 39.352 38.7118 39.629 38.5967 39.924 38.5967 40.219 38.5967 40.495 38.7118 40.703 38.9198L40.703 38.9207C40.911 39.1287 41.026 39.4048 41.026 39.6987 41.026 39.9938 40.911 40.2707 40.703 40.4787L40.703 40.4787ZM41.476 37.0378C40.526 36.5057 39.32 36.5057 38.371 37.0378L31.893 33.5037 30.936 35.2588 37.033 38.5858C36.898 38.9367 36.821 39.3117 36.821 39.6987 36.821 40.5277 37.144 41.3078 37.73 41.8927 38.077 42.2407 38.498 42.4827 38.951 42.6317L38.951 50.0207 40.951 50.0207 40.951 42.6157C41.384 42.4637 41.784 42.2267 42.117 41.8937 42.703 41.3078 43.026 40.5277 43.026 39.6987 43.026 39.3117 42.949 38.9367 42.814 38.5858L48.203 35.6457 47.246 33.8898 41.476 37.0378ZM19.323 26.7148C19.538 26.4998 19.82 26.3927 20.102 26.3927 20.385 26.3927 20.667 26.4998 20.882 26.7148L20.882 26.7148C21.09 26.9228 21.205 27.1998 21.205 27.4947 21.205 27.7887 21.09 28.0658 20.882 28.2747 20.466 28.6908 19.739 28.6908 19.323 28.2738 19.115 28.0658 19 27.7887 19 27.4947 19 27.1998 19.115 26.9228 19.323 26.7148L19.323 26.7148ZM28.117 21.2887 21.675 24.8328C20.485 24.1308 18.93 24.2798 17.909 25.2997 17.323 25.8857 17 26.6658 17 27.4947 17 28.3237 17.323 29.1028 17.909 29.6887 18.211 29.9907 18.565 30.2197 18.951 30.3738L18.951 34.0207 20.951 34.0207 20.951 30.4648C21.188 30.3978 21.414 30.3027 21.629 30.1807L27.425 33.3438 28.382 31.5877 22.982 28.6418C23.126 28.2808 23.205 27.8948 23.205 27.4947 23.205 27.1098 23.129 26.7367 22.995 26.3878L29.08 23.0408 28.117 21.2887Z" id="AWS-App-Mesh_Icon_64_Squid" fill="#FFFFFF"/></g></svg>