<svg width="80" height="80" viewBox="0 0 80 80" xmlns="http://www.w3.org/2000/svg" xmlns:xlink="http://www.w3.org/1999/xlink" overflow="hidden"><g id="Icon-Architecture/64/Arch_AWS-Artifact_64" stroke="none" stroke-width="1" fill="none" fill-rule="evenodd"><g id="Icon-Architecture-BG/64/Security-Identity-Compliance" fill="#DD344C"><rect x="0" y="0" width="80" height="80" id="Rectangle"/></g><path d="M40 12C24.561 12 12 24.561 12 40 12 52.375 21.147 63.717 33.75 66.968L34.25 65.032C22.517 62.004 14 51.477 14 40 14 25.664 25.663 14 40 14 54.337 14 66 25.664 66 40 66 52.346 58.837 62.171 47.75 65.032L48.25 66.968C60.248 63.873 68 53.287 68 40 68 24.561 55.439 12 40 12L40 12ZM32 30 41 30 41 28 32 28 32 30ZM32 45 43 45 43 43 32 43 32 45ZM32 40 38 40 38 38 32 38 32 40ZM32 35 50 35 50 33 32 33 32 35ZM46 30C45.447 30 45 29.552 45 29L45 22 30 22 30 51 53 51 53 30 46 30ZM47 28 51.586 28 47 23.414 47 28ZM46 20 46 20C46.26 20 46.516 20.102 46.707 20.293L54.707 28.293C54.836 28.422 54.918 28.582 54.961 28.75L55 28.75 55 52C55 52.552 54.553 53 54 53L29 53C28.447 53 28 52.552 28 52L28 21C28 20.448 28.447 20 29 20L46 20ZM48.707 60.707 41.707 67.707C41.512 67.902 41.256 68 41 68 40.744 68 40.488 67.902 40.293 67.707L33.293 60.707C33.007 60.421 32.921 59.991 33.076 59.617 33.23 59.244 33.596 59 34 59L37 59 37 55 39 55 39 60C39 60.552 38.553 61 38 61L36.414 61 41 65.586 45.586 61 44 61C43.447 61 43 60.552 43 60L43 55 45 55 45 59 48 59C48.404 59 48.77 59.244 48.924 59.617 49.079 59.991 48.993 60.421 48.707 60.707L48.707 60.707Z" id="AWS-Artifact_Icon_64_Squid" fill="#FFFFFF"/></g></svg>