<svg width="80" height="80" viewBox="0 0 80 80" xmlns="http://www.w3.org/2000/svg" xmlns:xlink="http://www.w3.org/1999/xlink" overflow="hidden"><g id="Icon-Architecture/64/Arch_AWS-B2B-Data-Interchange_64" stroke="none" stroke-width="1" fill="none" fill-rule="evenodd"><g id="Icon-Architecture-BG/64/Application-Integration" fill="#E7157B"><rect x="0" y="0" width="80" height="80" id="Rectangle"/></g><g id="Icon-Service/64/AWS-B2B-Data-Interchange_64" fill="#FFFFFF" transform="translate(12 12)"><path d="M14 43 14 55C14 55.552 13.553 56 13 56L1 56C0.447 56 3.55271e-15 55.552 3.55271e-15 55L3.55271e-15 43C3.55271e-15 42.448 0.447 42 1 42L4 42 4 44 2 44 2 54 12 54 12 44 10 44 10 42 13 42C13.553 42 14 42.448 14 43L14 43ZM23.587 26.001 15.998 26.001C11.587 26.001 7.998 29.59 7.998 34.001L7.998 50 5.998 50 5.998 34.001C5.998 28.487 10.484 24.001 15.998 24.001L23.587 24.001 20.294 20.708 21.708 19.294 26.708 24.294C27.099 24.685 27.099 25.318 26.708 25.708L21.708 30.708 20.294 29.294 23.587 26.001ZM44 30.001 44 20.001 34 20.001 34 30.001 36 30.001 36 32.001 33 32.001C32.447 32.001 32 31.553 32 31.001L32 19.001C32 18.449 32.447 18.001 33 18.001L45 18.001C45.553 18.001 46 18.449 46 19.001L46 31.001C46 31.553 45.553 32.001 45 32.001L42 32.001 42 30.001 44 30.001ZM30.003 49.999 22.413 49.999 25.706 53.292 24.292 54.706 19.292 49.706C18.901 49.315 18.901 48.683 19.292 48.292L24.292 43.292 25.706 44.706 22.413 47.999 30.003 47.999C34.414 47.999 38.003 44.41 38.003 39.999L38.003 24.001 40.003 24.001 40.003 39.999C40.003 45.513 35.517 49.999 30.003 49.999L30.003 49.999ZM47.001 3.414 52.586 9 47.001 9 47.001 3.414ZM55.708 9.293 46.708 0.293C46.521 0.105 46.267 0 46.001 0L15.001 0C14.448 0 14.001 0.448 14.001 1L14.001 18 16.001 18 16.001 2 45.001 2 45.001 10C45.001 10.552 45.448 11 46.001 11L54.001 11 54.001 53.999 33.056 53.999 33.056 55.999 55.001 55.999C55.554 55.999 56.001 55.551 56.001 54.999L56.001 10C56.001 9.735 55.896 9.481 55.708 9.293L55.708 9.293Z" id="Fill-1"/></g></g></svg>