<svg width="80" height="80" viewBox="0 0 80 80" xmlns="http://www.w3.org/2000/svg" xmlns:xlink="http://www.w3.org/1999/xlink" overflow="hidden"><g id="Icon-Architecture/64/Arch_AWS-Chatbot_64" stroke="none" stroke-width="1" fill="none" fill-rule="evenodd"><g id="Icon-Architecture-BG/64/Management-Governance" fill="#E7157B"><rect x="0" y="0" width="80" height="80" id="Rectangle"/></g><path d="M37.9998 23 41.9993 23 41.9993 21 37.9998 21 37.9998 23ZM31.0006 23 35.0001 23 35.0001 21 31.0006 21 31.0006 23ZM24.0014 23 28.001 23 28.001 21 24.0014 21 24.0014 23ZM65.7065 51.356C65.4036 52.062 64.7667 52.595 63.9967 52.844L63.9967 47.193C64.6037 47.409 65.1416 47.798 65.5076 48.354 66.0805 49.225 66.1545 50.319 65.7065 51.356L65.7065 51.356ZM15.2935 51.356C14.8455 50.319 14.9185 49.225 15.4924 48.354 15.8584 47.798 16.3963 47.409 17.0023 47.193L17.0023 52.845C16.2333 52.596 15.5964 52.062 15.2935 51.356L15.2935 51.356ZM67.1774 47.254C66.4365 46.127 65.2876 45.372 63.9967 45.109L63.9967 43.333C63.9967 39.841 61.3061 37 57.9974 37L38.9997 37 38.9997 39 57.9974 39C60.2042 39 61.997 40.944 61.997 43.333L61.997 56.667C61.997 59.056 60.2042 61 57.9974 61L23.0016 61C20.7958 61 19.002 59.056 19.002 56.667L19.002 43.333C19.002 40.944 20.7958 39 23.0016 39L28.001 39 28.001 37 23.0016 37C19.6939 37 17.0023 39.841 17.0023 43.333L17.0023 45.109C15.7114 45.372 14.5635 46.127 13.8226 47.254 12.8727 48.697 12.7388 50.481 13.4557 52.147 14.0806 53.598 15.4174 54.614 17.0023 54.91L17.0023 56.667C17.0023 60.159 19.6939 63 23.0016 63L35.0001 63 35.0001 69 36.9999 69 36.9999 63 42.9992 63 42.9992 69 44.999 69 44.999 63 57.9974 63C61.3061 63 63.9967 60.159 63.9967 56.667L63.9967 54.91C65.5836 54.614 66.9204 53.598 67.5443 52.147 68.2612 50.481 68.1273 48.697 67.1774 47.254L67.1774 47.254ZM32.0005 50C32.0005 51.654 30.6557 53 29.0008 53 27.347 53 26.0012 51.654 26.0012 50 26.0012 48.346 27.347 47 29.0008 47 30.6557 47 32.0005 48.346 32.0005 50L32.0005 50ZM24.0014 50C24.0014 52.757 26.2452 55 29.0008 55 31.7575 55 34.0003 52.757 34.0003 50 34.0003 47.243 31.7575 45 29.0008 45 26.2452 45 24.0014 47.243 24.0014 50L24.0014 50ZM48.9985 50C48.9985 48.346 50.3443 47 51.9981 47 53.653 47 54.9978 48.346 54.9978 50 54.9978 51.654 53.653 53 51.9981 53 50.3443 53 48.9985 51.654 48.9985 50L48.9985 50ZM56.9976 50C56.9976 47.243 54.7548 45 51.9981 45 49.2425 45 46.9987 47.243 46.9987 50 46.9987 52.757 49.2425 55 51.9981 55 54.7548 55 56.9976 52.757 56.9976 50L56.9976 50ZM20.0019 14.852C20.0019 14.382 20.3839 14 20.8538 14L45.9989 14 45.9989 30.117C45.9989 30.604 45.6029 31 45.117 31L35.0001 31C34.4482 31 34.0003 31.448 34.0003 32L34.0003 37.188 29.5808 31.394C29.3908 31.146 29.0968 31 28.7859 31L20.8538 31C20.3839 31 20.0019 30.618 20.0019 30.148L20.0019 14.852ZM20.8538 33 28.2909 33 34.2062 40.753C34.3982 41.006 34.6952 41.147 35.0001 41.147 35.1081 41.147 35.2151 41.13 35.3211 41.094 35.7271 40.957 36 40.576 36 40.147L36 33 45.117 33C46.7068 33 47.9986 31.707 47.9986 30.117L47.9986 13.524C47.9986 12.684 47.3157 12 46.4748 12L20.8538 12C19.282 12 18.0021 13.279 18.0021 14.852L18.0021 30.148C18.0021 31.721 19.282 33 20.8538 33L20.8538 33Z" id="AWS-Chatbot_Icon_64_Squid" fill="#FFFFFF"/></g></svg>