<svg width="82" height="80" xmlns="http://www.w3.org/2000/svg" xmlns:xlink="http://www.w3.org/1999/xlink" xml:space="preserve" overflow="hidden"><g transform="translate(-550 -124)"><g><g><g><g><path d="M551 124 631 124 631 204 551 204Z" fill="#8C4FFF" fill-rule="evenodd" fill-opacity="1"/><path d="M616.118 184.122C614.985 185.255 613.009 185.255 611.876 184.122 610.706 182.952 610.706 181.049 611.876 179.879 612.442 179.312 613.195 179 613.997 179 614.799 179 615.552 179.312 616.118 179.879 617.288 181.049 617.288 182.952 616.118 184.122L616.118 184.122ZM613.997 177C613.001 177 612.051 177.291 611.24 177.829L606.704 173.293 605.29 174.707 609.826 179.244C608.543 181.184 608.755 183.829 610.462 185.536 611.406 186.48 612.661 187 613.997 187 615.333 187 616.588 186.48 617.532 185.536 619.481 183.586 619.481 180.414 617.532 178.465 616.588 177.52 615.333 177 613.997 177ZM611.876 143.879C612.442 143.312 613.195 143 613.997 143 614.799 143 615.552 143.312 616.118 143.879 617.288 145.049 617.288 146.952 616.118 148.122 614.985 149.255 613.009 149.255 611.876 148.122 610.706 146.952 610.706 145.049 611.876 143.879ZM606.704 154.707 611.24 150.171C612.051 150.71 613.001 151 613.997 151 615.333 151 616.588 150.48 617.532 149.536 619.481 147.586 619.481 144.414 617.532 142.465 616.588 141.52 615.333 141 613.997 141 612.661 141 611.406 141.52 610.462 142.465 608.755 144.172 608.543 146.817 609.826 148.757L605.29 153.293 606.704 154.707ZM570.118 184.122C568.985 185.255 567.009 185.255 565.876 184.122 564.706 182.952 564.706 181.049 565.876 179.879 566.442 179.312 567.195 179 567.997 179 568.799 179 569.552 179.312 570.118 179.879 571.288 181.049 571.288 182.952 570.118 184.122ZM575.29 173.293 570.754 177.829C569.943 177.291 568.993 177 567.997 177 566.661 177 565.406 177.52 564.462 178.465 562.513 180.414 562.513 183.586 564.462 185.536 565.406 186.48 566.661 187 567.997 187 569.333 187 570.588 186.48 571.532 185.536 573.239 183.829 573.451 181.184 572.168 179.244L576.704 174.707 575.29 173.293ZM590.997 165C591.824 165 592.497 165.673 592.497 166.5 592.497 167.328 591.824 168 590.997 168 590.17 168 589.497 167.328 589.497 166.5 589.497 165.673 590.17 165 590.997 165ZM590.028 169.847 590.028 173 592.028 173 592.028 169.828C593.453 169.384 594.497 168.069 594.497 166.5 594.497 164.571 592.927 163 590.997 163 589.067 163 587.497 164.571 587.497 166.5 587.497 168.092 588.571 169.424 590.028 169.847ZM565.876 148.122C564.706 146.952 564.706 145.049 565.876 143.879 566.442 143.312 567.195 143 567.997 143 568.799 143 569.552 143.312 570.118 143.879 571.288 145.049 571.288 146.952 570.118 148.122 568.985 149.255 567.009 149.255 565.876 148.122ZM571.532 142.465C570.588 141.52 569.333 141 567.997 141 566.661 141 565.406 141.52 564.462 142.465 562.513 144.414 562.513 147.586 564.462 149.536 565.406 150.48 566.661 151 567.997 151 568.993 151 569.943 150.71 570.754 150.171L575.29 154.707 576.704 153.293 572.168 148.757C573.451 146.817 573.239 144.172 571.532 142.465ZM579.997 176 601.997 176 601.997 161 579.997 161 579.997 176ZM584.973 154.953C584.973 153.325 586.33 152 587.997 152L593.973 152C595.64 152 596.997 153.325 596.997 154.953L596.997 159 584.973 159 584.973 154.953ZM593.997 187C593.997 188.655 592.651 190 590.997 190 589.343 190 587.997 188.655 587.997 187 587.997 185.346 589.343 184 590.997 184 592.651 184 593.997 185.346 593.997 187ZM587.997 141C587.997 139.346 589.343 138 590.997 138 592.651 138 593.997 139.346 593.997 141 593.997 142.655 592.651 144 590.997 144 589.343 144 587.997 142.655 587.997 141ZM602.254 159 598.997 159 598.997 154.953C598.997 152.222 596.743 150 593.973 150L591.997 150 591.997 145.899C594.276 145.435 595.997 143.415 595.997 141 595.997 138.244 593.754 136 590.997 136 588.24 136 585.997 138.244 585.997 141 585.997 143.415 587.718 145.435 589.997 145.899L589.997 150 587.997 150C585.227 150 582.973 152.222 582.973 154.953L582.973 159 579.74 159C578.779 159 577.997 159.771 577.997 160.718L577.997 176.283C577.997 177.23 578.779 178 579.74 178L589.997 178 589.997 182.101C587.718 182.566 585.997 184.586 585.997 187 585.997 189.757 588.24 192 590.997 192 593.754 192 595.997 189.757 595.997 187 595.997 184.586 594.276 182.566 591.997 182.101L591.997 178 602.997 178C603.55 178 603.997 177.553 603.997 177L603.997 160.718C603.997 159.771 603.215 159 602.254 159Z" fill="#FFFFFF" fill-rule="evenodd" fill-opacity="1"/></g></g></g></g></g></svg>