<svg width="80" height="80" viewBox="0 0 80 80" xmlns="http://www.w3.org/2000/svg" xmlns:xlink="http://www.w3.org/1999/xlink" overflow="hidden"><g id="Icon-Architecture/64/Arch_AWS-Cloud-Map_64" stroke="none" stroke-width="1" fill="none" fill-rule="evenodd"><g id="Icon-Architecture-BG/64/Networking-Content-Delivery" fill="#8C4FFF"><rect x="0" y="0" width="80" height="80" id="Rectangle"/></g><path d="M37.9288 48.8829 43.0032 48.8829 43.0032 43.8243 37.9288 43.8243 37.9288 48.8829ZM44.003 41.8009 36.9289 41.8009C36.376 41.8009 35.9291 42.2542 35.9291 42.8126L35.9291 49.8946C35.9291 50.4531 36.376 50.9063 36.9289 50.9063L44.003 50.9063C44.556 50.9063 45.0029 50.4531 45.0029 49.8946L45.0029 42.8126C45.0029 42.2542 44.556 41.8009 44.003 41.8009L44.003 41.8009ZM57.9293 56.9766 50.0023 56.9685 50.0023 45.8478 65.8053 45.8478C65.9293 46.4689 66.0003 47.1397 66.0003 47.8712 66.0003 55.7828 58.6462 56.8886 57.9293 56.9766L57.9293 56.9766ZM21.8099 56.6761 31.0047 48.1474 31.0047 56.9482 23.0497 56.9391C22.6268 56.8774 22.2158 56.7844 21.8099 56.6761L21.8099 56.6761ZM14.0018 47.5353 14.0068 47.2621C14.0068 42.7206 16.0696 39.8635 20.1341 38.7658L31.0047 38.7658 31.0047 40.3299 16.3515 53.3041C14.9967 51.7511 14.1308 49.841 14.0048 47.8064 13.9968 47.684 13.9998 47.6182 14.0018 47.5353L14.0018 47.5353ZM28.825 24.0525C29.5429 23.7439 30.2728 23.5152 31.0047 23.3473L31.0047 30.6721 22.2948 30.6721C23.6956 27.7735 26.0973 25.221 28.825 24.0525L28.825 24.0525ZM38.0038 53.9414 43.0032 53.9414 43.0032 56.9604 38.0038 56.9553 38.0038 53.9414ZM60.329 37.3241 59.6731 39.2362C61.3508 39.826 63.8295 41.1261 65.1294 43.8243L49.0024 43.8243C48.4505 43.8243 48.0025 44.2776 48.0025 44.836L48.0025 56.9665 45.0029 56.9624 45.0029 52.9297C45.0029 52.3713 44.556 51.918 44.003 51.918L37.0039 51.918C36.452 51.918 36.0041 52.3713 36.0041 52.9297L36.0041 56.9533 33.0044 56.9503 33.0044 45.8478C33.0044 45.4471 32.7705 45.0829 32.4075 44.921 32.0456 44.7612 31.6216 44.83 31.3286 45.1021L19.7021 55.886C19.0292 55.5501 18.4013 55.1464 17.8204 54.6921L32.6625 41.55C32.8805 41.3588 33.0044 41.0816 33.0044 40.7892L33.0044 37.7541C33.0044 37.1956 32.5575 36.7423 32.0046 36.7423L20.986 36.7423C20.989 36.6634 20.989 36.5886 20.992 36.5097 20.999 36.2881 21.006 36.0706 21.006 35.8703 21.006 34.8282 21.1899 33.7548 21.5079 32.6955L32.0046 32.6955C32.5575 32.6955 33.0044 32.2423 33.0044 31.6838L33.0044 23.063C34.0103 23.0043 35.0142 23.0731 36.0041 23.2664L36.0041 39.7775C36.0041 40.3359 36.452 40.7892 37.0039 40.7892L44.003 40.7892C44.556 40.7892 45.0029 40.3359 45.0029 39.7775L45.0029 33.7072 43.0032 33.7072 43.0032 38.7658 38.0038 38.7658 38.0038 23.8319C39.8946 24.5411 41.6943 25.7137 43.2951 27.3395L44.711 25.911C39.9975 21.1266 33.7673 19.7365 28.0451 22.1889 22.9767 24.361 19.0062 30.3706 19.0062 35.8703 19.0062 36.0483 18.9992 36.2426 18.9932 36.4409 18.9872 36.625 18.9802 36.8132 18.9782 36.9993 16.0696 37.9604 12.0071 40.511 12.0071 47.2621L12.0031 47.4726C11.9991 47.6152 11.9971 47.7275 12.0091 47.9339 12.3481 53.4022 17.0055 58.139 22.8427 58.9535 22.8877 58.9595 22.9337 58.9626 22.9787 58.9626L36.8949 58.9777C36.9319 58.9818 36.9649 59 37.0039 59L44.003 59C44.029 59 44.05 58.9868 44.076 58.9848L57.9853 59 57.9863 59C58.0203 59 58.0533 58.998 58.0873 58.9949 58.1862 58.9848 68 57.8568 68 47.8712 68 40.7851 62.6357 38.1345 60.329 37.3241L60.329 37.3241ZM51.0022 29.6604C51.0022 28.6578 52.012 27.6369 53.0019 27.6369 53.9918 27.6369 55.0016 28.6578 55.0016 29.6604 55.0016 30.663 53.9918 31.6838 53.0019 31.6838 52.012 31.6838 51.0022 30.663 51.0022 29.6604L51.0022 29.6604ZM57.0014 29.6604C57.0014 27.5429 55.0956 25.6135 53.0019 25.6135 50.9082 25.6135 49.0024 27.5429 49.0024 29.6604 49.0024 31.7779 50.9082 33.7072 53.0019 33.7072 55.0956 33.7072 57.0014 31.7779 57.0014 29.6604L57.0014 29.6604ZM53.0019 24.6018C55.8525 24.6018 58.0013 26.776 58.0013 29.6604 58.0013 31.8699 54.9027 37.0843 53.0019 39.997 51.1021 37.0853 48.0025 31.872 48.0025 29.6604 48.0025 26.776 50.1523 24.6018 53.0019 24.6018L53.0019 24.6018ZM53.0019 42.8126C53.3279 42.8126 53.6348 42.6507 53.8218 42.3806 54.4537 41.465 60.001 33.3288 60.001 29.6604 60.001 25.6226 56.9914 22.5784 53.0019 22.5784 49.0124 22.5784 46.0028 25.6226 46.0028 29.6604 46.0028 33.3288 51.5501 41.465 52.183 42.3806 52.369 42.6507 52.6759 42.8126 53.0019 42.8126L53.0019 42.8126Z" id="AWS-Cloud-Map_Icon_64_Squid" fill="#FFFFFF"/></g></svg>