<svg width="82" height="80" xmlns="http://www.w3.org/2000/svg" xmlns:xlink="http://www.w3.org/1999/xlink" xml:space="preserve" overflow="hidden"><g transform="translate(-1030 -124)"><g><g><g><g><path d="M1031 124 1111 124 1111 204 1031 204Z" fill="#C925D1" fill-rule="evenodd" fill-opacity="1"/><path d="M1077 183.999 1092 183.999 1092 181.999 1077 181.999 1077 183.999ZM1065.62 183.78 1075.62 175.78C1075.86 175.59 1076 175.303 1076 174.999 1076 174.695 1075.86 174.408 1075.62 174.218L1065.62 166.218 1064.38 167.78 1073.4 174.999 1064.38 182.218 1065.62 183.78ZM1058 189.999 1097 189.999 1097 159.999 1058 159.999 1058 189.999ZM1099 158.999 1099 190.999C1099 191.551 1098.55 191.999 1098 191.999L1057 191.999C1056.45 191.999 1056 191.551 1056 190.999L1056 158.999C1056 158.447 1056.45 157.999 1057 157.999L1098 157.999C1098.55 157.999 1099 158.447 1099 158.999ZM1054.93 139.183C1052.21 140.336 1050.08 143.665 1050.08 146.76L1050.15 147.851C1050.18 148.328 1049.86 148.759 1049.4 148.878 1047.81 149.284 1045.16 150.536 1045.16 154.353 1045.16 157.23 1046.72 158.816 1048.02 159.64 1048.16 159.729 1048.65 159.89 1049.11 159.999L1052 159.999 1052 161.999 1049 161.999C1048.93 161.999 1048.85 161.991 1048.78 161.975 1048.49 161.91 1047.49 161.672 1046.95 161.331 1045.54 160.437 1043.16 158.342 1043.16 154.353 1043.16 150.918 1044.99 148.291 1048.1 147.183L1048.08 146.818C1048.08 142.858 1050.69 138.81 1054.15 137.342 1058.19 135.622 1062.48 136.478 1065.61 139.627 1066.49 140.514 1067.22 141.57 1067.81 142.78 1069.04 141.918 1070.62 141.654 1072.1 142.14 1074.08 142.792 1075.34 144.577 1075.55 146.983 1076.91 147.338 1079.02 148.186 1080.35 150.166 1081.16 151.356 1081.57 152.784 1081.57 154.409L1079.57 154.409C1079.57 153.191 1079.28 152.14 1078.7 151.286 1077.48 149.48 1075.29 148.93 1074.4 148.777 1073.87 148.685 1073.51 148.184 1073.58 147.648 1073.58 145.821 1072.81 144.481 1071.47 144.041 1070.3 143.656 1069 144.082 1068.25 145.106 1068.03 145.404 1067.66 145.555 1067.29 145.502 1066.93 145.448 1066.62 145.195 1066.5 144.845 1065.96 143.319 1065.18 142.038 1064.19 141.037 1062.97 139.813 1059.64 137.184 1054.93 139.183Z" fill="#FFFFFF" fill-rule="evenodd" fill-opacity="1"/></g></g></g></g></g></svg>