<svg width="80" height="80" viewBox="0 0 80 80" xmlns="http://www.w3.org/2000/svg" xmlns:xlink="http://www.w3.org/1999/xlink" overflow="hidden"><g id="Icon-Architecture/64/Arch_AWS-Client-VPN_64" stroke="none" stroke-width="1" fill="none" fill-rule="evenodd"><g id="Icon-Architecture-BG/64/Networking-Content-Delivery" fill="#8C4FFF"><rect x="0" y="0" width="80" height="80" id="Rectangle"/></g><path d="M41.5783 52.7688C41.5783 51.9028 40.8733 51.1978 40.0073 51.1978 39.1403 51.1978 38.4353 51.9028 38.4353 52.7688 38.4353 53.6358 39.1403 54.3408 40.0073 54.3408 40.8733 54.3408 41.5783 53.6358 41.5783 52.7688L41.5783 52.7688ZM43.5783 52.7688C43.5783 54.3888 42.4873 55.7448 41.0073 56.1808L41.0073 59.1978 39.0073 59.1978 39.0073 56.1808C37.5263 55.7448 36.4353 54.3888 36.4353 52.7688 36.4353 50.7998 38.0383 49.1978 40.0073 49.1978 41.9753 49.1978 43.5783 50.7998 43.5783 52.7688L43.5783 52.7688ZM50.0073 61.1978 50.0073 57.1978 47.0073 57.1978 47.0073 55.1978 50.0073 55.1978 50.0073 51.1978 47.0073 51.1978 47.0073 49.1978 50.0073 49.1978 50.0073 46.1978 30.0073 46.1978 30.0073 61.1978 50.0073 61.1978ZM33.0073 44.1978 47.0073 44.1978 47.0083 38.1978C47.0083 34.7638 43.3793 33.1988 40.0073 33.1978L40.0033 33.1978C38.1403 33.1978 36.3423 33.6828 35.0703 34.5298 33.7013 35.4408 33.0073 36.6748 33.0073 38.1978L33.0073 44.1978ZM52.0073 45.1978 52.0073 62.1978C52.0073 62.7498 51.5593 63.1978 51.0073 63.1978L29.0073 63.1978C28.4543 63.1978 28.0073 62.7498 28.0073 62.1978L28.0073 45.1978C28.0073 44.6448 28.4543 44.1978 29.0073 44.1978L31.0073 44.1978 31.0073 38.1978C31.0073 36.0268 32.0573 34.1328 33.9623 32.8648 35.5773 31.7898 37.7233 31.1978 40.0023 31.1978L40.0073 31.1978C44.4793 31.1988 49.0083 33.6038 49.0083 38.1978L49.0073 44.1978 51.0073 44.1978C51.5593 44.1978 52.0073 44.6448 52.0073 45.1978L52.0073 45.1978ZM68.0073 43.1978C68.0073 46.1638 67.1143 48.5518 65.3543 50.2968 62.4883 53.1398 58.3563 53.2028 58.0023 53.2028L57.9823 53.2028 54.0063 53.1978 54.0083 51.1978 57.9923 51.2028 57.9933 51.2028C58.0613 51.2028 61.6363 51.1798 63.9573 48.8658 65.3173 47.5108 66.0073 45.6038 66.0073 43.1978 66.0073 35.9538 59.2023 34.4168 57.8383 34.1828 57.5713 34.1378 57.3343 33.9858 57.1823 33.7618 57.0283 33.5388 56.9733 33.2638 57.0273 32.9978 57.5873 30.2448 55.9703 28.4548 54.2683 27.6978 52.5823 26.9488 50.1563 26.9698 48.8113 28.7908 48.5923 29.0888 48.2243 29.2418 47.8593 29.1858 47.4933 29.1308 47.1873 28.8788 47.0633 28.5298 46.3833 26.6018 45.1513 24.7618 43.2993 22.9038 40.3573 19.9538 34.6913 17.4528 28.3963 20.1188 23.8323 22.0518 21.0073 27.7948 21.0073 32.0068 21.0073 32.1918 21.0013 32.4238 20.9933 32.6738 20.9793 33.1608 20.9633 33.7678 21.0013 34.0818 21.0633 34.5998 20.7173 35.0778 20.2063 35.1818 20.1953 35.1838 20.1853 35.1848 20.1763 35.1868 15.9683 36.2898 14.0073 38.8368 14.0073 43.1978L14.0033 43.5128C14.0003 43.7288 13.9953 43.9758 14.0053 44.1338 14.3083 48.9878 18.8843 51.1978 23.0073 51.1978L26.0083 51.2008 26.0063 53.2008 23.0063 53.1978C15.8353 53.1978 12.2783 48.5648 12.0093 44.2598 11.9963 44.0628 11.9993 43.7538 12.0043 43.4818L12.0073 43.1978C12.0073 38.1748 14.3503 34.8998 18.9773 33.4508 18.9783 33.1748 18.9863 32.8878 18.9943 32.6178 19.0013 32.3888 19.0073 32.1758 19.0073 32.0068 19.0073 27.0498 22.2273 20.5598 27.6173 18.2768 33.5513 15.7638 40.2633 17.0248 44.7153 21.4918 46.3343 23.1148 47.5343 24.7458 48.3543 26.4398 50.1593 25.0818 52.7233 24.8218 55.0813 25.8708 57.7983 27.0788 59.3113 29.5798 59.1213 32.4098 63.4143 33.4678 68.0073 36.8078 68.0073 43.1978L68.0073 43.1978Z" id="AWS-Client-VPN_Icon_64_Squid" fill="#FFFFFF"/></g></svg>