<svg width="82" height="80" xmlns="http://www.w3.org/2000/svg" xmlns:xlink="http://www.w3.org/1999/xlink" xml:space="preserve" overflow="hidden"><g transform="translate(-550 -124)"><g><g><g><g><path d="M551 124 631 124 631 204 551 204Z" fill="#8C4FFF" fill-rule="evenodd" fill-opacity="1"/><path d="M581.597 178.484 577.527 174.414 581.597 170.343 580.183 168.929 575.406 173.707C575.015 174.097 575.015 174.73 575.406 175.121L580.183 179.898 581.597 178.484ZM603.707 155.121C604.098 154.73 604.098 154.097 603.707 153.707L598.93 148.929 597.516 150.343 601.586 154.414 597.516 158.484 598.93 159.898 603.707 155.121ZM595 177.04 607 177.04 607 175.04 595 175.04 595 177.04ZM588 183.04 619 183.04 619 181.04 588 181.04 588 183.04ZM568 155.04 582 155.04 582 153.04 568 153.04 568 155.04ZM563 147.04 594 147.04 594 145.04 563 145.04 563 147.04ZM614.7 155.17C614.7 146.805 607.894 140 599.53 140 596.952 140 594.407 140.658 592.167 141.903L593.14 143.651C595.082 142.571 597.292 142 599.53 142 606.791 142 612.7 147.908 612.7 155.17 612.7 162.432 606.791 168.34 599.53 168.34 598.326 168.34 597.134 168.178 595.988 167.859L595.451 169.785C596.772 170.153 598.145 170.34 599.53 170.34 607.894 170.34 614.7 163.535 614.7 155.17ZM586.812 158.607C586.512 157.493 586.36 156.337 586.36 155.17 586.36 153.424 586.696 151.729 587.358 150.131L585.51 149.366C584.746 151.207 584.36 153.16 584.36 155.17 584.36 156.512 584.535 157.843 584.88 159.127L586.812 158.607ZM592 188.04 568 188.04C567.448 188.04 567 187.592 567 187.04L567 163.04C567 162.488 567.448 162.04 568 162.04L592 162.04C592.553 162.04 593 162.488 593 163.04L593 179.04 591 179.04 591 164.04 569 164.04 569 186.04 591 186.04 591 185.04 593 185.04 593 187.04C593 187.592 592.553 188.04 592 188.04Z" fill="#FFFFFF" fill-rule="evenodd" fill-opacity="1"/></g></g></g></g></g></svg>