<svg width="82" height="81" xmlns="http://www.w3.org/2000/svg" xmlns:xlink="http://www.w3.org/1999/xlink" xml:space="preserve" overflow="hidden"><g transform="translate(-1030 -124)"><g><g><g><g><path d="M1031 125 1111 125 1111 205 1031 205Z" fill="#ED7100" fill-rule="evenodd" fill-opacity="1"/><path d="M1086 157.001 1086 169.001 1084.14 169.001 1084 168.919 1084 157.618 1071 151.118 1058 157.618 1058 172.402 1070.51 179.1C1070.51 179.126 1070.51 179.152 1070.51 179.178L1069.6 180.882 1056.53 173.882C1056.2 173.708 1056 173.37 1056 173.001L1056 157.001C1056 156.622 1056.21 156.275 1056.55 156.105L1070.55 149.105C1070.83 148.965 1071.17 148.965 1071.45 149.105L1085.45 156.105C1085.79 156.275 1086 156.622 1086 157.001ZM1083 178.435 1079 180.835 1075 178.435 1075 173.566 1079 171.167 1083 173.566 1083 178.435ZM1070 164.566 1074 162.167 1078 164.566 1078 169.435 1074 171.835 1070 169.435 1070 164.566ZM1084.52 172.143 1080 169.434 1080 164.001C1080 163.65 1079.81 163.324 1079.52 163.143L1074.52 160.143C1074.2 159.952 1073.8 159.952 1073.48 160.143L1068.48 163.143C1068.19 163.324 1068 163.65 1068 164.001L1068 170.001C1068 170.352 1068.19 170.678 1068.48 170.857L1073 173.568 1073 179.001C1073 179.352 1073.19 179.678 1073.48 179.857L1078.48 182.857C1078.64 182.953 1078.82 183.001 1079 183.001 1079.18 183.001 1079.35 182.953 1079.51 182.857L1084.51 179.857C1084.81 179.678 1085 179.353 1085 179.001L1085 173.001C1085 172.65 1084.81 172.324 1084.52 172.143ZM1071.44 143.115 1090.46 153.115C1090.79 153.288 1091 153.628 1091 154.001L1091 176.001C1091 176.371 1090.8 176.712 1090.47 176.885L1087.5 178.449 1087.5 176.188 1089 175.396 1089 154.604 1070.98 145.13 1053 154.604 1053 175.396 1071.02 184.87 1074.19 183.199 1076.2 184.404 1071.49 186.885C1071.35 186.962 1071.19 187.001 1071.03 187.001 1070.86 187.001 1070.71 186.962 1070.56 186.885L1051.54 176.885C1051.21 176.712 1051 176.372 1051 176.001L1051 154.001C1051 153.63 1051.2 153.29 1051.53 153.115L1070.51 143.115C1070.8 142.962 1071.15 142.962 1071.44 143.115ZM1094 178.404 1071 190.863 1048 178.404 1048 151.596 1071 139.137 1094 151.596 1094 178.404ZM1095.48 150.122 1071.48 137.122C1071.18 136.96 1070.82 136.96 1070.52 137.122L1046.52 150.122C1046.2 150.296 1046 150.633 1046 151.001L1046 179.001C1046 179.367 1046.2 179.706 1046.52 179.88L1070.52 192.88C1070.67 192.96 1070.84 193.001 1071 193.001 1071.16 193.001 1071.33 192.96 1071.48 192.88L1095.48 179.88C1095.8 179.706 1096 179.367 1096 179.001L1096 151.001C1096 150.633 1095.8 150.296 1095.48 150.122Z" fill="#FFFFFF" fill-rule="evenodd" fill-opacity="1"/></g></g></g></g></g></svg>