<svg width="82" height="80" xmlns="http://www.w3.org/2000/svg" xmlns:xlink="http://www.w3.org/1999/xlink" xml:space="preserve" overflow="hidden"><g transform="translate(-1030 -124)"><g><g><g><g><path d="M1031 124 1111 124 1111 204 1031 204Z" fill="#8C4FFF" fill-rule="evenodd" fill-opacity="1"/><path d="M1093 177C1090.79 177 1089 175.206 1089 173 1089 170.794 1090.79 169 1093 169 1095.21 169 1097 170.794 1097 173 1097 175.206 1095.21 177 1093 177L1093 177ZM1076.65 182.22C1076.31 181.79 1075.9 181.412 1075.44 181.093L1082.86 165.394 1087.7 170.201C1087.25 171.037 1087 171.989 1087 173 1087 173.846 1087.18 174.65 1087.49 175.38L1076.65 182.22ZM1072 190C1069.79 190 1068 188.206 1068 186 1068 183.794 1069.79 182 1072 182 1074.21 182 1076 183.794 1076 186 1076 188.206 1074.21 190 1072 190ZM1045 161C1045 158.794 1046.79 157 1049 157 1051.21 157 1053 158.794 1053 161 1053 163.206 1051.21 165 1049 165 1046.79 165 1045 163.206 1045 161ZM1070.44 153.042 1081.36 163.897 1073.64 180.233C1073.11 180.085 1072.57 180 1072 180 1071.06 180 1070.18 180.222 1069.39 180.607L1053.69 164.733C1054.51 163.707 1055 162.411 1055 161 1055 160.599 1054.96 160.208 1054.88 159.828L1070.44 153.042ZM1064.53 144.337C1064.7 143.914 1064.83 143.465 1064.91 143L1087.09 143C1087.12 143.186 1087.16 143.369 1087.21 143.549L1070.89 150.666 1064.53 144.337ZM1059 146C1056.79 146 1055 144.206 1055 142 1055 139.794 1056.79 138 1059 138 1061.21 138 1063 139.794 1063 142 1063 144.206 1061.21 146 1059 146ZM1089.44 146.815 1082.27 161.979 1072.42 152.183 1088.04 145.369C1088.42 145.927 1088.89 146.413 1089.44 146.815ZM1093 138C1095.21 138 1097 139.794 1097 142 1097 144.206 1095.21 146 1093 146 1090.79 146 1089 144.206 1089 142 1089 139.794 1090.79 138 1093 138ZM1093 167C1091.43 167 1090 167.612 1088.93 168.605L1083.77 163.476 1091.22 147.729C1091.78 147.905 1092.38 148 1093 148 1096.31 148 1099 145.309 1099 142 1099 138.691 1096.31 136 1093 136 1090.03 136 1087.57 138.167 1087.09 141L1064.91 141C1064.43 138.167 1061.97 136 1059 136 1055.69 136 1053 138.691 1053 142 1053 145.309 1055.69 148 1059 148 1060.75 148 1062.32 147.245 1063.41 146.051L1068.92 151.526 1054.16 157.961C1053.12 156.192 1051.2 155 1049 155 1045.69 155 1043 157.691 1043 161 1043 164.309 1045.69 167 1049 167 1050.18 167 1051.27 166.655 1052.2 166.068L1067.74 181.783C1066.67 182.868 1066 184.357 1066 186 1066 189.309 1068.69 192 1072 192 1075.31 192 1078 189.309 1078 186 1078 185.285 1077.87 184.601 1077.64 183.964L1088.59 177.054C1089.69 178.247 1091.26 179 1093 179 1096.31 179 1099 176.309 1099 173 1099 169.691 1096.31 167 1093 167Z" fill="#FFFFFF" fill-rule="evenodd" fill-opacity="1"/></g></g></g></g></g></svg>