<svg width="80" height="80" viewBox="0 0 80 80" xmlns="http://www.w3.org/2000/svg" xmlns:xlink="http://www.w3.org/1999/xlink" overflow="hidden"><g id="Icon-Architecture/64/Arch_AWS-Elastic-Disaster-Recovery_64" stroke="none" stroke-width="1" fill="none" fill-rule="evenodd"><g id="Icon-Architecture-BG/64/Storage" fill="#7AA116"><rect x="0" y="0" width="80" height="80" id="Rectangle"/></g><path d="M58.065 52.9278C58.165 52.9198 68 52.0068 68 42.1178 68 34.4508 62.003 32.1398 59.183 31.4798 58.752 27.8188 56.826 25.1678 53.946 24.3258 51.846 23.7128 49.644 24.2198 47.974 25.6178 47.097 23.6448 45.95 21.9398 44.549 20.5358 40.039 16.0108 33.864 14.7838 28.04 17.2508 23.067 19.3568 19.318 25.1708 19.318 30.7748 19.318 31.1008 19.329 31.4268 19.349 31.7508 16.632 32.6468 12 35.1808 12 42.0348 12 42.4018 12.013 42.7568 12.041 43.0988 12.53 49.3428 15.772 52.9268 20.937 52.9308L31.75 52.9308 31.75 50.9898 20.938 50.9898C15.475 50.9838 14.268 45.9238 14.035 42.9418 14.011 42.6488 14 42.3468 14 42.0348 14 36.1108 18.09 34.1268 20.588 33.4688 20.598 33.4668 20.608 33.4648 20.618 33.4628 21.128 33.3598 21.475 32.8808 21.413 32.3628 21.35 31.8438 21.318 31.3088 21.318 30.7748 21.318 26.0058 24.613 20.8748 28.819 19.0928 36.1 16.0078 41.253 20.0628 43.133 21.9478 44.663 23.4818 45.857 25.4428 46.682 27.7758 46.805 28.1248 47.111 28.3768 47.477 28.4318 47.839 28.4868 48.21 28.3338 48.429 28.0368 49.625 26.4188 51.568 25.7128 53.384 26.2458 55.567 26.8838 57.003 29.0898 57.24 32.1568 57.16 32.6948 57.523 33.1988 58.059 33.2908 60.447 33.7008 66 35.3838 66 42.1178 66 50.1458 58.231 50.9648 57.984 50.9898L54.75 50.9898 54.75 52.9308 58.065 52.9278ZM36.116 46.9898 40.473 46.9898C40.77 46.9898 41.051 47.1208 41.241 47.3488 41.431 47.5758 41.51 47.8768 41.457 48.1678L39.538 58.7228 49.968 44.9898 45.75 44.9898C45.386 44.9898 45.051 44.7918 44.875 44.4738 44.699 44.1568 44.709 43.7678 44.902 43.4598L50.195 34.9898 42.662 34.9898 36.116 46.9898ZM37.806 63.6558C37.67 63.6558 37.534 63.6288 37.403 63.5708 36.98 63.3848 36.74 62.9318 36.823 62.4768L39.275 48.9898 34.431 48.9898C34.079 48.9898 33.752 48.8028 33.571 48.4998 33.391 48.1968 33.384 47.8208 33.553 47.5108L41.19 33.5108C41.365 33.1888 41.702 32.9898 42.068 32.9898L52 32.9898C52.363 32.9898 52.698 33.1868 52.875 33.5048 53.05 33.8228 53.041 34.2108 52.847 34.5188L47.554 42.9898 51.984 42.9898C52.364 42.9898 52.711 43.2048 52.879 43.5448 53.048 43.8858 53.01 44.2918 52.78 44.5948L38.602 63.2608C38.409 63.5158 38.111 63.6558 37.806 63.6558L37.806 63.6558Z" id="AWS-Elastic-Disaster-Recovery_Icon_64_Squid" fill="#FFFFFF"/></g></svg>