<svg width="81" height="80" xmlns="http://www.w3.org/2000/svg" xmlns:xlink="http://www.w3.org/1999/xlink" xml:space="preserve" overflow="hidden"><g transform="translate(-313 -124)"><g><g><g><g><path d="M314 124 394 124 394 204 314 204Z" fill="#C925D1" fill-rule="evenodd" fill-opacity="1"/><path d="M347.953 188.986 351.961 188.986 351.961 168.847 347.953 168.847 347.953 188.986ZM335.113 156.763 341.759 156.763C341.618 160.201 342.635 163.043 343.743 165.081 338.593 162.233 335.694 159.445 335.113 156.763ZM349.274 152.735 350.445 152.735 351.511 154.749 348.122 154.749 349.274 152.735ZM349.957 147.714 350.944 148.707 349.957 149.7 348.97 148.707 349.957 147.714ZM356.577 164.749C357.709 162.737 358.702 160.015 358.587 156.763L363.716 156.763C363.114 160.013 359.709 162.811 356.577 164.749ZM350.959 156.763 356.579 156.763C356.783 162.048 353.507 165.846 352.553 166.833L350.959 166.833 350.959 156.763ZM347.386 166.833C346.48 165.813 343.525 162.048 343.768 156.763L348.955 156.763 348.955 166.833 347.386 166.833ZM365.814 155.756C365.814 155.2 365.366 154.749 364.812 154.749L353.781 154.749 351.932 151.255C351.852 151.106 351.736 150.987 351.6 150.895L352.669 149.822C352.857 149.633 352.963 149.377 352.963 149.11L352.963 148.304C352.963 148.037 352.857 147.782 352.669 147.592L351.066 145.981C350.879 145.792 350.624 145.686 350.358 145.686L349.555 145.686C349.29 145.686 349.035 145.792 348.847 145.981L347.245 147.592C347.056 147.782 346.951 148.037 346.951 148.304L346.951 149.11C346.951 149.377 347.056 149.633 347.245 149.822L348.25 150.832C348.076 150.919 347.926 151.051 347.825 151.227L345.811 154.749 334.002 154.749C333.448 154.749 333 155.2 333 155.756 333 160.133 337.245 164.296 345.949 168.472L345.949 189.993C345.949 190.549 346.397 191 346.951 191L352.963 191C353.517 191 353.965 190.549 353.965 189.993L353.965 168.473C358.645 166.199 365.814 161.741 365.814 155.756ZM356.882 147.591 355.087 148.488C354.08 146.452 352.051 145.188 349.792 145.188 347.531 145.188 345.502 146.452 344.496 148.488L342.702 147.591C344.048 144.867 346.765 143.174 349.792 143.174 352.817 143.174 355.534 144.867 356.882 147.591ZM357.833 147.104C356.302 144.018 353.22 142.1 349.792 142.1 346.356 142.1 343.272 144.024 341.742 147.118L339.948 146.223C341.818 142.438 345.59 140.086 349.792 140.086 353.985 140.086 357.753 142.431 359.626 146.205L357.833 147.104ZM338.991 145.745 337.196 144.847C339.59 140.007 344.417 137 349.792 137 355.149 137 359.97 139.994 362.37 144.813L360.577 145.714C358.52 141.581 354.387 139.014 349.792 139.014 345.183 139.014 341.044 141.593 338.991 145.745ZM366.212 170.195C366.923 168.78 367.49 166.966 367.436 164.819L372.795 164.819C371.994 166.859 368.951 168.771 366.212 170.195ZM358.975 188.986 361.981 188.986 361.981 173.881 358.975 173.881 358.975 188.986ZM375 163.812C375 163.256 374.552 162.805 373.998 162.805L363.984 162.805 363.984 164.819 365.43 164.819C365.543 168.576 363.346 171.107 362.585 171.867L358.975 171.867 358.975 168.847 356.971 168.847 356.971 189.993C356.971 190.549 357.419 191 357.973 191L362.982 191C363.537 191 363.984 190.549 363.984 189.993L363.984 173.517C368.124 171.587 375 168.365 375 163.812Z" fill="#FFFFFF" fill-rule="evenodd" fill-opacity="1"/></g></g></g></g></g></svg>