<svg xmlns="http://www.w3.org/2000/svg" xmlns:lucid="lucid" width="121" height="121"><g lucid:page-tab-id="0_0" stroke="#000" stroke-opacity="0"><path d="M.5.5h120v120H.5z" fill="#01a88d"/><path d="M88.98 72.5H92v-8.98h-3.02v9zm10.5 13.54H93.5c-.83 0-1.5-.68-1.5-1.52v-6.04h-5.96v6.04c0 .84-.68 1.52-1.52 1.52h-6.04V92h6.04c.84 0 1.52.67 1.52 1.5v5.98H92V93.5c0-.83.67-1.5 1.5-1.5h5.98v-5.96zm3.02-1.52v9c0 .83-.67 1.5-1.5 1.5H95V101c0 .83-.67 1.5-1.5 1.5h-9c-.84 0-1.5-.67-1.5-1.5V95h-6.06c-.75 0-1.42-.67-1.42-1.5v-9c0-.84.67-1.5 1.42-1.5H83v-6.06c0-.75.68-1.42 1.52-1.42h9c.83 0 1.5.67 1.5 1.42V83H101c.83 0 1.5.68 1.5 1.52zM50 29h21v-7.48H50V29zm-3.02 1.5V20c0-.83.67-1.5 1.5-1.5h24.03c.85 0 1.52.67 1.52 1.5v10.5c0 .85-.67 1.52-1.5 1.52H48.48c-.85 0-1.52-.67-1.52-1.5zm-14.96-3.68c0-1.26 1-2.36 2.27-2.36h9.74v-2.94H34.3c-2.95 0-5.3 2.36-5.3 5.3V50h3.02V26.82zm56.96 0V50H92V26.82c0-2.94-2.35-5.3-5.3-5.3h-9.74v2.94h9.75c1.27 0 2.28 1.1 2.28 2.36zm-56.96 70.4V63.5H29v33.7c0 2.93 2.35 5.28 5.3 5.28h44.18v-3.02h-44.2c-1.25 0-2.26-1-2.26-2.27zM77.9 55.95l-7.07-14.1c-.25-.5-.75-.85-1.34-.85-.6 0-1.1.35-1.36.85l-7.9 17.05-7.47-11.25c-.6-.84-1.93-.84-2.52 0l-5.54 8.3H18.5V59h26.96c.5 0 1-.26 1.26-.68l4.8-7.14 7.72 11.67c.25.42.76.67 1.26.67h.08c.6-.08 1.1-.42 1.26-.92l7.73-16.63 6.05 12.18c.25.5.84.84 1.34.84h25.54v-3.04H77.9zM38 81.5h27.04v-3.02H38v3.02zm0 9h27.04v-3.04H38v3.03z" fill="#fff"/></g></svg>