<svg width="80" height="80" xmlns="http://www.w3.org/2000/svg" xmlns:xlink="http://www.w3.org/1999/xlink" xml:space="preserve" overflow="hidden"><g transform="translate(-788 -124)"><g><path d="M788 124 868 124 868 204 788 204Z" fill="#7AA116" fill-rule="evenodd" fill-opacity="1"/><path d="M844.96 164.963 844.96 161.963 841.96 161.963 841.96 159.963 845.96 159.963C846.513 159.963 846.96 160.411 846.96 160.963L846.96 164.963 844.96 164.963ZM844.96 178.963 846.96 178.963 846.96 182.963C846.96 183.516 846.513 183.963 845.96 183.963L841.96 183.963 841.96 181.963 844.96 181.963 844.96 178.963ZM823.96 159.963 827.96 159.963 827.96 161.963 824.96 161.963 824.96 164.963 822.96 164.963 822.96 160.963C822.96 160.411 823.408 159.963 823.96 159.963ZM831.96 161.963 837.96 161.963 837.96 159.963 831.96 159.963 831.96 161.963ZM811.96 189.963 831.96 189.963 831.96 169.963 811.96 169.963 811.96 189.963ZM855.96 162.86C855.96 154.99 849.969 152.616 847.152 151.937 846.725 148.125 844.769 145.385 841.839 144.548 839.768 143.957 837.599 144.482 835.953 145.893 835.08 143.867 833.936 142.116 832.538 140.672 828.026 136.01 821.85 134.746 816.019 137.291 811.056 139.456 807.313 145.428 807.313 151.181 807.313 151.525 807.324 151.87 807.346 152.214 804.635 153.133 800 155.736 800 162.775 800 163.223 800.02 163.655 800.058 164.071 800.517 169.108 804.837 173.273 809.96 173.879L809.96 190.963C809.96 191.516 810.408 191.963 810.96 191.963L832.96 191.963C833.513 191.963 833.96 191.516 833.96 190.963L833.96 183.963 837.96 183.963 837.96 181.963 833.96 181.963 833.96 168.963C833.96 168.41 833.513 167.963 832.96 167.963L810.96 167.963C810.408 167.963 809.96 168.41 809.96 168.963L809.96 171.862C805.848 171.273 802.418 167.927 802.05 163.89 802.017 163.532 802 163.161 802 162.775 802 156.654 806.087 154.605 808.587 153.925 809.106 153.835 809.469 153.354 809.408 152.825 809.345 152.283 809.313 151.73 809.313 151.181 809.313 146.256 812.61 140.96 816.818 139.124 824.076 135.957 829.224 140.124 831.101 142.063 832.634 143.648 833.828 145.671 834.652 148.075 834.774 148.429 835.083 148.686 835.453 148.74 835.826 148.794 836.193 148.638 836.411 148.334 837.589 146.692 839.504 145.96 841.289 146.471 843.509 147.106 844.969 149.396 845.207 152.607L845.206 152.611C845.127 153.147 845.488 153.648 846.021 153.742 848.408 154.165 853.96 155.9 853.96 162.86 853.96 169.421 849.11 171.276 846.96 171.78L846.96 167.963 844.96 167.963 844.96 172.962 844.959 173.962 844.96 173.962 844.96 175.963 846.96 175.963 846.96 173.807C849.423 173.291 855.96 171.14 855.96 162.86Z" fill="#FFFFFF" fill-rule="evenodd" fill-opacity="1"/></g></g></svg>