<svg width="80" height="80" viewBox="0 0 80 80" xmlns="http://www.w3.org/2000/svg" xmlns:xlink="http://www.w3.org/1999/xlink" overflow="hidden"><g id="Icon-Architecture/64/Arch_AWS-License-Manager_64" stroke="none" stroke-width="1" fill="none" fill-rule="evenodd"><g id="Icon-Architecture-BG/64/Management-Governance" fill="#E7157B"><rect x="0" y="0" width="80" height="80" id="Rectangle"/></g><path d="M39.976 39.673C42.955 39.673 45.379 42.097 45.379 45.076 45.379 48.055 42.955 50.479 39.976 50.479 36.997 50.479 34.573 48.055 34.573 45.076 34.573 42.097 36.997 39.673 39.976 39.673L39.976 39.673ZM39.976 52.479C44.058 52.479 47.379 49.158 47.379 45.076 47.379 40.994 44.058 37.673 39.976 37.673 35.894 37.673 32.573 40.994 32.573 45.076 32.573 49.158 35.894 52.479 39.976 52.479L39.976 52.479ZM38.354 47.613 36.525 45.783 37.939 44.369 39.061 45.491 42.013 42.54 43.427 43.954 39.768 47.613C39.58 47.8 39.327 47.906 39.061 47.906 38.795 47.906 38.541 47.8 38.354 47.613L38.354 47.613ZM26 32 54 32 54 30 26 30 26 32ZM26 29 54 29 54 27 26 27 26 29ZM26 26 54 26 54 24 26 24 26 26ZM26 19 37 19 37 17 26 17 26 19ZM29.949 45.101C29.949 44.364 30.472 43.725 31.193 43.581 31.564 43.507 31.861 43.231 31.961 42.867 32.147 42.198 32.412 41.56 32.748 40.971 32.93 40.654 32.924 40.264 32.733 39.952 32.578 39.699 32.499 39.429 32.499 39.15 32.499 38.295 33.195 37.599 34.049 37.599 34.33 37.599 34.599 37.678 34.851 37.833 35.164 38.023 35.554 38.029 35.871 37.848 36.461 37.511 37.099 37.246 37.767 37.062 38.131 36.961 38.407 36.664 38.481 36.294 38.625 35.572 39.264 35.048 40 35.048 40.737 35.048 41.375 35.572 41.52 36.294 41.594 36.664 41.87 36.961 42.234 37.062 42.902 37.246 43.539 37.511 44.13 37.848 44.446 38.029 44.836 38.023 45.15 37.833 45.402 37.678 45.671 37.599 45.952 37.599 46.806 37.599 47.501 38.295 47.501 39.15 47.501 39.429 47.423 39.699 47.268 39.952 47.077 40.264 47.071 40.654 47.252 40.971 47.589 41.56 47.854 42.198 48.039 42.867 48.14 43.231 48.437 43.507 48.808 43.581 49.529 43.725 50.052 44.364 50.052 45.101 50.052 45.837 49.529 46.476 48.808 46.62 48.437 46.694 48.14 46.97 48.039 47.334 47.854 48.003 47.589 48.641 47.252 49.23 47.071 49.548 47.078 49.938 47.268 50.25 47.423 50.502 47.501 50.772 47.501 51.051 47.501 51.906 46.806 52.602 45.952 52.602 45.671 52.602 45.402 52.524 45.15 52.369 44.838 52.177 44.446 52.171 44.13 52.353 43.539 52.69 42.902 52.955 42.234 53.139 41.87 53.24 41.594 53.537 41.52 53.907 41.375 54.629 40.737 55.152 40 55.152 39.264 55.152 38.625 54.629 38.481 53.907 38.407 53.537 38.131 53.24 37.767 53.139 37.099 52.955 36.461 52.69 35.871 52.353 35.717 52.265 35.545 52.221 35.374 52.221 35.193 52.221 35.011 52.27 34.851 52.369 34.599 52.524 34.33 52.602 34.049 52.602 33.195 52.602 32.499 51.906 32.499 51.051 32.499 50.772 32.578 50.502 32.733 50.25 32.923 49.938 32.93 49.548 32.748 49.23 32.412 48.641 32.147 48.003 31.961 47.334 31.861 46.97 31.564 46.694 31.193 46.62 30.472 46.476 29.949 45.837 29.949 45.101L29.949 45.101ZM34.049 54.602C34.497 54.602 34.94 54.514 35.357 54.346 35.789 54.562 36.237 54.749 36.698 54.903 37.224 56.237 38.527 57.152 40 57.152 41.474 57.152 42.777 56.237 43.303 54.903 43.764 54.749 44.212 54.562 44.644 54.346 45.061 54.514 45.504 54.602 45.952 54.602 47.909 54.602 49.501 53.009 49.501 51.051 49.501 50.605 49.414 50.162 49.246 49.744 49.461 49.313 49.648 48.865 49.803 48.403 51.137 47.877 52.052 46.574 52.052 45.101 52.052 43.627 51.137 42.324 49.803 41.798 49.648 41.336 49.461 40.888 49.246 40.457 49.414 40.039 49.501 39.596 49.501 39.15 49.501 37.192 47.909 35.599 45.952 35.599 45.505 35.599 45.061 35.687 44.644 35.855 44.212 35.639 43.764 35.452 43.303 35.298 42.777 33.964 41.474 33.048 40 33.048 38.527 33.048 37.224 33.964 36.698 35.298 36.237 35.452 35.789 35.639 35.357 35.855 34.94 35.687 34.496 35.599 34.049 35.599 32.092 35.599 30.499 37.192 30.499 39.15 30.499 39.596 30.587 40.039 30.755 40.457 30.539 40.888 30.353 41.336 30.198 41.798 28.864 42.324 27.949 43.627 27.949 45.101 27.949 46.574 28.864 47.877 30.198 48.403 30.353 48.865 30.539 49.313 30.755 49.744 30.587 50.162 30.499 50.605 30.499 51.051 30.499 53.009 32.092 54.602 34.049 54.602L34.049 54.602ZM44 56 46 56 46 66C46 66.384 45.78 66.735 45.434 66.901 45.296 66.967 45.148 67 45 67 44.778 67 44.556 66.925 44.375 66.78L40 63.28 35.625 66.78C35.326 67.021 34.915 67.067 34.567 66.901 34.221 66.735 34 66.384 34 66L34 56 36 56 36 63.919 39.375 61.219C39.741 60.927 40.26 60.927 40.625 61.219L44 63.919 44 56ZM52 16.414 55.586 20 52 20 52 16.414ZM58.707 20.293 51.707 13.293C51.52 13.105 51.266 13 51 13L22 13C21.448 13 21 13.447 21 14L21 60C21 60.552 21.448 61 22 61L32 61 32 59 23 59 23 15 50 15 50 21C50 21.552 50.448 22 51 22L57 22 57 59 48 59 48 61 58 61C58.553 61 59 60.552 59 60L59 21C59 20.735 58.895 20.48 58.707 20.293L58.707 20.293Z" id="AWS-License-Manager_Icon_64_Squid" fill="#FFFFFF"/></g></svg>