<svg width="80" height="80" viewBox="0 0 80 80" xmlns="http://www.w3.org/2000/svg" xmlns:xlink="http://www.w3.org/1999/xlink" overflow="hidden"><g id="Icon-Architecture/64/Arch_AWS-Outposts-family_64" stroke="none" stroke-width="1" fill="none" fill-rule="evenodd"><g id="Icon-Architecture-BG/64/Compute" fill="#ED7100"><rect x="0" y="0" width="80" height="80" id="Rectangle"/></g><path d="M37 65.9894 41 65.9894 41 58.9894 37 58.9894 37 65.9894ZM28 65.9894 35 65.9894 35 57.9894C35 57.4374 35.447 56.9894 36 56.9894L42 56.9894C42.553 56.9894 43 57.4374 43 57.9894L43 65.9894 50 65.9894 50 34.9894 28 34.9894 28 45.9894 28 47.9894 28 65.9894ZM68 65.9894 68 67.9894 12 67.9894 12 65.9894 26 65.9894 26 47.9894 21.928 47.9894C17.448 47.9894 13.577 44.9364 12.723 40.7304 12.672 40.4834 12.631 40.2284 12.6 39.9704 12.538 39.4674 12.506 38.9394 12.506 38.4044 12.506 32.6414 16.3 29.4154 20.079 28.2154L14.12 26.0404 14.806 24.1614 22.356 26.9174C22.605 27.0084 22.809 27.1954 22.92 27.4354 23.032 27.6764 23.044 27.9504 22.953 28.1994L20.196 35.7514 18.317 35.0654 20.038 30.3524C17.913 31.1924 14.506 33.3324 14.506 38.4044 14.506 38.8574 14.532 39.3034 14.585 39.7294 14.609 39.9354 14.643 40.1344 14.683 40.3304 15.349 43.6104 18.396 45.9894 21.928 45.9894L26 45.9894 26 33.9894C26 33.4374 26.447 32.9894 27 32.9894L51 32.9894C51.553 32.9894 52 33.4374 52 33.9894L52 65.9894 68 65.9894ZM43 41.9894 45 41.9894 45 39.9894 43 39.9894 43 41.9894ZM41 42.9894 41 38.9894C41 38.4374 41.447 37.9894 42 37.9894L46 37.9894C46.553 37.9894 47 38.4374 47 38.9894L47 42.9894C47 43.5414 46.553 43.9894 46 43.9894L42 43.9894C41.447 43.9894 41 43.5414 41 42.9894L41 42.9894ZM33 41.9894 35 41.9894 35 39.9894 33 39.9894 33 41.9894ZM31 42.9894 31 38.9894C31 38.4374 31.447 37.9894 32 37.9894L36 37.9894C36.553 37.9894 37 38.4374 37 38.9894L37 42.9894C37 43.5414 36.553 43.9894 36 43.9894L32 43.9894C31.447 43.9894 31 43.5414 31 42.9894L31 42.9894ZM43 50.9894 45 50.9894 45 48.9894 43 48.9894 43 50.9894ZM41 51.9894 41 47.9894C41 47.4374 41.447 46.9894 42 46.9894L46 46.9894C46.553 46.9894 47 47.4374 47 47.9894L47 51.9894C47 52.5414 46.553 52.9894 46 52.9894L42 52.9894C41.447 52.9894 41 52.5414 41 51.9894L41 51.9894ZM33 50.9894 35 50.9894 35 48.9894 33 48.9894 33 50.9894ZM32 52.9894C31.447 52.9894 31 52.5414 31 51.9894L31 47.9894C31 47.4374 31.447 46.9894 32 46.9894L36 46.9894C36.553 46.9894 37 47.4374 37 47.9894L37 51.9894C37 52.5414 36.553 52.9894 36 52.9894L32 52.9894ZM22.028 24.2344 20.104 23.6844C21.332 19.3884 24.365 15.7594 28.021 14.2114 33.661 11.8224 39.639 13.0104 44.006 17.3904 45.353 18.7414 46.457 20.3774 47.303 22.2684 48.919 20.9324 51.042 20.4514 53.067 21.0434 55.856 21.8584 57.725 24.4214 58.148 27.9604 60.815 28.5994 66.413 30.8254 66.666 38.2284 66.772 41.3324 65.911 43.8544 64.104 45.7234 62.35 47.5384 60.071 48.3454 58.376 48.7034L63.073 50.9454 62.212 52.7504 54.958 49.2874C54.46 49.0504 54.248 48.4534 54.486 47.9544L57.948 40.7004 59.753 41.5614 57.218 46.8744C58.639 46.6624 61.006 46.0594 62.676 44.3234 64.084 42.8604 64.755 40.8324 64.668 38.2964 64.443 31.7464 59.249 30.1514 57.026 29.7694 56.491 29.6774 56.128 29.1764 56.206 28.6404 55.978 25.6934 54.6 23.5744 52.506 22.9634 50.769 22.4564 48.902 23.1284 47.756 24.6804 47.536 24.9784 47.166 25.1314 46.804 25.0754 46.437 25.0204 46.132 24.7684 46.008 24.4194 45.215 22.1724 44.064 20.2824 42.59 18.8024 40.778 16.9864 35.812 13.0814 28.8 16.0524 25.735 17.3504 23.077 20.5624 22.028 24.2344L22.028 24.2344Z" id="Fill-1" fill="#FFFFFF"/></g></svg>