<svg width="80" height="80" viewBox="0 0 80 80" xmlns="http://www.w3.org/2000/svg" xmlns:xlink="http://www.w3.org/1999/xlink" overflow="hidden"><g id="Icon-Architecture/64/Arch_AWS-Proton_64" stroke="none" stroke-width="1" fill="none" fill-rule="evenodd"><g id="Icon-Architecture-BG/64/Management-Governance" fill="#E7157B"><rect x="0" y="0" width="80" height="80" id="Rectangle"/></g><g id="Icon-Service/64/AWS-Proton_64" fill="#FFFFFF" transform="translate(12 12)"><path d="M22.231 15.64 17.231 9.64 18.768 8.36 23.468 14 40.585 14 38.293 11.707 39.707 10.293 43.707 14.293C44.097 14.683 44.097 15.316 43.707 15.707L39.707 19.707 38.293 18.293 40.585 16 23 16C22.703 16 22.421 15.868 22.231 15.64L22.231 15.64ZM43.707 40.293C44.097 40.683 44.097 41.316 43.707 41.707L39.707 45.707 38.293 44.293 40.585 42 23.468 42 18.768 47.64 17.231 46.36 22.231 40.36C22.421 40.132 22.703 40 23 40L40.585 40 38.293 37.707 39.707 36.293 43.707 40.293ZM55.707 28.707 51.707 32.707 50.293 31.293 52.585 29 29 29 29 27 52.585 27 50.293 24.707 51.707 23.293 55.707 27.293C56.097 27.683 56.097 28.316 55.707 28.707L55.707 28.707ZM6 54C3.794 54 2 52.205 2 50 2 47.794 3.794 46 6 46 8.206 46 10 47.794 10 50 10 52.205 8.206 54 6 54L6 54ZM15 28C15 25.794 16.794 24 19 24 21.206 24 23 25.794 23 28 23 30.205 21.206 32 19 32 16.794 32 15 30.205 15 28L15 28ZM2 6C2 3.794 3.794 2 6 2 8.206 2 10 3.794 10 6 10 8.205 8.206 10 6 10 3.794 10 2 8.205 2 6L2 6ZM9.77 45.339 18.511 33.975C18.673 33.988 18.835 34 19 34 22.308 34 25 31.308 25 28 25 24.691 22.308 22 19 22 18.835 22 18.673 22.012 18.511 22.025L9.77 10.661C11.128 9.56 12 7.881 12 6 12 2.691 9.308 0 6 0 2.691 0 0 2.691 0 6 0 9.308 2.691 12 6 12 6.704 12 7.377 11.871 8.005 11.648L16.422 22.59C14.402 23.557 13 25.615 13 28 13 30.385 14.402 32.443 16.422 33.41L8.005 44.352C7.377 44.128 6.704 44 6 44 2.691 44 0 46.691 0 50 0 53.308 2.691 56 6 56 9.308 56 12 53.308 12 50 12 48.119 11.128 46.44 9.77 45.339L9.77 45.339Z" id="Fill-7"/></g></g></svg>