<svg width="81" height="80" xmlns="http://www.w3.org/2000/svg" xmlns:xlink="http://www.w3.org/1999/xlink" xml:space="preserve" overflow="hidden"><g transform="translate(-789 -124)"><g><g><g><g><path d="M790 124 870 124 870 204 790 204Z" fill="#01A88D" fill-rule="evenodd" fill-opacity="1"/><path d="M850 156.092C850 154.442 848.654 153.099 847 153.099 845.346 153.099 844 154.442 844 156.092 844 157.742 845.346 159.084 847 159.084 848.654 159.084 850 157.742 850 156.092L850 156.092ZM852 156.092C852 158.842 849.757 161.079 847 161.079 844.586 161.079 842.565 159.362 842.102 157.089L837 157.089 837 185.018 835 185.018 835 156.092C835 155.541 835.447 155.094 836 155.094L842.102 155.094C842.565 152.821 844.586 151.104 847 151.104 849.757 151.104 852 153.342 852 156.092ZM833 140.987C833 139.337 831.654 137.995 830 137.995 828.346 137.995 827 139.337 827 140.987 827 142.637 828.346 143.98 830 143.98 831.654 143.98 833 142.637 833 140.987ZM831 145.874 831 179.033 829 179.033 829 145.874C826.721 145.41 825 143.395 825 140.987 825 138.237 827.243 136 830 136 832.757 136 835 138.237 835 140.987 835 143.395 833.279 145.41 831 145.874ZM815 149.109C816.654 149.109 818 147.767 818 146.117 818 144.467 816.654 143.125 815 143.125 813.346 143.125 812 144.467 812 146.117 812 147.767 813.346 149.109 815 149.109ZM825 161.507 825 185.018 823 185.018 823 162.259 814.726 159.9C814.296 159.778 814 159.386 814 158.941L814 151.004C811.721 150.54 810 148.526 810 146.117 810 143.367 812.243 141.13 815 141.13 817.757 141.13 820 143.367 820 146.117 820 148.526 818.279 150.54 816 151.004L816 158.189 824.274 160.547C824.704 160.67 825 161.061 825 161.507ZM843 186.015 847 186.015 847 184.02 843 184.02 843 186.015ZM849 186.015 853 186.015 853 184.02 849 184.02 849 186.015ZM852.18 192 807.821 192C804.606 192 802 189.401 802 186.194L802 183.842C802 180.635 804.606 178.036 807.821 178.036L820 178.036 820 180.031 807.501 180.031C805.567 180.031 804 181.594 804 183.523L804 186.514C804 188.442 805.567 190.005 807.5 190.005L852.499 190.005C854.433 190.005 856 188.442 856 186.513L856 183.522C856 181.594 854.433 180.031 852.5 180.031L840 180.031 840 178.036 852.179 178.036C855.394 178.036 858 180.635 858 183.842L858 186.194C858 189.401 855.394 192 852.18 192Z" fill="#FFFFFF" fill-rule="evenodd" fill-opacity="1"/></g></g></g></g></g></svg>