<svg width="82" height="80" xmlns="http://www.w3.org/2000/svg" xmlns:xlink="http://www.w3.org/1999/xlink" xml:space="preserve" overflow="hidden"><g transform="translate(-550 -124)"><g><g><g><g><g><path d="M551 124 631 124 631 204 551 204Z" fill="#FFFFFF" fill-rule="nonzero" fill-opacity="1"/><path d="M551 124 631 124 631 204 551 204Z" fill="#ED7100" fill-rule="nonzero" fill-opacity="1"/><path d="M574 152C572.35 152 571 150.65 571 149 571 147.35 572.35 146 574 146 575.65 146 577 147.35 577 149 577 150.65 575.65 152 574 152ZM571 177C569.35 177 568 178.35 568 180 568 181.65 569.35 183 571 183 572.65 183 574 181.65 574 180 574 178.35 572.65 177 571 177ZM588 180C588 181.65 589.35 183 591 183 592.65 183 594 181.65 594 180 594 178.35 592.65 177 591 177 589.35 177 588 178.35 588 180ZM619 180C619 184.41 615.41 188 611 188 606.59 188 603 184.41 603 180 603 177.73 603.95 175.69 605.47 174.23L598.04 169.62 595.15 173.18C597.45 174.59 599 177.12 599 180.01 599 184.42 595.41 188.01 591 188.01 586.59 188.01 583 184.42 583 180.01 583 177.12 584.55 174.59 586.85 173.18L583.96 169.62 576.53 174.23C578.05 175.69 579 177.73 579 180 579 184.41 575.41 188 571 188 566.59 188 563 184.41 563 180 563 176.23 565.62 173.08 569.13 172.23L571.85 157.73C567.93 156.76 565 153.22 565 149 565 144.04 569.04 140 574 140 578.96 140 583 144.04 583 149 583 151.78 581.74 154.26 579.75 155.91L591 162.89 602.25 155.91C600.27 154.26 599 151.77 599 149 599 144.04 603.04 140 608 140 612.96 140 617 144.04 617 149 617 153.22 614.08 156.76 610.15 157.73L612.87 172.23C616.38 173.08 619 176.23 619 180ZM608 156C611.86 156 615 152.86 615 149 615 145.14 611.86 142 608 142 604.14 142 601 145.14 601 149 601 152.86 604.14 156 608 156ZM592.9 164.07 597.6 166.99 605.25 157.57C604.86 157.44 604.48 157.29 604.11 157.11L592.89 164.07 592.9 164.07ZM593.26 172.33 596.33 168.55 591 165.24 585.67 168.55 588.74 172.33C589.46 172.12 590.21 172 591 172 591.79 172 592.54 172.12 593.26 172.33ZM577.89 157.11C577.52 157.29 577.15 157.45 576.75 157.57L584.4 166.99 589.1 164.07 577.88 157.11 577.89 157.11ZM574 156C577.86 156 581 152.86 581 149 581 145.14 577.86 142 574 142 570.14 142 567 145.14 567 149 567 152.86 570.14 156 574 156ZM571 174C567.69 174 565 176.69 565 180 565 183.31 567.69 186 571 186 574.31 186 577 183.31 577 180 577 176.69 574.31 174 571 174ZM582.69 168.05 574.5 157.97C574.33 157.97 574.17 158 574 158 573.94 158 573.89 158 573.83 158L571.2 172.02C572.49 172.05 573.71 172.39 574.78 172.97L582.68 168.06 582.69 168.05ZM591 174C587.69 174 585 176.69 585 180 585 183.31 587.69 186 591 186 594.31 186 597 183.31 597 180 597 176.69 594.31 174 591 174ZM607.21 172.96C608.28 172.38 609.5 172.05 610.79 172.01L608.16 157.99C608.1 157.99 608.05 157.99 607.99 157.99 607.82 157.99 607.65 157.97 607.49 157.96L599.3 168.04 607.2 172.95 607.21 172.96ZM617 180C617 176.69 614.31 174 611 174 607.69 174 605 176.69 605 180 605 183.31 607.69 186 611 186 614.31 186 617 183.31 617 180Z" fill="#FFFFFF" fill-rule="nonzero" fill-opacity="1"/></g></g></g></g></g></g></svg>