<svg width="80" height="80" viewBox="0 0 80 80" xmlns="http://www.w3.org/2000/svg" xmlns:xlink="http://www.w3.org/1999/xlink" overflow="hidden"><g id="Icon-Architecture/64/Arch_AWS-Payment-Cryptography_64" stroke="none" stroke-width="1" fill="none" fill-rule="evenodd"><g id="Icon-Architecture-BG/64/Security-Identity-Compliance" fill="#DD344C"><rect x="0" y="0" width="80" height="80" id="Rectangle"/></g><g id="Icon-Service/64/AWS-Payment-Cryptography_64" fill="#FFFFFF" transform="translate(12 11.75)"><path d="M32.515 8.65943C32.492 8.65943 32.468 8.65943 32.444 8.66043 32.024 8.67943 31.635 8.86043 31.351 9.17143 31.067 9.48143 30.92 9.88443 30.939 10.3044 30.957 10.7254 31.139 11.1134 31.45 11.3974 32.089 11.9834 33.088 11.9414 33.676 11.2994 34.262 10.6584 34.218 9.65943 33.577 9.07343L33.577 9.07343C33.285 8.80543 32.91 8.65943 32.515 8.65943L32.515 8.65943ZM32.512 13.8094C31.649 13.8094 30.784 13.4994 30.099 12.8724 29.394 12.2274 28.983 11.3474 28.941 10.3924 28.899 9.43843 29.231 8.52543 29.876 7.82043 30.521 7.11643 31.402 6.70443 32.356 6.66243 33.306 6.61543 34.223 6.95243 34.927 7.59743 36.382 8.92843 36.483 11.1954 35.152 12.6494 34.447 13.4194 33.481 13.8094 32.512 13.8094L32.512 13.8094ZM50.694 31.0124 54 31.2104 54 27.7144 40.117 15.0604C39.789 14.7614 39.698 14.2834 39.891 13.8844 41.477 10.6194 40.712 6.62543 38.032 4.17043 36.221 2.51343 33.785 1.75043 31.35 2.07243 28.915 2.39643 26.751 3.79343 25.411 5.90743 23.586 8.78543 23.789 12.6684 25.907 15.3484 28.236 18.2984 32.119 19.3374 35.567 17.9374 35.921 17.7914 36.332 17.8644 36.618 18.1254L39.23 20.5174C39.426 20.6964 39.542 20.9464 39.554 21.2114L39.675 23.9554 42.419 23.8344C42.684 23.8284 42.943 23.9174 43.138 24.0954L45.092 25.8844C45.288 26.0634 45.405 26.3134 45.416 26.5784L45.537 29.3224 48.282 29.2014C48.546 29.1984 48.805 29.2844 49 29.4624L50.694 31.0124ZM55 33.2724C54.981 33.2724 54.96 33.2724 54.941 33.2704L50.22 32.9874C49.991 32.9734 49.774 32.8824 49.605 32.7274L47.955 31.2174 44.626 31.3644C44.099 31.3894 43.608 30.9614 43.583 30.4094L43.437 27.0804 42.093 25.8504 38.764 25.9974C38.23 26.0124 37.745 25.5934 37.721 25.0424L37.575 21.7134 35.718 20.0134C31.596 21.4044 27.088 20.0734 24.336 16.5874 21.661 13.1994 21.413 8.47643 23.722 4.83543 25.379 2.22243 28.064 0.492431 31.086 0.0894308 34.107-0.309569 37.134 0.638431 39.382 2.69543 42.524 5.57143 43.545 10.1514 41.994 14.0654L55.674 26.5334C55.882 26.7224 56 26.9914 56 27.2724L56 32.2724C56 32.5484 55.887 32.8114 55.686 33.0004 55.5 33.1764 55.254 33.2724 55 33.2724L55 33.2724ZM9 38.2724 16 38.2724 16 34.2724 9 34.2724 9 38.2724ZM17 40.2724 8 40.2724C7.448 40.2724 7 39.8254 7 39.2724L7 33.2724C7 32.7204 7.448 32.2724 8 32.2724L17 32.2724C17.553 32.2724 18 32.7204 18 33.2724L18 39.2724C18 39.8254 17.553 40.2724 17 40.2724L17 40.2724ZM7 48.2724 14 48.2724 14 46.2724 7 46.2724 7 48.2724ZM17 48.2724 24 48.2724 24 46.2724 17 46.2724 17 48.2724ZM27 48.2724 34 48.2724 34 46.2724 27 46.2724 27 48.2724ZM37 48.2724 44 48.2724 44 46.2724 37 46.2724 37 48.2724ZM45.906 55.2724 6.095 55.2724C2.735 55.2724 0 52.5384 0 49.1784L0 27.3674C0 24.0064 2.735 21.2724 6.095 21.2724L24 21.2724 24 23.2724 6.095 23.2724C3.837 23.2724 2 25.1094 2 27.3674L2 49.1784C2 51.4354 3.837 53.2724 6.095 53.2724L45.906 53.2724C48.163 53.2724 50 51.4354 50 49.1784L50 36.2724 52 36.2724 52 49.1784C52 52.5384 49.266 55.2724 45.906 55.2724L45.906 55.2724Z" id="Fill-1"/></g></g></svg>