<svg xmlns="http://www.w3.org/2000/svg" xmlns:lucid="lucid" width="121" height="121"><g transform="translate(-719.5 -859.5)" lucid:page-tab-id="0_0"><path d="M720 860h120v120H720z" stroke="#000" stroke-opacity="0" fill="url(#a)"/><path d="M821.28 937.5v17.84l-5.6 1v4.94h-71.35v-6.1l-5.6-1.9V937.4l5.6-1.82v-4.37h5.78c1.17-12.8 10.17-22.8 22.4-25.76v-4.2c0-4.8 2.7-7.52 7.5-7.52s7.5 2.72 7.5 7.5v4.22c5.54 1.32 10.58 4.04 14.54 8 4.7 4.8 7.52 11.07 7.93 17.76h5.7v3.88zM780 908.36c-14.53 0-25.84 10.65-26.25 24.85v24.37h52.5v-24.44c.1-6.44-2.4-12.47-6.93-17-4.87-4.96-11.9-7.77-19.32-7.77zm-15.52-18.9l-2.73-2.65c3.97-3.95 10.74-8.08 18.33-8.08 6.2 0 13.13 3.05 18.17 8.1l-2.73 2.63c-3.3-3.38-9.16-7.02-15.44-7.02-5.28 0-11.4 2.8-15.6 7.02zm5.2 49.28c-3.63 0-6.6-2.9-6.6-6.52 0-3.63 2.97-6.6 6.6-6.6 3.63 0 6.6 2.97 6.6 6.6 0 3.63-2.97 6.52-6.6 6.52zm20.64 0c-3.63 0-6.6-2.9-6.6-6.52 0-3.63 2.97-6.6 6.6-6.6 3.63 0 6.6 2.97 6.6 6.6 0 3.63-2.97 6.52-6.6 6.52zm-44.1-41.28c-3.12 0-5.6-2.48-5.6-5.6 0-3.07 2.48-5.63 5.6-5.63 3.15 0 5.63 2.56 5.63 5.62 0 3.13-2.48 5.6-5.62 5.6zm1.9 7.5c0-3.04 2.5-5.6 5.63-5.6 3.05 0 5.6 2.56 5.6 5.6 0 3.15-2.55 5.63-5.6 5.63-3.14 0-5.62-2.5-5.62-5.63zm31.96-18.73c6.36 0 10.5 4.13 12.47 6.2l-2.64 2.64c-1.73-1.82-5.03-5.12-9.82-5.12-4.95 0-8.25 3.3-10 5.12l-2.63-2.65c1.98-2.06 6.1-6.2 12.63-6.2zm-36.65 39.38c-2.65 0-4.7-2.05-4.7-4.7 0-2.55 2.05-4.62 4.7-4.62 2.56 0 4.7 2.07 4.7 4.63 0 2.65-2.14 4.7-4.7 4.7zm32.86-24.34v3.55c1.14-.07 2.46-.24 3.7-.24 1.24 0 2.48.17 3.72.25v-3.54c0-2.73-1-3.8-3.72-3.8s-3.72 1.07-3.72 3.8zm-28.17 33.77v22.54h1.82v-22.54h-1.82zm63.74 22.54v-22.54h-1.82v22.54zm-42.2-28.16c-1.56 0-2.8 1.25-2.8 2.82 0 1.57 1.24 2.8 2.8 2.8 1.58 0 2.82-1.23 2.82-2.8 0-1.57-1.25-2.8-2.82-2.8zm20.65 0c-1.57 0-2.8 1.25-2.8 2.82 0 1.57 1.23 2.8 2.8 2.8 1.57 0 2.8-1.23 2.8-2.8 0-1.57-1.23-2.8-2.8-2.8zm27.25 22.8v-12.22l-1.9-.83v13.38zm-75.14-1.65l1.9.66v-11.63l-1.9.57zm3.8-60.6c-1.07 0-1.9.9-1.9 1.9 0 1.07.83 1.9 1.9 1.9 1 0 1.9-.83 1.9-1.9 0-1-.9-1.9-1.9-1.9zm7.52 13.13c-1.08 0-1.9.9-1.9 1.9 0 1.07.82 1.9 1.9 1.9 1 0 1.9-.83 1.9-1.9 0-1-.9-1.9-1.9-1.9zM743.43 920c-.5 0-1 .4-1 .9 0 .6.5 1 1 1s.9-.4.9-1c0-.5-.4-.9-.9-.9z" stroke="#000" stroke-opacity="0" fill="#fff"/><defs><linearGradient gradientUnits="userSpaceOnUse" id="a" x1="720" y1="980" x2="840" y2="860"><stop offset="0%" stop-color="#bd0816"/><stop offset="100%" stop-color="#ff5252"/></linearGradient></defs></g></svg>