<svg width="82" height="81" xmlns="http://www.w3.org/2000/svg" xmlns:xlink="http://www.w3.org/1999/xlink" xml:space="preserve" overflow="hidden"><g transform="translate(-1030 -124)"><g><g><g><g><path d="M1031 125 1111 125 1111 205 1031 205Z" fill="#DD344C" fill-rule="nonzero" fill-opacity="1"/><path d="M1050.5 175.636 1048.71 176.534C1043.48 166.132 1046.24 152.776 1055.13 145.466 1063.36 138.703 1075.84 138.252 1085.16 144.088L1083.97 138.504 1085.92 138.087 1087.64 146.152C1087.7 146.411 1087.65 146.682 1087.5 146.904 1087.36 147.127 1087.13 147.283 1086.87 147.338L1078.81 149.058 1078.39 147.102 1084.22 145.859C1075.6 140.382 1064.02 140.755 1056.4 147.011 1048.21 153.743 1045.67 166.048 1050.5 175.636ZM1093.31 153.116 1091.52 154.015C1096.41 163.725 1093.92 175.726 1085.62 182.552 1077.99 188.825 1067.24 189.249 1058.79 183.827L1064.63 182.583 1064.21 180.627 1056.15 182.347C1055.89 182.402 1055.66 182.558 1055.52 182.781 1055.37 183.003 1055.32 183.274 1055.38 183.533L1057.1 191.598 1059.05 191.181 1057.86 185.606C1067.02 191.397 1078.62 190.892 1086.89 184.097 1095.91 176.683 1098.61 163.653 1093.31 153.116ZM1083.39 152.362C1083.76 152.519 1084 152.881 1084 153.282L1084 167.82C1084 167.961 1083.85 181.994 1071 181.994 1058.15 181.994 1058 167.923 1058 167.781L1058 153.282C1058 152.881 1058.24 152.519 1058.61 152.362L1070.61 147.249C1070.86 147.143 1071.14 147.143 1071.39 147.249L1083.39 152.362ZM1082 153.943 1071 149.256 1060 153.943 1060 167.781C1060 168.279 1060.16 179.994 1071 179.994 1081.84 179.994 1082 168.315 1082 167.818L1082 153.943ZM1071.39 151.597 1079.39 155.005C1079.76 155.163 1080 155.524 1080 155.925L1080 167.82C1079.95 172.52 1077.56 177.994 1071 177.994 1064.45 177.994 1062.06 172.486 1062 167.77L1062 155.925C1062 155.524 1062.24 155.163 1062.61 155.005L1070.61 151.597C1070.86 151.491 1071.14 151.491 1071.39 151.597ZM1070 175.931 1070 154.03 1064 156.586 1064 167.759C1064.02 169.576 1064.54 175.304 1070 175.931ZM1078 156.586 1072 154.03 1072 175.931C1077.46 175.309 1077.98 169.623 1078 167.808L1078 156.586Z" fill="#FFFFFF" fill-rule="nonzero" fill-opacity="1"/></g></g></g></g></g></svg>