<svg width="81" height="81" xmlns="http://www.w3.org/2000/svg" xmlns:xlink="http://www.w3.org/1999/xlink" xml:space="preserve" overflow="hidden"><g transform="translate(-313 -124)"><g><g><g><g><path d="M314 125 394 125 394 205 314 205Z" fill="#DD344C" fill-rule="evenodd" fill-opacity="1"/><path d="M372 160.999 372 174.999C372 175.346 371.821 175.667 371.528 175.848L359 183.643 359 181.288 370 174.443 370 162.79 359 169.559 359 167.21 370.476 160.147C370.785 159.958 371.171 159.949 371.488 160.126 371.804 160.303 372 160.637 372 160.999ZM338 174.44 349 181.21 349 183.559 336.476 175.852C336.18 175.669 336 175.346 336 174.999L336 160.999C336 160.637 336.196 160.303 336.512 160.126 336.829 159.949 337.215 159.958 337.524 160.147L349 167.21 349 169.559 338 162.79 338 174.44ZM365 172.975 354.489 178.871C354.337 178.958 354.169 178.999 354 178.999 353.828 178.999 353.656 178.956 353.502 178.867L343 172.827 343 170.521 354.006 176.85 365 170.682 365 172.975ZM355 190.219 355 183.999 353 183.999 353 190.219 332 177.438 332 152.661 353 164.581 353 168.999 355 168.999 355 164.581 376 152.661 376 177.438 355 190.219ZM354 139.146 374.968 150.947 354 162.85 333.032 150.947 354 139.146ZM377.49 150.072 354.49 137.128C354.186 136.958 353.814 136.958 353.51 137.128L330.51 150.072C330.194 150.249 330 150.583 330 150.943L330 177.999C330 178.348 330.182 178.673 330.48 178.854L353.48 192.854C353.64 192.951 353.82 192.999 354 192.999 354.18 192.999 354.36 192.951 354.52 192.854L377.52 178.854C377.818 178.673 378 178.348 378 177.999L378 150.943C378 150.583 377.806 150.249 377.49 150.072Z" fill="#FFFFFF" fill-rule="evenodd" fill-opacity="1"/></g></g></g></g></g></svg>