<svg width="49" height="49" xmlns="http://www.w3.org/2000/svg" xmlns:xlink="http://www.w3.org/1999/xlink" xml:space="preserve" overflow="hidden"><g transform="translate(-901 -408)"><g><g><g><g><path d="M924.841 424.374 923.78 422.679C925.463 421.626 927.32 420.947 929.299 420.663L929.584 422.642C927.882 422.887 926.286 423.47 924.841 424.374ZM923.536 425.316C920.863 427.528 919.245 430.773 919.099 434.222L917.101 434.137C917.272 430.124 919.153 426.347 922.261 423.775L923.536 425.316ZM924.809 431.862C924.408 432.858 924.279 433.951 924.433 435.021L922.452 435.306C922.248 433.887 922.422 432.438 922.953 431.116L924.809 431.862ZM925.381 430.768 923.711 429.667C924.992 427.723 927.048 426.417 929.353 426.085L929.638 428.065C927.9 428.315 926.348 429.3 925.381 430.768ZM925 439.994 910.956 439.994C909.782 439.994 908.928 439.55 908.314 439.163 906.704 438.152 904 435.785 904 431.301 904 425.985 907.541 423.953 909.727 423.205L909.695 422.677C909.694 418.207 912.668 413.636 916.613 411.986 921.221 410.045 926.107 411.005 929.678 414.562 930.724 415.601 931.594 416.853 932.275 418.298 933.692 417.245 935.549 416.91 937.275 417.482 939.521 418.224 940.934 420.255 941.147 422.987 943.461 423.571 947.971 425.47 947.971 431.37L947.972 431.671C947.974 432.122 947.977 432.863 947.97 433.019L945.972 432.931C945.979 432.785 945.974 432.099 945.972 431.681L945.971 431.37C945.971 426.354 941.787 425.093 939.987 424.783 939.718 424.737 939.479 424.582 939.326 424.354 939.181 424.136 939.126 423.871 939.174 423.615 939.146 421.443 938.229 419.903 936.647 419.381 935.218 418.907 933.637 419.417 932.722 420.651 932.503 420.948 932.134 421.096 931.773 421.045 931.407 420.991 931.103 420.74 930.978 420.393 930.342 418.62 929.43 417.135 928.267 415.98 926.838 414.557 922.917 411.496 917.388 413.83 914.194 415.166 911.694 419.025 911.694 422.617L911.771 423.877C911.8 424.357 911.484 424.789 911.017 424.907 909.144 425.379 906 426.838 906 431.301 906 434.646 907.838 436.502 909.379 437.47 909.978 437.848 910.419 437.994 910.956 437.994L925 437.994 925 439.994ZM937.767 451.779 939.767 451.779C939.767 453.541 938.333 454.975 936.57 454.975 934.808 454.975 933.374 453.541 933.374 451.779L935.374 451.779C935.374 452.438 935.911 452.975 936.57 452.975 937.23 452.975 937.767 452.438 937.767 451.779ZM946 447.773C946 448.446 945.452 448.994 944.779 448.994L928.221 448.994C927.548 448.994 927 448.446 927 447.773L927 447.215C927 446.542 927.548 445.994 928.221 445.994L944.779 445.994C945.452 445.994 946 446.542 946 447.215L946 447.773ZM930 438.155C930 434.936 931.503 432.608 934.021 431.93 934.457 431.812 934.761 431.416 934.761 430.964L934.761 428.879C934.761 428.533 934.961 428.203 935.311 427.976 936.017 427.517 936.643 427.73 936.952 427.898 937.447 428.166 937.715 428.612 937.715 428.895L937.715 430.763C937.715 431.23 938.038 431.635 938.493 431.738 941.274 432.37 943 434.876 943 438.28L943 443.994 930 443.994 930 438.155ZM945 444.016 945 438.28C945 434.205 942.996 431.108 939.715 430.006L939.715 428.895C939.715 427.818 939.005 426.736 937.906 426.14 936.732 425.503 935.353 425.561 934.22 426.299 933.307 426.894 932.761 427.858 932.761 428.879L932.761 430.239C929.764 431.383 928 434.285 928 438.155L928 443.994 928.221 443.994C926.445 443.994 925 445.439 925 447.215L925 447.773C925 449.549 926.445 450.994 928.221 450.994L944.779 450.994C946.556 450.994 948 449.549 948 447.773L948 447.215C948 445.515 946.672 444.132 945 444.016Z" fill="#E7157B" fill-rule="evenodd" fill-opacity="1"/></g></g></g></g></g></svg>