<svg width="80" height="80" viewBox="0 0 80 80" xmlns="http://www.w3.org/2000/svg" xmlns:xlink="http://www.w3.org/1999/xlink" overflow="hidden"><g id="Icon-Architecture/64/Arch_AWS-Wavelength_64" stroke="none" stroke-width="1" fill="none" fill-rule="evenodd"><g id="Icon-Architecture-BG/64/Compute" fill="#ED7100"><rect x="0" y="0" width="80" height="80" id="Rectangle"/></g><path d="M40 60.3862C38.408 60.3862 36.854 60.2219 35.354 59.9104L39.498 42.8089 41.479 51.3471C41.479 51.3481 41.477 51.3501 41.475 51.3511L41.484 51.3642 43.515 60.1151C42.368 60.2935 41.195 60.3862 40 60.3862L40 60.3862ZM25.467 39.0973 31.51 39.0973C31.75 44.0276 33.048 48.4368 35.059 51.1495 29.845 49.3431 26.096 44.6597 25.467 39.0973L25.467 39.0973ZM35.064 23.7367C34.05 25.1036 33.208 26.9181 32.591 29.039 31.279 28.7305 30.061 28.3374 28.972 27.8616 30.601 26.0008 32.69 24.5653 35.064 23.7367L35.064 23.7367ZM50.47 27.782C49.402 28.2628 48.195 28.657 46.904 28.9755 46.288 26.8828 45.454 25.0895 44.449 23.7367 46.789 24.5532 48.852 25.9594 50.47 27.782L50.47 27.782ZM44.439 51.1616C46.434 48.462 47.759 44.0468 48.003 39.0973L54.045 39.0973C53.403 44.6335 49.612 49.3552 44.439 51.1616L44.439 51.1616ZM46 39.0973C45.775 43.3603 44.699 47.205 43.121 49.5699L40.691 39.0973 46 39.0973ZM48.04 37.0812C48.018 34.8897 47.797 32.8111 47.401 30.9241 48.987 30.5319 50.448 30.0208 51.73 29.4009 53.195 31.6105 54.064 34.2466 54.133 37.0812L48.04 37.0812ZM39.757 22.9292C41.712 22.9292 43.75 25.3516 44.959 29.3828 43.269 29.67 41.469 29.8263 39.621 29.8263 37.868 29.8263 36.154 29.6902 34.54 29.4311 35.748 25.3707 37.794 22.9292 39.757 22.9292L39.757 22.9292ZM34.049 31.3878C35.823 31.6841 37.702 31.8424 39.621 31.8424 41.635 31.8424 43.602 31.663 45.454 31.3384 45.809 33.05 46.019 34.9804 46.041 37.0812L33.473 37.0812C33.495 35.0006 33.7 33.0873 34.049 31.3878L34.049 31.3878ZM25.381 37.0812C25.448 34.2909 26.295 31.6942 27.72 29.5057 29.021 30.1136 30.501 30.6106 32.099 30.9896 31.712 32.8595 31.496 34.9139 31.474 37.0812L25.381 37.0812ZM35.968 48.8774C34.608 46.4712 33.715 42.943 33.513 39.0973L38.339 39.0973 35.968 48.8774ZM65 37.2012C65 34.1448 64.463 31.1569 63.403 28.3203L61.532 29.0309C62.506 31.6388 63 34.3877 63 37.2012 63 48.083 55.522 57.2341 45.476 59.7169L44.008 53.3914C51.043 51.4781 56.151 44.9299 56.151 37.4401 56.151 28.3273 48.797 20.9131 39.757 20.9131 30.717 20.9131 23.362 28.3273 23.362 37.4401 23.362 44.7706 28.121 51.1132 34.916 53.221L33.414 59.4135C23.932 56.5506 17 47.6788 17 37.2012 17 24.4171 27.317 14.0161 40 14.0161 45.562 14.0161 50.805 15.9898 54.969 19.6027L50.286 19.6027 50.286 21.6188 58.143 21.6188 58.143 13.6996 56.143 13.6996 56.143 17.9606C51.638 14.1028 45.989 12 40 12 26.215 12 15 23.3052 15 37.2012 15 48.6253 22.583 58.2925 32.939 61.3721L31.449 67.5212 33.393 68 34.879 61.8691C36.532 62.2168 38.245 62.4023 40 62.4023 41.352 62.4023 42.677 62.2904 43.971 62.0808L45.342 67.9899 47.289 67.5313 45.932 61.6796C56.861 58.9881 65 49.0376 65 37.2012L65 37.2012Z" id="AWS-Wavelength_Icon_64_Squid" fill="#FFFFFF"/></g></svg>