<svg width="82" height="80" xmlns="http://www.w3.org/2000/svg" xmlns:xlink="http://www.w3.org/1999/xlink" xml:space="preserve" overflow="hidden"><g transform="translate(-1030 -124)"><g><g><g><g><path d="M1031 124 1111 124 1111 204 1031 204Z" fill="#DD344C" fill-rule="evenodd" fill-opacity="1"/><path d="M1064 149 1078 149 1078 143.25C1078 140.502 1075.26 138 1072.25 138L1069.75 138C1066.74 138 1064 140.502 1064 143.25L1064 149ZM1083 151 1059 151C1058.45 151 1058 151.449 1058 152L1058 172C1058 172.551 1058.45 173 1059 173L1083 173C1083.55 173 1084 172.551 1084 172L1084 152C1084 151.449 1083.55 151 1083 151ZM1062 149 1062 143.25C1062 139.388 1065.62 136 1069.75 136L1072.25 136C1076.38 136 1080 139.388 1080 143.25L1080 149 1083 149C1084.65 149 1086 150.346 1086 152L1086 172C1086 173.654 1084.65 175 1083 175L1059 175C1057.35 175 1056 173.654 1056 172L1056 152C1056 150.346 1057.35 149 1059 149L1062 149ZM1070.21 168.457 1081.46 157.207 1080.04 155.793 1068.79 167.043 1070.21 168.457ZM1073.96 157.207 1072.54 155.793 1061.29 167.043 1062.71 168.457 1073.96 157.207ZM1097 149.314 1097 179.188C1097 181.722 1094.91 183.943 1092.53 183.943L1068.05 183.998 1068 191.006C1068 191.41 1067.75 191.772 1067.38 191.925 1067.26 191.976 1067.13 192 1067 192 1066.74 192 1066.48 191.898 1066.29 191.707L1058.58 183.998 1049.56 183.944C1046.92 183.944 1045.06 182.355 1045.06 180.081L1045 149.066C1045 146.747 1046.93 145 1049.49 145L1060 145 1060 147 1049.49 147C1048.25 147 1047 147.709 1047 149.064L1047.06 180.079C1047.06 181.854 1049.15 181.944 1049.57 181.944L1059.01 182C1059.27 182.001 1059.52 182.107 1059.71 182.293L1066.02 188.602 1066.05 182.994C1066.06 182.444 1066.5 182.001 1067.05 182L1092.52 181.943C1093.92 181.943 1095 180.462 1095 179.188L1095 149.314C1095 148.038 1093.88 147 1092.51 147L1082 147 1082 145 1092.51 145C1094.99 145 1097 146.935 1097 149.314Z" fill="#FFFFFF" fill-rule="evenodd" fill-opacity="1"/></g></g></g></g></g></svg>