<svg width="90" height="90" viewBox="0 0 90 90" xmlns="http://www.w3.org/2000/svg" xmlns:xlink="http://www.w3.org/1999/xlink" overflow="hidden"><g id="Icon-Architecture-Category/64/Business-Applications_64" stroke="none" stroke-width="1" fill="none" fill-rule="evenodd"><rect x="5" y="5" width="80" height="80" id="Rectangle" fill="#DD344C"/><rect x="1" y="1" width="88" height="88" id="#879196-Border-Copy-4" stroke="#879196" stroke-width="2"/><g id="Icon-Category/64/Business-Application_64" fill="#FFFFFF" transform="translate(17 17)"><path d="M48.5862 54 7.41419 54 3.41419 50 52.5862 50 48.5862 54ZM6.00019 24.826C6.00019 23.819 6.81919 23 7.82619 23L12.0002 23 12.0002 48 6.00019 48 6.00019 24.826ZM17.0002 18C17.5532 18 18.0002 17.552 18.0002 17L18.0002 11 23.0002 11 23.0002 48 14.0002 48 14.0002 18 17.0002 18ZM25.0002 48 31.0002 48 31.0002 7 25.0002 7 25.0002 48ZM38.0002 11 38.0002 17C38.0002 17.552 38.4472 18 39.0002 18L42.0002 18 42.0002 48 33.0002 48 33.0002 11 38.0002 11ZM48.1742 23C49.1812 23 50.0002 23.819 50.0002 24.826L50.0002 48 44.0002 48 44.0002 23 48.1742 23ZM55.9242 48.617C55.7702 48.244 55.4042 48 55.0002 48L52.0002 48 52.0002 24.826C52.0002 22.716 50.2832 21 48.1742 21L44.0002 21 44.0002 17C44.0002 16.448 43.5532 16 43.0002 16L40.0002 16 40.0002 10C40.0002 9.448 39.5532 9 39.0002 9L33.0002 9 33.0002 6C33.0002 5.448 32.5532 5 32.0002 5L29.0002 5 29.0002 0 27.0002 0 27.0002 5 24.0002 5C23.4472 5 23.0002 5.448 23.0002 6L23.0002 9 17.0002 9C16.4472 9 16.0002 9.448 16.0002 10L16.0002 16 13.0002 16C12.4472 16 12.0002 16.448 12.0002 17L12.0002 21 7.82619 21C5.71719 21 4.00019 22.716 4.00019 24.826L4.00019 48 1.00019 48C0.596189 48 0.231189 48.244 0.0761893 48.617-0.0788107 48.991 0.00718926 49.421 0.293189 49.707L6.29319 55.707C6.48119 55.895 6.73419 56 7.00019 56L49.0002 56C49.2662 56 49.5202 55.895 49.7072 55.707L55.7072 49.707C55.9932 49.421 56.0792 48.991 55.9242 48.617L55.9242 48.617Z" id="Business-Application_Category-Icon_64_Squid--"/></g></g></svg>