<svg width="90" height="90" viewBox="0 0 90 90" xmlns="http://www.w3.org/2000/svg" xmlns:xlink="http://www.w3.org/1999/xlink" overflow="hidden"><g id="Icon-Architecture-Category/64/Application-Integration_64" stroke="none" stroke-width="1" fill="none" fill-rule="evenodd"><rect x="5" y="5" width="80" height="80" id="Rectangle" fill="#E7157B"/><rect x="1" y="1" width="88" height="88" id="#879196-Border" stroke="#879196" stroke-width="2"/><g id="Icon-Category/64/Application-Integration_64" fill="#FFFFFF" transform="translate(17 17)"><path d="M54 27 45.385 27C45.796 26.171 46.013 25.254 46.013 24.302 46.013 22.255 44.996 20.353 43.293 19.213 41.553 18.048 39.389 17.861 37.36 18.698 35.992 19.261 34.878 20.371 34.303 21.741 33.553 23.532 33.61 25.413 34.399 27L28 27 28 17.154C28 16.746 27.751 16.378 27.372 16.226 26.991 16.075 26.559 16.168 26.276 16.464 25.319 17.467 23.564 18.232 21.514 17.373 20.628 17.001 19.911 16.282 19.547 15.398 18.968 13.995 19.088 12.516 19.875 11.339 20.644 10.192 21.924 9.508 23.302 9.508 24.431 9.508 25.486 9.964 26.276 10.792 26.559 11.087 26.991 11.181 27.372 11.029 27.751 10.877 28 10.51 28 10.101L28 2 53 2C53.552 2 54 2.449 54 3L54 27ZM54 53C54 53.551 53.552 54 53 54L28 54 28 45.479C29.587 46.268 31.467 46.326 33.26 45.574 34.629 45 35.738 43.887 36.303 42.518 37.14 40.487 36.951 38.324 35.786 36.583 34.646 34.881 32.745 33.865 30.698 33.865 29.746 33.865 28.829 34.082 28 34.494L28 29 36.366 29C36.775 29 37.143 28.751 37.295 28.372 37.446 27.992 37.353 27.559 37.057 27.276 36.054 26.32 35.288 24.566 36.147 22.514 36.52 21.627 37.239 20.911 38.122 20.546 39.525 19.97 41.004 20.088 42.181 20.875 43.328 21.643 44.013 22.924 44.013 24.302 44.013 25.431 43.557 26.487 42.729 27.276 42.433 27.558 42.339 27.992 42.49 28.372 42.643 28.751 43.01 29 43.419 29L54 29 54 53ZM2 53 2 29 8.042 29C7.253 30.587 7.196 32.469 7.946 34.26 8.521 35.629 9.635 36.739 11.003 37.302 11.84 37.647 12.699 37.819 13.543 37.819 14.745 37.819 15.914 37.471 16.937 36.787 18.64 35.647 19.656 33.745 19.656 31.698 19.656 30.746 19.439 29.829 19.027 29L26 29 26 36.458C26 36.867 26.249 37.235 26.628 37.387 27.008 37.539 27.441 37.444 27.724 37.149 28.514 36.321 29.57 35.865 30.698 35.865 32.076 35.865 33.356 36.549 34.125 37.696 34.912 38.873 35.032 40.352 34.453 41.755 34.089 42.639 33.372 43.358 32.486 43.729 30.433 44.589 28.68 43.824 27.724 42.821 27.441 42.525 27.008 42.431 26.628 42.583 26.249 42.735 26 43.103 26 43.511L26 54 3 54C2.448 54 2 53.551 2 53L2 53ZM3 2 26 2 26 8.136C25.171 7.725 24.254 7.508 23.302 7.508 21.255 7.508 19.354 8.524 18.214 10.227 17.049 11.967 16.86 14.13 17.697 16.161 18.262 17.53 19.371 18.644 20.74 19.217 22.532 19.967 24.412 19.91 26 19.122L26 27 17.062 27C16.653 27 16.286 27.249 16.134 27.628 15.982 28.008 16.076 28.441 16.372 28.724 17.2 29.514 17.656 30.57 17.656 31.698 17.656 33.076 16.972 34.357 15.824 35.125 14.648 35.913 13.169 36.034 11.765 35.453 10.882 35.089 10.162 34.373 9.791 33.487 8.931 31.435 9.696 29.681 10.699 28.724 10.995 28.441 11.089 28.007 10.937 27.628 10.785 27.249 10.418 27 10.009 27L2 27 2 3C2 2.449 2.448 2 3 2L3 2ZM53 0 3 0C1.346 0 0 1.346 0 3L0 53C0 54.654 1.346 56 3 56L53 56C54.654 56 56 54.654 56 53L56 3C56 1.346 54.654 0 53 0L53 0Z" id="Application-Integration_Category-Icon_64_Squid--"/></g></g></svg>