<svg width="90" height="90" viewBox="0 0 90 90" xmlns="http://www.w3.org/2000/svg" xmlns:xlink="http://www.w3.org/1999/xlink" overflow="hidden"><g id="Icon-Architecture-Category/64/Database_64" stroke="none" stroke-width="1" fill="none" fill-rule="evenodd"><rect x="5" y="5" width="80" height="80" id="Rectangle" fill="#C925D1"/><rect x="1" y="1" width="88" height="88" id="#879196-Border-Copy-8" stroke="#879196" stroke-width="2"/><g id="Icon-Category/64/Database_64" fill="#FFFFFF" transform="translate(26 17)"><path d="M19 27.982C8.981 27.982 2 24.822 2 21.986L2 11.667C5.057 14.275 11.357 15.991 19 15.991 26.643 15.991 32.943 14.275 36 11.667L36 21.986C36 24.822 29.019 27.982 19 27.982M19 41.727C8.981 41.727 2 38.567 2 35.732L2 25.658C5.057 28.267 11.357 29.982 19 29.982 26.643 29.982 32.943 28.267 36 25.658L36 35.732C36 38.567 29.019 41.727 19 41.727M19 54C8.981 54 2 50.84 2 48.004L2 39.403C5.057 42.012 11.357 43.727 19 43.727 26.643 43.727 32.943 42.012 36 39.403L36 48.004C36 50.84 29.019 54 19 54M19 2C29.019 2 36 5.16 36 7.996 36 10.831 29.019 13.991 19 13.991 8.981 13.991 2 10.831 2 7.996 2 5.16 8.981 2 19 2M19 0C8.168 0 0 3.438 0 7.996L0 48.004C0 52.563 8.168 56 19 56 29.832 56 38 52.563 38 48.004L38 7.996C38 3.438 29.832 0 19 0" id="Database_Category-Icon_64_Squid--"/></g></g></svg>