<svg width="90" height="90" viewBox="0 0 90 90" xmlns="http://www.w3.org/2000/svg" xmlns:xlink="http://www.w3.org/1999/xlink" overflow="hidden"><g id="Icon-Architecture-Category/64/Internet-of-Things_64" stroke="none" stroke-width="1" fill="none" fill-rule="evenodd"><rect x="5" y="5" width="80" height="80" id="Rectangle" fill="#7AA116"/><rect x="1" y="1" width="88" height="88" id="#879196-Border-Copy-12" stroke="#879196" stroke-width="2"/><g id="Icon-Category/64/IoT_64" fill="#FFFFFF" transform="translate(17 17)"><path d="M47.571 34.048C44.026 34.048 41.142 31.164 41.142 27.619 41.142 24.074 44.026 21.191 47.571 21.191 51.116 21.191 54 24.074 54 27.619 54 31.164 51.116 34.048 47.571 34.048M35 47.676 35 29 39.265 29C39.905 32.853 43.159 35.823 47.14 36.026 44.899 41.547 40.44 45.722 35 47.676M29 48.865 29 16.792C32.87 16.332 35.942 13.244 36.373 9.365 40.831 11.348 44.466 14.871 46.59 19.253 42.606 19.717 39.468 22.968 39.174 27L34 27C33.447 27 33 27.448 33 28L33 48.292C31.706 48.613 30.366 48.8 29 48.865M23 48.292 23 28.119C23 27.575 22.564 27.131 22.019 27.119L16.827 27.016C16.539 22.977 13.398 19.718 9.41 19.253 11.534 14.871 15.169 11.348 19.627 9.365 20.057 13.244 23.13 16.332 27 16.792L27 48.865C25.634 48.8 24.294 48.613 23 48.292M8.859 36.026C12.836 35.824 16.087 32.845 16.731 29L21 29 21 47.676C15.559 45.722 11.1 41.547 8.859 36.026M2 27.619C2 24.074 4.883 21.191 8.428 21.191 11.973 21.191 14.857 24.074 14.857 27.619 14.857 31.164 11.973 34.048 8.428 34.048 4.883 34.048 2 31.164 2 27.619M28 2C31.545 2 34.428 4.884 34.428 8.429 34.428 11.973 31.545 14.857 28 14.857 24.455 14.857 21.571 11.973 21.571 8.429 21.571 4.884 24.455 2 28 2M56 27.619C56 23.393 52.87 19.894 48.808 19.292 46.445 13.809 41.971 9.409 36.42 7.187L36.352 7.355C35.822 3.214 32.283 0 28 0 23.717 0 20.177 3.214 19.647 7.355L19.58 7.187C14.028 9.409 9.554 13.809 7.191 19.292 3.13 19.894 0 23.393 0 27.619 0 31.66 2.86 35.044 6.662 35.859 9.068 42.602 14.423 47.675 21 49.802L21 56 23 56 23 50.34C24.3 50.632 25.636 50.806 27 50.865L27 56 29 56 29 50.865C30.363 50.806 31.7 50.632 33 50.34L33 56 35 56 35 49.802C41.577 47.675 46.931 42.602 49.338 35.859 53.139 35.044 56 31.66 56 27.619" id="IoT_Category-Icon_64_Squid--"/></g></g></svg>