<svg width="90" height="90" viewBox="0 0 90 90" xmlns="http://www.w3.org/2000/svg" xmlns:xlink="http://www.w3.org/1999/xlink" overflow="hidden"><g id="Icon-Architecture-Category/64/Analytics_64" stroke="none" stroke-width="1" fill="none" fill-rule="evenodd"><rect x="5" y="5" width="80" height="80" id="Rectangle" fill="#8C4FFF"/><rect x="1" y="1" width="88" height="88" id="#879196-Border" stroke="#879196" stroke-width="2"/><g id="Icon-Category/64/Analytics_64" fill="#FFFFFF" transform="translate(17 23)"><path d="M44.0001 9 44.0001 17 42.0001 17 42.0001 11.536 30.7591 24.651C30.5821 24.857 30.3291 24.982 30.0591 24.999 29.7821 25.008 29.5211 24.918 29.3211 24.735L23.5271 19.387 13.2071 29.707 11.7931 28.293 22.7931 17.293C23.1721 16.913 23.7841 16.901 24.1791 17.265L29.9161 22.562 40.6841 10 35.0001 10 35.0001 8 43.0001 8C43.5531 8 44.0001 8.448 44.0001 9L44.0001 9ZM49.4851 42 6.51513 42 2.94313 37 5.00013 37 51.0001 37 53.0571 37 49.4851 42ZM6.00013 3.912C6.00013 2.857 6.91713 2 8.04413 2L47.9561 2C49.0831 2 50.0001 2.857 50.0001 3.912L50.0001 35 6.00013 35 6.00013 3.912ZM55.8901 35.542C55.7181 35.209 55.3751 35 55.0001 35L52.0001 35 52.0001 3.912C52.0001 1.755 50.1861 0 47.9561 0L8.04413 0C5.81413 0 4.00013 1.755 4.00013 3.912L4.00013 35 1.00013 35C0.62513 35 0.28213 35.209 0.11013 35.542-0.06087 35.875-0.03087 36.276 0.18713 36.581L5.18713 43.581C5.37413 43.844 5.67713 44 6.00013 44L50.0001 44C50.3231 44 50.6261 43.844 50.8131 43.581L55.8131 36.581C56.0311 36.276 56.0611 35.875 55.8901 35.542L55.8901 35.542Z" id="Analytics_Category-Icon_64_Squid-"/></g></g></svg>