<svg width="90" height="90" viewBox="0 0 90 90" xmlns="http://www.w3.org/2000/svg" xmlns:xlink="http://www.w3.org/1999/xlink" overflow="hidden"><g id="Icon-Architecture-Category/64/End-User-Computing_64" stroke="none" stroke-width="1" fill="none" fill-rule="evenodd"><rect x="5" y="5" width="80" height="80" id="Rectangle" fill="#01A88D"/><rect x="1" y="1" width="88" height="88" id="#879196-Border-Copy-10" stroke="#879196" stroke-width="2"/><g id="Icon-Category/64/End-User-Computing_64" fill="#FFFFFF" transform="translate(17 17)"><path d="M40.4336 51 47.4336 51 47.4336 49 40.4336 49 40.4336 51ZM5.43362 3.926C5.43362 2.864 6.38462 2 7.55462 2L49.3126 2C50.4826 2 51.4336 2.864 51.4336 3.926L51.4336 8 53.4336 8 53.4336 3.926C53.4336 1.761 51.5846 0 49.3126 0L7.55462 0C5.28262 0 3.43362 1.761 3.43362 3.926L3.43362 36 0.999618 36C0.612618 36 0.258618 36.225 0.0946179 36.576-0.0703821 36.927-0.0163821 37.342 0.231618 37.64L5.23162 43.64C5.42162 43.868 5.70362 44 5.99962 44L28.4336 44 28.4336 42 6.46862 42 3.13462 38 28.4336 38 28.4336 36 5.43362 36 5.43362 3.926ZM32.4336 54 54.4346 54 54.4346 46 32.4336 46 32.4336 54ZM32.4336 12 32.4336 44 54.4346 44 54.4336 12 32.4336 12ZM56.4336 12 56.4336 54C56.4336 55.103 55.5366 56 54.4336 56L32.4336 56C31.3306 56 30.4336 55.103 30.4336 54L30.4336 12C30.4336 10.897 31.3306 10 32.4336 10L54.4336 10C55.5366 10 56.4336 10.897 56.4336 12L56.4336 12ZM39.8866 21.678C41.1716 22.769 41.1906 24.517 41.1966 24.517 41.1966 24.517 41.1976 24.517 41.1976 24.517 41.1536 24.816 41.2486 25.12 41.4546 25.341 41.6626 25.563 41.9576 25.684 42.2616 25.657 42.2936 25.656 45.3896 25.447 46.9916 26.937 47.6246 27.526 47.9336 28.309 47.9336 29.33 47.9336 31.182 45.8586 33 43.7436 33L34.4336 33 34.4336 35 43.7436 35C46.9836 35 49.9336 32.297 49.9336 29.33 49.9336 27.741 49.3996 26.441 48.3456 25.465 46.7716 24.007 44.4236 23.701 43.1026 23.653 42.9396 22.71 42.4966 21.391 41.3986 20.349 39.7936 18.828 37.3786 18.375 34.2066 19.01L34.5996 20.971C36.9916 20.494 38.7706 20.731 39.8866 21.678L39.8866 21.678ZM17.4306 17.763C17.4306 18.285 17.5316 18.812 17.7376 19.375 17.8656 19.726 17.7876 20.119 17.5356 20.395 17.2826 20.67 16.9006 20.782 16.5366 20.684 16.0516 20.552 15.6476 20.491 15.2636 20.491 12.6006 20.491 10.4336 22.628 10.4336 25.254 10.4336 27.88 12.6006 30.017 15.2636 30.017L28.4326 30 28.4336 32 15.4336 32C11.6656 32 8.43362 28.983 8.43362 25.254 8.43362 21.455 11.6096 18.362 15.4756 18.495 15.4456 18.249 15.4306 18.005 15.4306 17.763 15.4306 14.097 18.6376 11 22.4336 11 26.1626 11 29.4336 14.271 29.4336 18L27.4336 18C27.4336 15.336 25.0966 13 22.4336 13 19.7216 13 17.4306 15.181 17.4306 17.763L17.4306 17.763Z" id="End-User-Computing_Category-Icon_64_Squid--"/></g></g></svg>