<svg width="90" height="90" viewBox="0 0 90 90" xmlns="http://www.w3.org/2000/svg" xmlns:xlink="http://www.w3.org/1999/xlink" overflow="hidden"><g id="Icon-Architecture-Category/64/Containers_64" stroke="none" stroke-width="1" fill="none" fill-rule="evenodd"><rect x="5" y="5" width="80" height="80" id="Rectangle" fill="#ED7100"/><rect x="1" y="1" width="88" height="88" id="#879196-Border-Copy-6" stroke="#879196" stroke-width="2"/><g id="Icon-Category/64/Containers_64" fill="#FFFFFF" transform="translate(17 16)"><path d="M4 49 52 49 52 30 4 30 4 49ZM2 54 54 54 54 51 2 51 2 54ZM54 30 54 49 55 49C55.553 49 56 49.448 56 50L56 55C56 55.552 55.553 56 55 56L1 56C0.447 56 0 55.552 0 55L0 50C0 49.448 0.447 49 1 49L2 49 2 30 1 30C0.447 30 0 29.552 0 29L0 24C0 23.478 0.404 23.062 0.915 23.017L21.47 10.152 22.53 11.848 4.712 23 37 23 37 25 2 25 2 28 54 28 54 25 40 25 40 23 51.288 23 33.47 11.848 34.53 10.152 55.085 23.017C55.596 23.062 56 23.478 56 24L56 29C56 29.552 55.553 30 55 30L54 30ZM28 12C30.206 12 32 10.206 32 8L30 8C30 9.103 29.103 10 28 10 26.897 10 26 9.103 26 8 26 6.897 26.897 6 28 6 28.553 6 29 5.552 29 5L29 0 27 0 27 4.126C25.276 4.572 24 6.14 24 8 24 10.206 25.794 12 28 12L28 12ZM9 46 11 46 11 33 9 33 9 46ZM15 46 17 46 17 33 15 33 15 46ZM21 46 23 46 23 33.143 21 33.143 21 46ZM45 46 47 46 47 33.143 45 33.143 45 46ZM39 46 41 46 41 33.143 39 33.143 39 46ZM33 46 35 46 35 33.143 33 33.143 33 46ZM27 46 29 46 29 33 27 33 27 46Z" id="Fill-1"/></g></g></svg>