<svg width="90" height="90" viewBox="0 0 90 90" xmlns="http://www.w3.org/2000/svg" xmlns:xlink="http://www.w3.org/1999/xlink" overflow="hidden"><g id="Icon-Architecture-Category/64/Networking-Content-Delivery_64" stroke="none" stroke-width="1" fill="none" fill-rule="evenodd"><rect x="5" y="5" width="80" height="80" id="Rectangle" fill="#8C4FFF"/><rect x="1" y="1" width="88" height="88" id="#879196-Border-Copy-18" stroke="#879196" stroke-width="2"/><g id="Icon-Category/64/Networking-Content-Delivery_64" fill="#FFFFFF" transform="translate(19 17)"><path d="M2 24.23C2.002 23.915 2.156 16.516 11.162 16.516 11.715 16.516 12.162 16.068 12.162 15.516 12.162 2.214 22.345 2.002 22.775 2 28.081 2 31.126 4.256 32.359 9.102 32.435 9.397 32.64 9.643 32.918 9.768 33.196 9.893 33.517 9.883 33.787 9.744 35.283 8.971 36.616 9.81 37.279 10.377 38.811 11.687 40.021 14.331 39.247 16.651 39.145 16.957 39.196 17.292 39.384 17.552 39.572 17.813 39.874 17.968 40.195 17.968 46.932 17.968 50 21.358 50 24.509 50 29.09 47.355 31.937 43.099 31.937L9.71 31.937C5.314 31.937 2 28.622 2 24.23L2 24.23ZM44.313 45.437C44.313 47.366 42.742 48.937 40.813 48.937 38.883 48.937 37.313 47.366 37.313 45.437 37.313 43.507 38.883 41.937 40.813 41.937 42.742 41.937 44.313 43.507 44.313 45.437L44.313 45.437ZM29.812 50.437C29.812 52.366 28.242 53.937 26.312 53.937 24.383 53.937 22.812 52.366 22.812 50.437 22.812 48.507 24.383 46.937 26.312 46.937 28.242 46.937 29.812 48.507 29.812 50.437L29.812 50.437ZM11.813 48.937C9.883 48.937 8.312 47.366 8.312 45.437 8.312 43.507 9.883 41.937 11.813 41.937 13.742 41.937 15.313 43.507 15.313 45.437 15.313 47.366 13.742 48.937 11.813 48.937L11.813 48.937ZM43.099 33.937C48.506 33.937 52 30.236 52 24.509 52 20.611 48.684 16.431 41.434 16.003 41.784 13.209 40.381 10.398 38.58 8.857 37.153 7.636 35.531 7.187 33.989 7.549 32.34 2.538 28.572 0 22.775 0 22.652 0 10.696 0.169 10.18 14.542 0.119 15.095 0 24.132 0 24.227 0 29.762 4.175 33.937 9.71 33.937L22.192 33.937 14.517 40.653C13.717 40.199 12.795 39.937 11.813 39.937 8.78 39.937 6.312 42.404 6.312 45.437 6.312 48.469 8.78 50.937 11.813 50.937 14.845 50.937 17.313 48.469 17.313 45.437 17.313 44.116 16.844 42.903 16.065 41.954L25.312 33.937 25.312 45.032C22.757 45.504 20.812 47.746 20.812 50.437 20.812 53.469 23.28 55.937 26.312 55.937 29.345 55.937 31.812 53.469 31.812 50.437 31.812 47.746 29.868 45.504 27.312 45.032L27.312 33.937 36.56 41.954C35.781 42.903 35.313 44.116 35.313 45.437 35.313 48.469 37.78 50.937 40.813 50.937 43.845 50.937 46.313 48.469 46.313 45.437 46.313 42.404 43.845 39.937 40.813 39.937 39.83 39.937 38.908 40.199 38.108 40.653L30.433 33.937 43.099 33.937Z" id="Networking-Content-Delivery_Category-Icon_64_Squid"/></g></g></svg>