<svg width="90" height="90" viewBox="0 0 90 90" xmlns="http://www.w3.org/2000/svg" xmlns:xlink="http://www.w3.org/1999/xlink" overflow="hidden"><g id="Icon-Architecture-Category/64/Developer-Tools_64" stroke="none" stroke-width="1" fill="none" fill-rule="evenodd"><rect x="5" y="5" width="80" height="80" id="Rectangle" fill="#C925D1"/><rect x="1" y="1" width="88" height="88" id="#879196-Border-Copy-9" stroke="#879196" stroke-width="2"/><g id="Icon-Category/64/Dev-Tools_64" fill="#FFFFFF" transform="translate(17 17)"><path d="M53.9785 47.9479C53.9785 47.4979 53.8035 47.0759 53.4855 46.7589L32.8745 26.1479C32.7455 26.0189 32.5755 25.9539 32.4045 25.9539 32.2345 25.9539 32.0645 26.0189 31.9345 26.1479L26.1485 31.9349C25.8885 32.1939 25.8885 32.6159 26.1485 32.8759L46.7575 53.4849C47.3945 54.1199 48.4995 54.1209 49.1375 53.4849L53.4855 49.1379C53.8025 48.8199 53.9785 48.3969 53.9785 47.9479L53.9785 47.9479ZM26.2215 29.0329 29.0335 26.2209 16.7245 13.8649C16.2595 13.3979 15.9085 12.8199 15.7075 12.1939L13.9165 6.61192C13.7295 6.02792 13.3025 5.54892 12.7455 5.29592L6.61748 2.51692C5.79748 2.14492 4.81948 2.32292 4.18248 2.95992L2.95848 4.18292C2.32348 4.81892 2.14548 5.79692 2.51748 6.61692L5.29548 12.7449C5.54848 13.3029 6.02848 13.7299 6.61148 13.9179L13.1525 16.0159 26.2215 29.0329ZM55.9785 47.9479C55.9785 48.9309 55.5945 49.8559 54.8995 50.5519L50.5515 54.8989C49.8335 55.6169 48.8905 55.9759 47.9485 55.9759 47.0045 55.9759 46.0615 55.6169 45.3435 54.8989L24.7345 34.2899C23.6955 33.2509 23.6955 31.5599 24.7345 30.5209L24.8065 30.4479 12.0825 17.7729 5.99948 15.8219C4.87948 15.4619 3.95948 14.6419 3.47348 13.5719L0.695482 7.44292C-0.0185183 5.86892 0.323482 3.98992 1.54448 2.76892L2.76848 1.54592C3.99248 0.322924 5.87348-0.0160759 7.44348 0.695924L13.5715 3.47392C14.6425 3.95992 15.4615 4.88092 15.8215 6.00092L17.6125 11.5829C17.7165 11.9089 17.9005 12.2099 18.1425 12.4529L30.4475 24.8069 30.5205 24.7339C31.5595 23.6959 33.2495 23.6939 34.2895 24.7339L54.8995 45.3439C55.5945 46.0389 55.9785 46.9639 55.9785 47.9479L55.9785 47.9479ZM29.1665 19.7489 36.6035 12.3119C36.8225 12.0939 36.9275 11.7859 36.8885 11.4789 36.5555 8.86692 37.4265 6.30792 39.2775 4.45692 41.4405 2.29292 44.5885 1.50492 47.4825 2.30592L42.3035 7.48392C41.5215 8.26592 41.0905 9.30492 41.0905 10.4109 41.0905 11.5169 41.5215 12.5569 42.3035 13.3389 43.0855 14.1209 44.1245 14.5519 45.2315 14.5519 46.3365 14.5519 47.3765 14.1209 48.1585 13.3389L53.3365 8.16092C54.1375 11.0479 53.3485 14.2009 51.1855 16.3649 49.3335 18.2159 46.7765 19.0869 44.1635 18.7549 43.8545 18.7129 43.5475 18.8209 43.3305 19.0399L37.6015 24.7679 39.0155 26.1819 44.4085 20.7899C47.4625 21.0369 50.4255 19.9529 52.5995 17.7799 55.7105 14.6679 56.5255 9.90492 54.6275 5.92692 54.4885 5.63392 54.2145 5.42692 53.8945 5.37192 53.5805 5.31692 53.2495 5.42092 53.0185 5.65092L46.7445 11.9249C45.9355 12.7329 44.5265 12.7329 43.7175 11.9249 43.3135 11.5199 43.0905 10.9829 43.0905 10.4109 43.0905 9.83992 43.3135 9.30192 43.7175 8.89792L49.9925 2.62392C50.2215 2.39492 50.3265 2.06792 50.2705 1.74792 50.2155 1.42792 50.0085 1.15492 49.7155 1.01492 45.7365-0.884076 40.9745-0.0680759 37.8635 3.04292 35.6895 5.21692 34.6075 8.17792 34.8525 11.2349L27.7515 18.3349 29.1665 19.7489ZM26.1825 39.0159 20.7905 44.4079C21.0355 47.4639 19.9535 50.4259 17.7795 52.5999 15.7875 54.5919 13.1175 55.6419 10.4115 55.6419 8.88948 55.6419 7.35848 55.3109 5.92648 54.6279 5.63348 54.4889 5.42648 54.2149 5.37248 53.8949 5.31648 53.5749 5.42048 53.2479 5.65048 53.0189L11.9245 46.7449C12.7585 45.9099 12.7585 44.5519 11.9245 43.7179 11.0905 42.8839 9.73148 42.8839 8.89748 43.7179L2.62448 49.9919C2.39348 50.2219 2.05948 50.3239 1.74848 50.2699 1.42748 50.2159 1.15448 50.0089 1.01448 49.7159-0.883518 45.7369-0.0685183 40.9739 3.04248 37.8639 5.21648 35.6899 8.17948 34.6089 11.2335 34.8529L18.8765 27.2099 20.2905 28.6239 12.3115 36.6029C12.0925 36.8219 11.7815 36.9249 11.4785 36.8879 8.86448 36.5519 6.30748 37.4269 4.45748 39.2779 2.29248 41.4409 1.50448 44.5939 2.30548 47.4819L7.48348 42.3039C9.09848 40.6899 11.7235 40.6899 13.3385 42.3039 14.9525 43.9179 14.9525 46.5449 13.3385 48.1589L8.16148 53.3369C11.0455 54.1389 14.2015 53.3499 16.3655 51.1859 18.2155 49.3349 19.0865 46.7749 18.7535 44.1639 18.7145 43.8569 18.8205 43.5499 19.0395 43.3309L24.7685 37.6019 26.1825 39.0159Z" id="Dev-Tools_Category-Icon_64_Squid--"/></g></g></svg>