<svg width="90" height="90" viewBox="0 0 90 90" xmlns="http://www.w3.org/2000/svg" xmlns:xlink="http://www.w3.org/1999/xlink" overflow="hidden"><g id="Icon-Architecture-Category/64/Compute_64" stroke="none" stroke-width="1" fill="none" fill-rule="evenodd"><rect x="5" y="5" width="80" height="80" id="Rectangle" fill="#ED7100"/><rect x="1" y="1" width="88" height="88" id="#879196-Border-Copy-5" stroke="#879196" stroke-width="2"/><g id="Icon-Category/64/Compute_64" fill="#FFFFFF" transform="translate(18 17)"><path d="M17 38 38 38 38 17 17 17 17 38ZM16 40 39 40C39.553 40 40 39.552 40 39L40 16C40 15.448 39.553 15 39 15L16 15C15.447 15 15 15.448 15 16L15 39C15 39.552 15.447 40 16 40L16 40ZM9 46 46 46 46 9 9 9 9 46ZM55 11 55 9 48 9 48 8C48 7.448 47.553 7 47 7L46 7 46 0 44 0 44 7 39 7 39 0 37 0 37 7 32 7 32 0 30 0 30 7 25 7 25 0 23 0 23 7 18 7 18 0 16 0 16 7 11 7 11 0 9 0 9 7 8 7C7.447 7 7 7.448 7 8L7 9 0 9 0 11 7 11 7 16 0 16 0 18 7 18 7 23 0 23 0 25 7 25 7 30 0 30 0 32 7 32 7 37 0 37 0 39 7 39 7 44 0 44 0 46 7 46 7 47C7 47.552 7.447 48 8 48L9 48 9 55 11 55 11 48 16 48 16 55 18 55 18 48 23 48 23 55 25 55 25 48 30 48 30 55 32 55 32 48 37 48 37 55 39 55 39 48 44 48 44 55 46 55 46 48 47 48C47.553 48 48 47.552 48 47L48 46 55 46 55 44 48 44 48 39 55 39 55 37 48 37 48 32 55 32 55 30 48 30 48 25 55 25 55 23 48 23 48 18 55 18 55 16 48 16 48 11 55 11Z" id="Fill-3"/></g></g></svg>