<svg width="90" height="90" viewBox="0 0 90 90" xmlns="http://www.w3.org/2000/svg" xmlns:xlink="http://www.w3.org/1999/xlink" overflow="hidden"><g id="Icon-Architecture-Category/64/Media-Services_64" stroke="none" stroke-width="1" fill="none" fill-rule="evenodd"><rect x="5" y="5" width="80" height="80" id="Rectangle" fill="#ED7100"/><rect x="1" y="1" width="88" height="88" id="#879196-Border-Copy-15" stroke="#879196" stroke-width="2"/><g id="Icon-Category/64/Media-Services_64" fill="#FFFFFF" transform="translate(17 23)"><path d="M28.875 21.854 14.613 30.431C14.439 30.545 14.285 30.491 14.208 30.451 14.131 30.409 14 30.308 14 30.103L14 12.999C14 12.793 14.131 12.692 14.209 12.65 14.248 12.629 14.309 12.605 14.386 12.605 14.46 12.605 14.55 12.627 14.652 12.695L28.836 21.222C28.989 21.324 29.012 21.472 29.012 21.551 29.012 21.629 28.989 21.777 28.875 21.854L28.875 21.854ZM29.906 19.533 15.723 11.006C14.986 10.516 14.046 10.469 13.265 10.887 12.484 11.305 12 12.114 12 12.999L12 30.103C12 30.987 12.484 31.796 13.265 32.214 13.624 32.406 14.018 32.5 14.405 32.5 14.86 32.5 15.308 32.371 15.684 32.12L29.945 23.543C30.613 23.098 31.012 22.354 31.012 21.551 31.012 20.749 30.613 20.003 29.906 19.533L29.906 19.533ZM54 33.605C54 33.823 53.823 34 53.605 34L50 34 50 10 53.605 10C53.823 10 54 10.176 54 10.394L54 33.605ZM43.535 26 38 26 38 40.21C38 41.197 37.163 42 36.135 42L3.865 42C2.837 42 2 41.197 2 40.21L2 3.789C2 2.802 2.837 2 3.865 2L36.135 2C37.163 2 38 2.802 38 3.789L38 18 43.535 18 48 11.302 48 32.697 43.535 26ZM53.605 8 50 8 48 8 47.798 8 42.465 16 40 16 40 3.789C40 1.7 38.266 0 36.135 0L3.865 0C1.734 0 0 1.7 0 3.789L0 40.21C0 42.299 1.734 44 3.865 44L36.135 44C38.266 44 40 42.299 40 40.21L40 28 42.465 28 47.798 36 53.605 36C54.926 36 56 34.925 56 33.605L56 10.394C56 9.074 54.926 8 53.605 8L53.605 8Z" id="Media-Services_Category-Icon_64_Squid"/></g></g></svg>