<svg width="90" height="90" viewBox="0 0 90 90" xmlns="http://www.w3.org/2000/svg" xmlns:xlink="http://www.w3.org/1999/xlink" overflow="hidden"><g id="Icon-Architecture-Category/64/Security-Identity-Compliance_64" stroke="none" stroke-width="1" fill="none" fill-rule="evenodd"><rect x="5" y="5" width="80" height="80" id="Rectangle" fill="#DD344C"/><rect x="1" y="1" width="88" height="88" id="#879196-Border-Copy-22" stroke="#879196" stroke-width="2"/><g id="Icon-Category/64/Security-Identity-Compliance_64" fill="#FFFFFF" transform="translate(24 17)"><path d="M40 33.1418C40 33.1958 39.964 38.5788 37.563 43.8577 34.417 50.7767 28.845 54.2858 21 54.2858 13.164 54.2858 7.593 50.5428 4.442 43.1618 2.035 37.5207 2 31.7708 2 31.7148L2 9.39375 21 2.07175 40 9.39375 40 33.1418ZM41.359 7.77375 21.359 0.06675C21.129-0.02225 20.871-0.02225 20.641 0.06675L0.641 7.77375C0.255 7.92275 0 8.29375 0 8.70675L0 31.7148C0 31.9597 0.24 56.2858 21 56.2858 41.76 56.2858 42 33.3737 42 33.1427L42 8.70675C42 8.29375 41.745 7.92275 41.359 7.77375L41.359 7.77375ZM35 33.1348C34.986 34.7458 34.495 48.5488 22 49.2518L22 7.81575 35 12.8258 35 33.1348ZM7 31.7148 7 12.8258 20 7.81575 20 49.2467C7.158 48.4507 7 32.4137 7 31.7148L7 31.7148ZM20.641 5.42575 5.641 11.2058C5.255 11.3547 5 11.7247 5 12.1388L5 31.7148C5 32.5137 5.182 51.2858 21 51.2858 27.384 51.2858 32.16 48.3498 34.813 42.7967 36.854 38.5228 36.993 34.0117 37 33.1427L37 12.1388C37 11.7247 36.745 11.3547 36.359 11.2058L21.359 5.42575C21.129 5.33675 20.871 5.33675 20.641 5.42575L20.641 5.42575Z" id="Security-Identity-Compliance_Category-Icon_64_Squid"/></g></g></svg>