<svg width="90" height="90" viewBox="0 0 90 90" xmlns="http://www.w3.org/2000/svg" xmlns:xlink="http://www.w3.org/1999/xlink" overflow="hidden"><g id="Icon-Architecture-Category/64/Machine-Learning_64" stroke="none" stroke-width="1" fill="none" fill-rule="evenodd"><rect x="5" y="5" width="80" height="80" id="Rectangle" fill="#01A88D"/><rect x="1" y="1" width="88" height="88" id="#879196-Border-Copy-13" stroke="#879196" stroke-width="2"/><g id="Icon-Category/64/Machine-Learning_64" fill="#FFFFFF" transform="translate(17 17)"><path d="M27 34.6075 27 27.1695 21.65 24.0665 22.654 22.3365 27 24.8565 27 4.63953 21.52 2.11053 16 4.89453 16 12.0005 14 12.0005 14 5.90253 9 8.42453 8.999 16.0645 15.003 19.4255 20.999 16.0985 20.999 8.00053 22.999 8.00053 22.999 16.6875C22.999 17.0505 22.802 17.3855 22.484 17.5615L16.001 21.1595 16 26.0005 22.477 29.7445C22.799 29.9195 22.999 30.2565 22.999 30.6225L22.999 36.9125 27 34.6075ZM27 36.9155 14.712 43.9945 13.714 42.2605 20.999 38.0645 20.999 31.2165 15.035 27.9735 8.363 31.8155 7.365 30.0825 14 26.2615 14.001 21.1565 8.029 17.8145 2.002 21.1595 2.001 25.6535 7.242 22.6345 8.24 24.3685 2.001 27.9615 2.002 33.4995 7.978 37.2045 13.985 33.7435 14.983 35.4765 9 39.0005 8.999 46.2545 14.394 49.5235 21.96 44.9855 22.989 46.7005 16.327 50.6955 21.563 53.8695 27 51.3605 27 36.9155ZM29 4.00053 29 52.0005C29 52.3905 28.773 52.7445 28.419 52.9085L21.919 55.9085C21.786 55.9695 21.643 56.0005 21.5 56.0005 21.32 56.0005 21.141 55.9515 20.981 55.8555L7.48 47.6725C7.182 47.4915 6.999 47.1675 6.999 46.8175L7 39.0005 0.475 34.9065C0.181 34.7235 0.002 34.4025 0.002 34.0565L0.002 33.4455C0.001 33.4255 0 33.4045 0 33.3845L0 21.2425C0 21.2225 0.001 21.2015 0.002 21.1815L0.002 20.5705C0.002 20.2075 0.199 19.8725 0.517 19.6955L6.999 16.0985 7 7.80953C7 7.43153 7.213 7.08653 7.55 6.91653L21.05 0.107531C21.322-0.030469 21.643-0.035469 21.919 0.091531L28.419 3.09153C28.773 3.25553 29 3.60953 29 4.00053L29 4.00053ZM55.91 32.9005C55.797 32.6495 55.585 32.4565 55.325 32.3665L51.886 31.1755C52.173 29.0285 52.168 26.8635 51.87 24.7175L55.306 23.5105C55.564 23.4195 55.775 23.2255 55.887 22.9735 55.999 22.7225 56.003 22.4365 55.896 22.1825L51.77 12.2805C51.664 12.0265 51.458 11.8275 51.201 11.7305 50.945 11.6335 50.658 11.6465 50.41 11.7665L47.124 13.3605C45.809 11.6395 44.276 10.1145 42.553 8.81053L44.133 5.51753C44.252 5.26953 44.264 4.98253 44.165 4.72653 44.066 4.46953 43.866 4.26453 43.612 4.15953L33.692 0.076531C33.438-0.027469 33.152-0.022469 32.9 0.089531 32.649 0.202531 32.457 0.414531 32.366 0.674531L30.897 4.91553 32.788 5.56953 33.91 2.32953 41.872 5.60653 40.39 8.69553C40.178 9.13653 40.316 9.66553 40.717 9.94653 42.766 11.3855 44.543 13.1545 45.997 15.2025 46.28 15.6005 46.809 15.7405 47.249 15.5235L50.331 14.0275 53.644 21.9745 50.422 23.1065C49.961 23.2685 49.685 23.7405 49.769 24.2215 50.2 26.6955 50.207 29.2055 49.786 31.6815 49.705 32.1635 49.983 32.6335 50.445 32.7935L53.67 33.9105 50.394 41.8715 47.313 40.3935C46.873 40.1815 46.343 40.3205 46.062 40.7195 44.623 42.7685 42.853 44.5455 40.8 46.0015 40.4 46.2845 40.265 46.8145 40.479 47.2535L41.973 50.3315 34.026 53.6435 32.893 50.4185 31.006 51.0815 32.49 55.3055C32.581 55.5655 32.775 55.7755 33.026 55.8875 33.156 55.9455 33.295 55.9745 33.434 55.9745 33.564 55.9745 33.695 55.9485 33.818 55.8975L43.72 51.7695C43.974 51.6645 44.173 51.4585 44.271 51.2005 44.367 50.9435 44.354 50.6575 44.234 50.4095L42.641 47.1285C44.365 45.8125 45.894 44.2795 47.198 42.5565L50.482 44.1325C50.73 44.2515 51.018 44.2645 51.273 44.1655 51.53 44.0665 51.735 43.8665 51.84 43.6125L55.923 33.6925C56.027 33.4375 56.022 33.1515 55.91 32.9005L55.91 32.9005ZM39 28.0005C39 23.5445 36.01 19.5875 31.728 18.3765L32.272 16.4515C37.411 17.9055 41 22.6545 41 28.0005 41 33.3535 37.404 38.1045 32.256 39.5525L31.715 37.6285C36.004 36.4205 39 32.4615 39 28.0005L39 28.0005Z" id="Machine-Learning_Category-Icon_64_Squid"/></g></g></svg>