<svg width="90" height="90" viewBox="0 0 90 90" xmlns="http://www.w3.org/2000/svg" xmlns:xlink="http://www.w3.org/1999/xlink" overflow="hidden"><g id="Icon-Architecture-Category/64/Serverless_64" stroke="none" stroke-width="1" fill="none" fill-rule="evenodd"><rect x="1" y="1" width="88" height="88" id="#879196-Border-Copy-22" stroke="#879196" stroke-width="2"/><rect x="5" y="5" width="80" height="80" id="Rectangle" fill="#8C4FFF"/><g id="Icon-Category/64/Serverless_64" fill="#FFFFFF" transform="translate(17 26)"><path d="M56.2512 26.005C56.2512 31.675 52.2562 37.416 44.6222 37.416 37.0752 37.416 32.2242 33.008 27.6882 28.303 27.5152 28.124 25.9682 26.44 25.7922 26.247 23.8922 24.167 22.0742 22.209 20.1222 20.575L20.1282 26.999 18.1282 27.001 18.1192 18.001C18.1182 17.449 18.5652 17.001 19.1182 17L28.1272 16.991 28.1292 18.991 21.3502 18.998C23.4412 20.741 25.3882 22.84 27.2692 24.898 27.3902 25.03 28.6212 26.359 28.9962 26.774 33.1442 31.354 37.8162 35.416 44.6222 35.416 51.2372 35.416 54.2512 30.538 54.2512 26.005 54.2512 21.773 51.5012 17.217 45.4642 17.217 38.5902 17.217 34.4952 20.628 30.7352 24.79 30.5522 24.58 30.3692 24.374 30.1862 24.162 29.9302 23.867 29.6682 23.572 29.4092 23.276 33.3412 18.962 37.8972 15.217 45.4642 15.217L45.4782 15.217C45.2492 12.099 43.3612 9 38.6262 9L37.7512 9C37.3882 9 37.0532 8.803 36.8762 8.484 34.6272 4.424 30.3742 2 25.5012 2 18.3332 2 12.5012 7.832 12.5012 15 12.5012 15.552 12.0542 16 11.5012 16 8.84721 16 6.38521 17.067 4.56821 19.005 2.75321 20.942 1.84921 23.474 2.02221 26.135 2.34421 31.106 6.66621 35 11.8612 35L13.9042 35C14.3882 35 14.8752 34.965 15.3542 34.895 16.3992 34.743 17.3342 34.468 18.1312 34.078 20.5692 32.883 22.5852 31.001 24.5342 28.858 24.6902 29.037 24.8452 29.212 25.0032 29.394 25.2852 29.719 25.5762 30.041 25.8612 30.367 23.8462 32.561 21.6592 34.576 19.0112 35.874 18.0262 36.356 16.8932 36.693 15.6412 36.875 15.0672 36.958 14.4832 37 13.9042 37L11.8612 37C5.61521 37 0.41621 32.284 0.0252103 26.265-0.18379 23.046 0.91221 19.982 3.10821 17.638 5.05321 15.563 7.71721 14.282 10.5312 14.042 11.0272 6.215 17.5522 0 25.5012 0 30.9042 0 35.6542 2.605 38.3262 7L38.6262 7C43.8462 7 47.2772 10.266 47.4902 15.367 53.4932 16.289 56.2512 21.309 56.2512 26.005" id="Serverless_64"/></g></g></svg>