<svg width="90" height="90" viewBox="0 0 90 90" xmlns="http://www.w3.org/2000/svg" xmlns:xlink="http://www.w3.org/1999/xlink" overflow="hidden"><g id="Icon-Architecture-Category/64/Storage_64" stroke="none" stroke-width="1" fill="none" fill-rule="evenodd"><rect x="5" y="5" width="80" height="80" id="Rectangle" fill="#7AA116"/><rect x="1" y="1" width="88" height="88" id="#879196-Border-Copy-23" stroke="#879196" stroke-width="2"/><g id="Icon-Category/64/Storage_64" fill="#FFFFFF" transform="translate(19 17)"><path d="M17 38 35 38 35.001 43 17 43 17 38ZM17 45 35 45C36.103 45 37 44.103 37 43L37 38C37 36.897 36.103 36 35 36L17 36C15.897 36 15 36.897 15 38L15 43C15 44.103 15.897 45 17 45L17 45ZM15 23 36 23 36 21 15 21 15 23ZM15 10 23 10 23 8 15 8 15 10ZM15 16 24 16 24 14 15 14 15 16ZM50 52.034C50 53.118 49.118 54 48.034 54L3.966 54C2.882 54 2 53.118 2 52.034L2 31 50 31 50 52.034ZM11 2 30 2 30 12C30 12.552 30.447 13 31 13L41 13 41 29 11 29 11 2ZM32 3.414 39.586 11 32 11 32 3.414ZM51 29 43 29 43 12 42.991 12C42.99 11.74 42.898 11.484 42.707 11.293L31.707 0.293C31.516 0.102 31.26 0.01 31 0.01L31 0 10 0C9.447 0 9 0.448 9 1L9 29 1 29C0.447 29 0 29.448 0 30L0 52.034C0 54.221 1.779 56 3.966 56L48.034 56C50.221 56 52 54.221 52 52.034L52 30C52 29.448 51.553 29 51 29L51 29Z" id="Storage_Category-Icon_64_Squid"/></g></g></svg>