<svg width="90" height="90" viewBox="0 0 90 90" xmlns="http://www.w3.org/2000/svg" xmlns:xlink="http://www.w3.org/1999/xlink" overflow="hidden"><g id="Icon-Architecture-Category/64/Management-Governance_64" stroke="none" stroke-width="1" fill="none" fill-rule="evenodd"><rect x="5" y="5" width="80" height="80" id="Rectangle" fill="#E7157B"/><rect x="1" y="1" width="88" height="88" id="#879196-Border-Copy-14" stroke="#879196" stroke-width="2"/><g id="Icon-Category/64/Management-Governance_64" fill="#FFFFFF" transform="translate(17 17)"><path d="M28 36 7 36 7 34 28 34 28 31 30 31 30 34 35 34 35 36 30 36 30 39 28 39 28 36ZM13 26 7 26 7 24 13 24 13 21 15 21 15 24 35 24 35 26 15 26 15 29 13 29 13 26ZM27 6 41 6 41 2 27 2 27 6ZM52.211 2 43 2 43 1C43 0.448 42.553 0 42 0L26 0C25.447 0 25 0.448 25 1L25 2 15.789 2C13.7 2 12 3.7 12 5.79L12 13 14 13 14 5.79C14 4.803 14.803 4 15.789 4L25 4 25 7C25 7.552 25.447 8 26 8L42 8C42.553 8 43 7.552 43 7L43 4 52.211 4C53.197 4 54 4.803 54 5.79L54 52.21C54 53.197 53.197 54 52.211 54L17.789 54C16.803 54 16 53.197 16 52.21L16 49 14 49 14 52.21C14 54.3 15.7 56 17.789 56L52.211 56C54.3 56 56 54.3 56 52.21L56 5.79C56 3.7 54.3 2 52.211 2L52.211 2ZM2 45 40 45 40 17 2 17 2 45ZM42 46 42 16C42 15.448 41.553 15 41 15L1 15C0.447 15 0 15.448 0 16L0 46C0 46.552 0.447 47 1 47L41 47C41.553 47 42 46.552 42 46L42 46Z" id="Management-Governance_Category-Icon_64_Squid"/></g></g></svg>