<svg xmlns="http://www.w3.org/2000/svg" width="18" height="18" viewBox="0 0 18 18"><defs><linearGradient id="a" x1="9" y1="13" x2="9" y2="1" gradientUnits="userSpaceOnUse"><stop offset="0" stop-color="#0078d4"/><stop offset="1" stop-color="#5ea0ef"/></linearGradient><linearGradient id="b" x1="9" y1="17" x2="9" y2="13" gradientUnits="userSpaceOnUse"><stop offset=".15" stop-color="#ccc"/><stop offset="1" stop-color="#707070"/></linearGradient></defs><rect x="1" y="1" width="16" height="12" rx=".6" fill="url(#a)"/><rect x="2.5" y="2.5" width="13" height="9" rx=".3" fill="#fff"/><rect x="4" y="4" width="4.5" height="3" rx=".2" fill="#50e6ff"/><rect x="9.5" y="4" width="4.5" height="3" rx=".2" fill="#9cebff"/><rect x="4" y="8" width="10" height="2" rx=".2" fill="#c3f1ff"/><path d="M11.5 16.5c-1.3-.2-1.4-1.2-1.4-2.8H7.9c0 1.6 0 2.6-1.4 2.8a.8.8 0 00-.7.8h6.4a.8.8 0 00-.7-.8z" fill="url(#b)"/></svg>
