<svg xmlns="http://www.w3.org/2000/svg" viewBox="0 0 172 171.72">
 <defs>
  <style>
   .cls-2{fill:#fec514;}.cls-3{fill:#00bfb3;}.cls-4{fill:#f04e98;}.cls-5{fill:#1ba9f5;}.cls-6{fill:#93c90e;}.cls-7{fill:#07c;}
  </style>
 </defs>
 <path class="cls-2" d="M67.77,74l37.73,17.2L143.55,57.8A42.54,42.54,0,0,0,66.74,25.39L60.41,58.23Z"/>
 <path class="cls-3" d="M28.73,113.9a43.34,43.34,0,0,0-.83,8.49,42.65,42.65,0,0,0,77.92,24l6.28-32.73-8.39-16L65.84,80.36Z"/>
 <path class="cls-4" d="M28.49,48.62l25.85,6.1L60,25.33A20.43,20.43,0,0,0,28.49,48.62"/>
 <path class="cls-5" d="M26.25,54.78A28.51,28.51,0,0,0,25,108.49L61.28,75.71,54.62,61.48Z"/>
 <path class="cls-6" d="M112.45,146.37a20.39,20.39,0,0,0,31.45-23.25l-25.83-6Z"/>
 <path class="cls-7" d="M117.7,110.31,146.14,117a28.77,28.77,0,0,0,19.58-27.08,28.46,28.46,0,0,0-18.38-26.59L110.15,95.88Z"/>
</svg>
