<svg width="82" height="80" xmlns="http://www.w3.org/2000/svg" xmlns:xlink="http://www.w3.org/1999/xlink" xml:space="preserve" overflow="hidden"><g transform="translate(-1030 -124)"><g><g><g><g><path d="M1031 124 1111 124 1111 204 1031 204Z" fill="#01A88D" fill-rule="evenodd" fill-opacity="1"/><path d="M1074 162.117 1074 165.882 1071 167.382 1068 165.882 1068 162.117 1071 160.61 1074 162.117ZM1090.97 178.065 1072.97 188.239C1071.76 188.926 1070.24 188.926 1069.03 188.239L1051.03 178.065C1049.78 177.357 1049 176.022 1049 174.583L1049 153.31C1049 151.924 1049.74 150.615 1050.92 149.893L1068.92 138.937C1069.56 138.547 1070.28 138.351 1071 138.351 1071.72 138.351 1072.44 138.547 1073.08 138.937L1091.08 149.893C1092.26 150.615 1093 151.924 1093 153.31L1093 174.583C1093 174.831 1092.97 175.075 1092.92 175.314L1076 165.912 1076 161.5C1076 161.122 1075.79 160.777 1075.45 160.607L1071.45 158.597C1071.17 158.456 1070.83 158.456 1070.55 158.597L1066.55 160.607C1066.21 160.777 1066 161.122 1066 161.5L1066 166.5C1066 166.879 1066.21 167.225 1066.55 167.395L1070.55 169.395C1070.69 169.465 1070.85 169.5 1071 169.5 1071.15 169.5 1071.31 169.465 1071.45 169.395L1074.98 167.631 1092.07 177.13C1091.77 177.5 1091.4 177.822 1090.97 178.065ZM1092.12 148.185 1074.12 137.229C1072.19 136.057 1069.81 136.057 1067.88 137.229L1049.88 148.185C1048.1 149.267 1047 151.231 1047 153.31L1047 174.583C1047 176.742 1048.17 178.743 1050.05 179.806L1068.05 189.98C1068.96 190.495 1069.98 190.752 1071 190.752 1072.02 190.752 1073.04 190.495 1073.95 189.98L1091.95 179.806C1093.83 178.743 1095 176.742 1095 174.583L1095 153.31C1095 151.231 1093.9 149.267 1092.12 148.185Z" fill="#FFFFFF" fill-rule="evenodd" fill-opacity="1"/></g></g></g></g></g></svg>