<svg width="81" height="80" xmlns="http://www.w3.org/2000/svg" xmlns:xlink="http://www.w3.org/1999/xlink" xml:space="preserve" overflow="hidden"><g transform="translate(-549 -124)"><g><g><g><g><g><path d="M550 124 630 124 630 204 550 204Z" fill="#8C4FFF" fill-rule="nonzero" fill-opacity="1"/><path d="M617.967 164.312C617.967 169.483 615.213 172.141 612.902 173.46L611.91 171.723C614.602 170.186 615.967 167.693 615.967 164.312 615.967 157.409 609.796 155.809 607.904 155.483 607.368 155.391 607.004 154.887 607.085 154.348L607.091 154.315C607.07 151.317 605.812 149.191 603.63 148.474 601.688 147.835 599.546 148.54 598.303 150.228 598.084 150.525 597.713 150.676 597.351 150.624 596.984 150.569 596.678 150.316 596.555 149.967 595.733 147.634 594.543 145.673 593.017 144.138 591.143 142.253 586.001 138.202 578.745 141.283 574.551 143.065 571.266 148.197 571.266 152.967L571.364 154.612C571.393 155.09 571.078 155.521 570.615 155.64 568.132 156.277 563.967 158.241 563.967 164.228 563.967 166.765 564.751 168.934 566.298 170.675 566.911 171.365 567.63 171.972 568.434 172.478L567.367 174.17C566.404 173.563 565.542 172.834 564.804 172.003 562.921 169.885 561.967 167.269 561.967 164.228 561.967 157.355 566.615 154.825 569.321 153.936L569.268 153.026C569.266 147.363 573.005 141.549 577.964 139.442 583.778 136.973 589.937 138.203 594.435 142.728 595.832 144.133 596.977 145.839 597.852 147.812 599.62 146.343 602.026 145.841 604.255 146.574 607.097 147.508 608.864 150.139 609.07 153.682 611.938 154.359 617.967 156.692 617.967 164.312ZM605.967 166.987 605.967 174.987 603.967 174.987 603.967 167.987 589.41 167.987C588.717 169.177 587.441 169.987 585.967 169.987 584.493 169.987 583.217 169.177 582.523 167.987L573.967 167.987 573.967 165.987 581.967 165.987C581.967 164.513 582.777 163.237 583.967 162.544L583.967 155.987C583.967 155.435 584.414 154.987 584.967 154.987L595.967 154.987C596.52 154.987 596.967 155.435 596.967 155.987L596.967 163.987 594.967 163.987 594.967 156.987 585.967 156.987 585.967 161.987C588.173 161.987 589.967 163.782 589.967 165.987L604.967 165.987C605.52 165.987 605.967 166.435 605.967 166.987ZM587.967 165.987C587.967 164.884 587.069 163.987 585.967 163.987 584.864 163.987 583.967 164.884 583.967 165.987 583.967 167.09 584.864 167.987 585.967 167.987 587.069 167.987 587.967 167.09 587.967 165.987ZM599.825 176.987 605.967 176.987 605.967 178.987 599.825 178.987C599.461 180.386 598.366 181.482 596.967 181.845L596.967 188.987C596.967 189.539 596.52 189.987 595.967 189.987L584.967 189.987C584.414 189.987 583.967 189.539 583.967 188.987L583.967 180.987 585.967 180.987 585.967 187.987 594.967 187.987 594.967 181.845C593.568 181.482 592.472 180.386 592.109 178.987L574.967 178.987C574.414 178.987 573.967 178.54 573.967 177.987L573.967 169.987 575.967 169.987 575.967 176.987 592.109 176.987C592.556 175.267 594.108 173.987 595.967 173.987 597.825 173.987 599.378 175.267 599.825 176.987ZM597.967 177.987C597.967 176.884 597.069 175.987 595.967 175.987 594.864 175.987 593.967 176.884 593.967 177.987 593.967 179.09 594.864 179.987 595.967 179.987 597.069 179.987 597.967 179.09 597.967 177.987Z" fill="#FFFFFF" fill-rule="nonzero" fill-opacity="1"/></g></g></g></g></g></g></svg>