<svg width="81" height="80" xmlns="http://www.w3.org/2000/svg" xmlns:xlink="http://www.w3.org/1999/xlink" xml:space="preserve" overflow="hidden"><g transform="translate(-313 -124)"><g><g><g><g><path d="M314 124 394 124 394 204 314 204Z" fill="#C925D1" fill-rule="evenodd" fill-opacity="1"/><path d="M357.441 166.611C356.913 166.911 356.331 167.143 355.696 167.31 355.06 167.476 354.429 167.558 353.802 167.558 352.713 167.558 351.888 167.256 351.328 166.649 350.766 166.042 350.486 165.158 350.486 163.993 350.486 162.896 350.779 162.019 351.365 161.362 351.95 160.706 352.73 160.378 353.704 160.378 356.145 160.378 357.391 162.34 357.441 166.263L357.441 166.611ZM353.753 158.333C352.615 158.333 351.608 158.587 350.733 159.093 349.859 159.601 349.186 160.29 348.716 161.163 348.246 162.035 348.011 163.03 348.011 164.143 348.011 165.822 348.477 167.143 349.409 168.107 350.341 169.072 351.608 169.553 353.209 169.553 353.967 169.553 354.71 169.441 355.436 169.217 356.162 168.993 356.822 168.681 357.416 168.282 357.3 170.344 356.835 171.865 356.017 172.845 355.201 173.827 354.001 174.317 352.417 174.317 351.278 174.317 350.032 174.009 348.679 173.394L348.679 175.289C349.768 176.003 351.129 176.361 352.763 176.361 355.04 176.361 356.797 175.522 358.035 173.843 359.272 172.164 359.891 169.762 359.891 166.637 359.891 163.926 359.367 161.866 358.319 160.452 357.271 159.04 355.75 158.333 353.753 158.333ZM370.875 179.985 336.956 179.985C332.195 179.981 328.268 176.479 328.017 172.018 328.005 171.814 328 171.605 328 171.39 328 165.648 332.086 163.721 334.581 163.08 334.593 163.078 334.606 163.076 334.62 163.073 335.131 162.968 335.476 162.484 335.412 161.962 335.349 161.458 335.318 160.94 335.318 160.422 335.318 155.795 338.608 150.813 342.808 149.081 347.869 146.994 353.227 148.034 357.145 151.861 358.672 153.353 359.863 155.258 360.685 157.523 360.811 157.869 361.113 158.118 361.474 158.173 361.835 158.227 362.197 158.082 362.42 157.79 363.648 156.169 365.635 155.488 367.493 156.06 369.652 156.725 371.05 158.935 371.231 161.974 371.258 162.43 371.587 162.811 372.032 162.902 375.667 163.639 380 165.726 380 171.471 380 179.371 373.015 179.985 370.875 179.985ZM373.159 161.09C372.735 157.565 370.871 154.992 368.077 154.132 365.934 153.473 363.678 153.963 361.969 155.376 361.09 153.449 359.94 151.785 358.538 150.415 354.032 146.013 347.869 144.816 342.05 147.216 337.072 149.269 333.318 154.947 333.318 160.422 333.318 160.73 333.328 161.037 333.346 161.342 330.627 162.22 326 164.696 326 171.39 326 171.641 326.007 171.886 326.02 172.129 326.331 177.658 331.133 181.995 336.955 182L370.875 182C376.253 182 382 179.234 382 171.471 382 166.148 378.868 162.484 373.159 161.09Z" fill="#FFFFFF" fill-rule="evenodd" fill-opacity="1"/></g></g></g></g></g></svg>