<svg width="82" height="80" xmlns="http://www.w3.org/2000/svg" xmlns:xlink="http://www.w3.org/1999/xlink" xml:space="preserve" overflow="hidden"><g transform="translate(-1030 -124)"><g><g><g><g><path d="M1031 124 1111 124 1111 204 1031 204Z" fill="#DD344C" fill-rule="evenodd" fill-opacity="1"/><path d="M1068 162C1065.57 162 1064 160.43 1064 158 1064 155.57 1065.57 154 1068 154 1070.43 154 1072 155.57 1072 158 1072 160.43 1070.43 162 1068 162L1068 162ZM1083 157 1073.92 157C1073.5 154.012 1071.19 152 1068 152 1064.47 152 1062 154.467 1062 158 1062 161.533 1064.47 164 1068 164 1071.19 164 1073.5 161.988 1073.92 159L1083 159 1083 157ZM1058 158C1058 163.595 1062.39 167.979 1068 167.979 1072.01 167.979 1075.56 165.114 1077.05 160.682L1078.95 161.318C1077.18 166.579 1072.88 169.979 1068 169.979 1061.38 169.979 1056 164.605 1056 158 1056 151.383 1061.38 146 1068 146 1073.24 146 1077.33 148.872 1078.95 153.682L1077.05 154.318C1075.7 150.303 1072.4 148 1068 148 1062.49 148 1058 152.486 1058 158ZM1045 169 1048 169 1048 164 1045 164 1045 169ZM1045 151 1048 151 1048 146 1045 146 1045 151ZM1050 170 1050 163 1050 152 1050 145 1050 139 1087 139 1087 166 1089 166 1089 139C1089 137.155 1087.97 137 1087 137L1050 137C1049.03 137 1048 137.155 1048 139L1048 144 1044 144C1043.45 144 1043 144.448 1043 145L1043 152C1043 152.552 1043.45 153 1044 153L1048 153 1048 162 1044 162C1043.45 162 1043 162.448 1043 163L1043 170C1043 170.552 1043.45 171 1044 171L1048 171 1048 177C1048 178.551 1048.45 179 1050 179L1071 179 1071 177 1050 177 1050 170ZM1097 190 1095.41 190 1093.71 188.293C1093.52 188.105 1093.27 188 1093 188L1091 188 1091 187C1091 186.735 1090.9 186.48 1090.71 186.293L1089.71 185.293C1089.52 185.105 1089.27 185 1089 185L1087 185 1087 183C1087 182.735 1086.9 182.48 1086.71 182.293L1085.17 180.752C1085.1 180.681 1085.03 180.617 1084.95 180.564 1084.67 180.38 1084.31 180.354 1084 180.494 1083.21 180.849 1082.38 181.029 1081.51 181.029 1078.19 181.029 1075.5 178.331 1075.5 175.015 1075.5 171.698 1078.19 169 1081.51 169 1084.83 169 1087.53 171.698 1087.53 175.015 1087.53 176.083 1087.38 176.949 1087.09 177.587 1086.92 177.966 1087 178.413 1087.29 178.707L1097 188.414 1097 190ZM1098.71 187.293 1089.16 177.748C1089.4 176.971 1089.53 176.055 1089.53 175.015 1089.53 170.595 1085.93 167 1081.51 167 1077.09 167 1073.5 170.595 1073.5 175.015 1073.5 179.434 1077.09 183.029 1081.51 183.029 1082.43 183.029 1083.31 182.878 1084.17 182.58L1085 183.414 1085 186C1085 186.552 1085.45 187 1086 187L1088.59 187 1089 187.414 1089 189C1089 189.552 1089.45 190 1090 190L1092.59 190 1094.29 191.707C1094.48 191.895 1094.73 192 1095 192L1098 192C1098.55 192 1099 191.552 1099 191L1099 188C1099 187.735 1098.9 187.48 1098.71 187.293ZM1081.51 176.029C1080.95 176.029 1080.5 175.574 1080.5 175.015 1080.5 174.455 1080.95 174 1081.51 174 1082.07 174 1082.53 174.455 1082.53 175.015 1082.53 175.574 1082.07 176.029 1081.51 176.029ZM1081.51 172C1079.85 172 1078.5 173.353 1078.5 175.015 1078.5 176.677 1079.85 178.029 1081.51 178.029 1083.17 178.029 1084.53 176.677 1084.53 175.015 1084.53 173.353 1083.17 172 1081.51 172Z" fill="#FFFFFF" fill-rule="evenodd" fill-opacity="1"/></g></g></g></g></g></svg>