<svg width="81" height="81" xmlns="http://www.w3.org/2000/svg" xmlns:xlink="http://www.w3.org/1999/xlink" xml:space="preserve" overflow="hidden"><g transform="translate(-313 -124)"><g><g><g><g><path d="M314 125 394 125 394 205 314 205Z" fill="#8C4FFF" fill-rule="evenodd" fill-opacity="1"/><path d="M346.707 146.707 345.293 145.293 353.293 137.293C353.684 136.902 354.316 136.902 354.707 137.293L362.707 145.293 361.293 146.707 354 139.414 346.707 146.707ZM381.707 165.707 373.707 173.707 372.293 172.293 379.586 165 372.293 157.707 373.707 156.293 381.707 164.293C382.098 164.684 382.098 165.316 381.707 165.707ZM361.293 183.293 362.707 184.707 354.707 192.707C354.512 192.902 354.256 193 354 193 353.744 193 353.488 192.902 353.293 192.707L345.293 184.707 346.707 183.293 354 190.586 361.293 183.293ZM335.707 172.293 334.293 173.707 326.293 165.707C325.902 165.316 325.902 164.684 326.293 164.293L334.293 156.293 335.707 157.707 328.414 165 335.707 172.293ZM367.5 182C365.57 182 364 180.43 364 178.5 364 176.57 365.57 175 367.5 175 369.43 175 371 176.57 371 178.5 371 180.43 369.43 182 367.5 182ZM362.607 176 345.393 176C344.866 174.973 344.027 174.134 343 173.607L343 156.393C344.027 155.866 344.866 155.027 345.393 154L362.607 154C363.134 155.027 363.973 155.866 365 156.393L365 173.607C363.973 174.134 363.134 174.973 362.607 176ZM340.5 182C338.57 182 337 180.43 337 178.5 337 176.57 338.57 175 340.5 175 342.43 175 344 176.57 344 178.5 344 180.43 342.43 182 340.5 182ZM337 151.5C337 149.57 338.57 148 340.5 148 342.43 148 344 149.57 344 151.5 344 153.43 342.43 155 340.5 155 338.57 155 337 153.43 337 151.5ZM367.5 148C369.43 148 371 149.57 371 151.5 371 153.43 369.43 155 367.5 155 365.57 155 364 153.43 364 151.5 364 149.57 365.57 148 367.5 148ZM367.5 173C367.331 173 367.165 173.01 367 173.025L367 156.975C367.165 156.99 367.331 157 367.5 157 370.532 157 373 154.533 373 151.5 373 148.467 370.532 146 367.5 146 364.468 146 362 148.467 362 151.5 362 151.669 362.01 151.835 362.025 152L345.975 152C345.99 151.835 346 151.669 346 151.5 346 148.467 343.532 146 340.5 146 337.468 146 335 148.467 335 151.5 335 154.533 337.468 157 340.5 157 340.669 157 340.835 156.99 341 156.975L341 173.025C340.835 173.01 340.669 173 340.5 173 337.468 173 335 175.467 335 178.5 335 181.533 337.468 184 340.5 184 343.532 184 346 181.533 346 178.5 346 178.331 345.99 178.165 345.975 178L362.025 178C362.01 178.165 362 178.331 362 178.5 362 181.533 364.468 184 367.5 184 370.532 184 373 181.533 373 178.5 373 175.467 370.532 173 367.5 173Z" fill="#FFFFFF" fill-rule="evenodd" fill-opacity="1"/></g></g></g></g></g></svg>