<svg width="82" height="80" xmlns="http://www.w3.org/2000/svg" xmlns:xlink="http://www.w3.org/1999/xlink" xml:space="preserve" overflow="hidden"><g transform="translate(-550 -124)"><g><g><g><g><path d="M551 124 631 124 631 204 551 204Z" fill="#C925D1" fill-rule="evenodd" fill-opacity="1"/><path d="M595 191 597 191 597 184 595 184 595 191ZM586 190.86 588 190.86 588 184 586 184 586 190.86ZM604 189 606 189 606 183 604 183 604 189ZM577 189 579 189 579 183 577 183 577 189ZM591 159C583.489 159 579 156.966 579 155L579 147.359C581.32 149.022 585.533 150 591 150 595.983 150 601.225 149.106 604 147.2L604 155C604 156.932 598.777 159 591 159ZM591 169C583.489 169 579 166.966 579 165L579 158.359C581.32 160.022 585.533 161 591 161 595.983 161 601.225 160.106 604 158.2L604 165C604 166.932 598.777 169 591 169ZM591 179C583.206 179 579 176.939 579 175L579 168.359C581.32 170.022 585.533 171 591 171 595.983 171 601.225 170.106 604 168.2L604 175C604 176.932 598.777 179 591 179ZM591 140C598.661 140 604 142.108 604 144 604 145.892 598.661 148 591 148 583.489 148 579 145.966 579 144 579 142.034 583.489 140 591 140ZM591 138C582.495 138 577 140.355 577 144L577 175C577 178.645 582.495 181 591 181 598.225 181 606 179.123 606 175L606 144C606 139.877 598.225 138 591 138Z" fill="#FFFFFF" fill-rule="evenodd" fill-opacity="1"/></g></g></g></g></g></svg>