<svg width="81" height="80" xmlns="http://www.w3.org/2000/svg" xmlns:xlink="http://www.w3.org/1999/xlink" xml:space="preserve" overflow="hidden"><g transform="translate(-313 -124)"><g><g><g><g><path d="M314 124 394 124 394 204 314 204Z" fill="#7AA116" fill-rule="evenodd" fill-opacity="1"/><path d="M341.943 161.498C343.323 161.498 344.445 162.621 344.445 164 344.445 165.38 343.323 166.503 341.943 166.503 340.563 166.503 339.44 165.38 339.44 164 339.44 162.621 340.563 161.498 341.943 161.498L341.943 161.498ZM349.847 153.558C350.402 154.881 351.574 155.878 353 156.205L353 174.868C352.322 174.807 351.651 174.68 351 174.495L351 164C351 163.448 350.552 163 350 163L346.324 163C345.998 161.571 344.996 160.397 343.667 159.844 344.773 156.975 347 154.709 349.847 153.558ZM354 149.32C355.38 149.32 356.502 150.443 356.502 151.823 356.502 153.203 355.38 154.325 354 154.325 352.62 154.325 351.498 153.203 351.498 151.823 351.498 150.443 352.62 149.32 354 149.32ZM364.334 159.844C363.005 160.397 362.002 161.571 361.675 163L358 163C357.447 163 357 163.448 357 164L357 174.496C356.35 174.681 355.679 174.807 355 174.868L355 156.205C356.425 155.878 357.598 154.88 358.153 153.556 361.001 154.706 363.226 156.971 364.334 159.844ZM368.559 164C368.559 165.38 367.436 166.503 366.056 166.503 364.676 166.503 363.554 165.38 363.554 164 363.554 162.621 364.676 161.498 366.056 161.498 367.436 161.498 368.559 162.621 368.559 164ZM359 173.7 359 165 361.675 165C361.993 166.39 362.951 167.533 364.224 168.104 363.213 170.507 361.343 172.51 359 173.7ZM345.496 170.932C345.448 170.875 345.399 170.82 345.326 170.721 344.681 169.918 344.159 169.043 343.765 168.109 345.045 167.54 346.005 166.393 346.324 165L349 165 349 173.697C347.662 173.023 346.461 172.092 345.496 170.932ZM341.775 168.486C342.254 169.738 342.91 170.907 343.735 171.932 343.807 172.033 343.891 172.133 343.967 172.222 345.314 173.842 347.059 175.11 349 175.903L349 181 351 181 351 176.555C351.652 176.711 352.318 176.819 353 176.87L353 181 355 181 355 176.87C355.682 176.819 356.348 176.711 357 176.556L357 181 359 181 359 175.903C362.307 174.537 364.943 171.806 366.215 168.487 368.624 168.401 370.559 166.429 370.559 164 370.559 161.617 368.692 159.68 366.345 159.527 365.047 155.802 362.172 152.893 358.473 151.546 358.328 149.195 356.387 147.32 354 147.32 351.612 147.32 349.672 149.195 349.525 151.547 345.829 152.895 342.953 155.807 341.656 159.527 339.308 159.678 337.44 161.616 337.44 164 337.44 166.425 339.371 168.395 341.775 168.486ZM332 185 376 185 376 144 332 144 332 185ZM382 147 382 145 378 145 378 143C378 142.448 377.552 142 377 142L331 142C330.447 142 330 142.448 330 143L330 145 326 145 326 147 330 147 330 151 326 151 326 153 330 153 330 157 326 157 326 159 330 159 330 163 326 163 326 165 330 165 330 169 326 169 326 171 330 171 330 175 326 175 326 177 330 177 330 181 326 181 326 183 330 183 330 186C330 186.553 330.447 187 331 187L377 187C377.552 187 378 186.553 378 186L378 183 382 183 382 181 378 181 378 177 382 177 382 175 378 175 378 171 382 171 382 169 378 169 378 165 382 165 382 163 378 163 378 159 382 159 382 157 378 157 378 153 382 153 382 151 378 151 378 147 382 147Z" fill="#FFFFFF" fill-rule="evenodd" fill-opacity="1"/></g></g></g></g></g></svg>