<svg width="80" height="80" xmlns="http://www.w3.org/2000/svg" xmlns:xlink="http://www.w3.org/1999/xlink" xml:space="preserve" overflow="hidden"><g transform="translate(-1028 -124)"><g><path d="M1028 124 1108 124 1108 204 1028 204Z" fill="#7AA116" fill-rule="evenodd" fill-opacity="1"/><path d="M1068 184.29 1068 178.518C1068 176.572 1069.58 174.99 1071.53 174.99L1075.82 174.99C1075.09 179.314 1072.04 182.854 1068 184.29M1062 184.809 1062 178.518C1062 175.471 1059.52 172.99 1056.47 172.99L1052 172.99C1052 172.307 1052.07 171.641 1052.18 170.99L1054.77 170.988C1056.82 170.988 1058.77 170.074 1059.99 168.544 1060.95 167.346 1062.39 166.66 1063.95 166.66 1065.52 166.66 1066.96 167.346 1067.92 168.546 1069.14 170.076 1071.09 170.988 1073.14 170.99L1075.82 170.99C1075.93 171.641 1076 172.307 1076 172.99L1071.53 172.99C1068.48 172.99 1066 175.471 1066 178.518L1066 184.809C1065.35 184.919 1064.68 184.99 1064 184.99 1063.32 184.99 1062.65 184.919 1062 184.809M1052.18 174.99 1056.47 174.99C1058.42 174.99 1060 176.572 1060 178.518L1060 184.29C1055.96 182.854 1052.91 179.314 1052.18 174.99M1064 160.99C1069.21 160.99 1073.65 164.337 1075.3 168.99L1073.14 168.99C1071.69 168.988 1070.32 168.357 1069.48 167.298 1068.14 165.622 1066.13 164.66 1063.95 164.66 1061.78 164.66 1059.77 165.622 1058.43 167.298 1057.58 168.357 1056.22 168.988 1054.77 168.988L1052.7 168.99C1054.35 164.337 1058.79 160.99 1064 160.99M1064 158.99C1056.28 158.99 1050 165.27 1050 172.99 1050 180.71 1056.28 186.99 1064 186.99 1071.72 186.99 1078 180.71 1078 172.99 1078 165.27 1071.72 158.99 1064 158.99M1085.9 170.99 1082.89 170.982C1081.89 161.447 1073.8 153.99 1064 153.99 1054.9 153.99 1047.29 160.419 1045.44 168.971 1043.57 167.365 1042.29 164.949 1042.05 162.376 1042.02 162.031 1042 161.671 1042 161.298 1042 158.538 1044.05 154.66 1047.89 154.557 1048.39 154.544 1048.81 154.158 1048.85 153.656L1048.96 152.605C1048.96 152.534 1048.96 152.46 1048.95 152.389 1048.89 151.863 1048.86 151.327 1048.86 150.798 1048.86 146.021 1052.19 140.882 1056.44 139.097 1063.79 136.006 1069.01 140.068 1070.91 141.958 1072.45 143.496 1073.66 145.46 1074.49 147.796 1074.61 148.143 1074.92 148.393 1075.29 148.449 1075.65 148.507 1076.02 148.352 1076.23 148.057 1077.45 146.426 1079.43 145.722 1081.27 146.264 1083.47 146.911 1084.92 149.12 1085.15 152.182 1085.07 152.721 1085.44 153.225 1085.97 153.316 1088.39 153.728 1094 155.413 1094 162.16 1094 170.202 1086.15 170.965 1085.9 170.99M1064 189.99C1054.63 189.99 1047 182.363 1047 172.99 1047 163.615 1054.63 155.99 1064 155.99 1073.37 155.99 1081 163.615 1081 172.99 1081 182.363 1073.37 189.99 1064 189.99M1087.1 151.503C1086.66 147.85 1084.73 145.198 1081.84 144.347 1079.71 143.722 1077.47 144.23 1075.78 145.643 1074.9 143.661 1073.73 141.95 1072.32 140.54 1067.77 136.013 1061.54 134.782 1055.66 137.253 1050.64 139.361 1046.86 145.184 1046.86 150.798 1046.86 151.37 1046.89 151.949 1046.95 152.518L1046.94 152.633C1042.63 153.251 1040 157.452 1040 161.298 1040 161.738 1040.02 162.16 1040.06 162.566 1040.4 166.12 1042.29 169.335 1045.09 171.229 1045.04 171.81 1045 172.396 1045 172.99 1045 183.466 1053.52 191.99 1064 191.99 1074.48 191.99 1083 183.466 1083 172.99 1083 172.988 1083 172.984 1083 172.982L1085.98 172.986C1086.08 172.979 1096 172.064 1096 162.16 1096 154.473 1089.94 152.163 1087.1 151.503" fill="#FFFFFF" fill-rule="evenodd" fill-opacity="1"/></g></g></svg>