<svg xmlns="http://www.w3.org/2000/svg" xmlns:lucid="lucid" width="121" height="121"><g lucid:page-tab-id="0_0" stroke="#000" stroke-opacity="0"><path d="M.5.5h120v120H.5z" fill="#01a88d"/><path d="M81.5 42.52c0-8.3-6.72-15.03-15.04-15.03-8.23 0-14.95 6.7-14.95 15.02 0 1.52.26 3.03.68 4.46l-2.85.92c-.6-1.76-.84-3.53-.84-5.38 0-9.9 8.05-18.06 17.96-18.06 10 0 18.06 8.15 18.06 18.06 0 8.66-6.2 16.13-14.78 17.64l-.5-2.94c7.14-1.26 12.26-7.47 12.26-14.7zm-54 51v-4.54h6.04v4.53H27.5zm7.46-7.48h-8.98c-.84 0-1.52.67-1.52 1.42v7.56c0 .84.68 1.52 1.52 1.52h8.98c.84 0 1.52-.68 1.52-1.52v-7.56c0-.75-.68-1.42-1.52-1.42zm7.56 7.47V89h5.97v4.53H42.5zM50 86.05h-9c-.83 0-1.5.67-1.5 1.42v7.56c0 .84.67 1.52 1.5 1.52h9c.84 0 1.5-.68 1.5-1.52v-7.56c0-.75-.66-1.42-1.5-1.42zm43.5 13.44H21.53V29h10.5v49.48h2.94V57.9L48.5 70.16v8.32h3V57.73l14.96 12.5V81.5c0 .84.68 1.5 1.52 1.5H93.5V99.5zm-71.98-73.5v-4.46h10.5v4.46h-10.5zm73.5 54H69.5V69.5c0-.4-.18-.83-.52-1.17L50.92 53.37c-.42-.42-1-.5-1.6-.25-.5.26-.83.85-.83 1.44v11.6L34.95 53.85V20c0-.83-.67-1.5-1.42-1.5H20c-.83 0-1.5.67-1.5 1.5v81c0 .83.67 1.5 1.5 1.5h75.02c.84 0 1.52-.67 1.52-1.5V81.5c0-.84-.68-1.5-1.52-1.5zm3.45-6.63c-1.1 1.18-2.7 1.93-3.87.93L80.74 61.84c1.6-1.26 3.03-2.6 4.37-4.2L98.9 69.4c.4.42.66 1 .58 1.68 0 .76-.42 1.6-1 2.27zm2.35-6.2L86.8 55.2c2.34-3.7 3.7-8.06 3.7-12.68 0-13.27-10.76-24.02-24.04-24.02-13.18 0-23.94 10.75-23.94 24.02 0 2.2.26 4.3.84 6.4l2.86-.85c-.5-1.77-.76-3.7-.76-5.55 0-11.6 9.5-21 21-21 11.6 0 21 9.4 21 21 0 9.5-6.38 17.8-15.54 20.25l.76 2.94c1.93-.5 3.78-1.25 5.46-2.18l14.53 13.02c.93.84 2.02 1.18 3.2 1.18 1.67 0 3.44-.76 4.78-2.35 1.1-1.26 1.77-2.7 1.85-4.12.08-1.6-.5-3.02-1.68-4.1z" fill="#fff"/></g></svg>