<svg width="80" height="80" xmlns="http://www.w3.org/2000/svg" xmlns:xlink="http://www.w3.org/1999/xlink" xml:space="preserve" overflow="hidden"><g transform="translate(-792 -124)"><g><path d="M792 124 872 124 872 204 792 204Z" fill="#01A88D" fill-rule="evenodd" fill-opacity="1"/><path d="M859.813 161.352C859.813 161.679 859.799 162.004 859.772 162.324 859.294 167.972 854.293 172.395 848.386 172.395L848.386 170.395C853.263 170.395 857.389 166.776 857.78 162.157 857.801 161.893 857.813 161.623 857.813 161.352 857.813 156.479 854.511 152.805 850.133 152.805 849.581 152.805 849.133 152.357 849.133 151.805 849.133 148.512 847.344 144.993 842.322 144.993L841.455 144.993C841.091 144.993 840.756 144.796 840.58 144.478 838.349 140.453 834.134 138.05 829.303 138.05 822.197 138.05 816.416 143.831 816.416 150.936 816.416 151.489 815.968 151.936 815.416 151.936 810.224 151.936 806 156.16 806 161.352 806 170.167 814.145 170.422 815.074 170.422L815.074 172.422C807.424 172.422 804 166.862 804 161.352 804 155.384 808.604 150.471 814.446 149.977 814.942 142.214 821.417 136.05 829.303 136.05 834.664 136.05 839.376 138.634 842.03 142.993L842.322 142.993C847.35 142.993 850.707 146.044 851.095 150.852 856.128 151.345 859.813 155.694 859.813 161.352ZM845.187 181.52 849.412 184.819 840.228 191.993 823.733 191.993 814.55 184.819 818.773 181.52 820.003 183.097 817.798 184.819 824.422 189.993 839.539 189.993 846.162 184.819 843.957 183.097 845.187 181.52ZM845.187 172.52 849.412 175.819 840.228 182.993 823.733 182.993 814.55 175.819 818.773 172.52 820.003 174.097 817.798 175.819 824.422 180.993 839.539 180.993 846.162 175.819 843.957 174.097 845.187 172.52ZM824.004 159.993 839.957 159.993 846.998 165.493 839.957 170.993 824.004 170.993 816.963 165.493 824.004 159.993ZM840.646 172.993 850.246 165.493 840.646 157.993 823.315 157.993 813.715 165.493 823.315 172.993 840.646 172.993Z" fill="#FFFFFF" fill-rule="evenodd" fill-opacity="1"/></g></g></svg>