<svg width="82" height="80" xmlns="http://www.w3.org/2000/svg" xmlns:xlink="http://www.w3.org/1999/xlink" xml:space="preserve" overflow="hidden"><g transform="translate(-550 -124)"><g><g><g><g><path d="M551 124 631 124 631 204 551 204Z" fill="#01A88D" fill-rule="evenodd" fill-opacity="1"/><path d="M591.5 147C600.429 147 607.707 154.134 607.975 163L600.769 163 596.248 152.675C596.087 152.305 595.716 152.099 595.311 152.076 594.906 152.085 594.546 152.337 594.399 152.714L587.102 171.524 583.053 163.547C582.883 163.211 582.538 163 582.161 163L575.025 163C575.293 154.134 582.571 147 591.5 147ZM591.5 180C582.908 180 575.837 173.397 575.076 165L581.547 165 586.332 174.427C586.511 174.779 586.886 175.006 587.273 174.973 587.668 174.953 588.014 174.704 588.156 174.336L595.388 155.697 599.199 164.401C599.358 164.765 599.718 165 600.115 165L607.924 165C607.163 173.397 600.092 180 591.5 180ZM573.076 165C573.844 174.5 581.805 182 591.5 182 601.195 182 609.156 174.5 609.924 165L618 165C618.553 165 619 164.552 619 164L619 159.125C619 157.954 618.047 157 616.875 157L613.063 157C612.635 155.579 612.062 154.198 611.353 152.878L614.05 150.18C614.878 149.351 614.878 148.002 614.05 147.174L607.826 140.951C607.023 140.147 605.623 140.148 604.82 140.951L602.123 143.648C600.804 142.94 599.423 142.366 598 141.936L598 138.125C598 136.954 597.047 136 595.875 136L586.125 136C584.953 136 584 136.954 584 138.125L584 141.936C582.577 142.366 581.196 142.94 579.877 143.648L577.18 140.951C576.377 140.147 574.977 140.148 574.174 140.951L567.95 147.174C567.122 148.002 567.122 149.351 567.95 150.18L570.647 152.878C569.938 154.198 569.365 155.579 568.937 157L565.125 157C563.953 157 563 157.954 563 159.125L563 160 565 160 565 159.125C565 159.056 565.056 159 565.125 159L569.692 159C570.146 159 570.543 158.694 570.659 158.255 571.123 156.498 571.828 154.8 572.754 153.208 572.982 152.816 572.918 152.319 572.597 151.999L569.364 148.767C569.315 148.717 569.315 148.637 569.364 148.588L575.588 142.365 575.608 142.365C575.655 142.365 575.765 142.364 575.766 142.365L578.998 145.597C579.319 145.919 579.815 145.982 580.208 145.754 581.798 144.829 583.497 144.124 585.256 143.659 585.694 143.542 586 143.146 586 142.692L586 138.125C586 138.056 586.056 138 586.125 138L595.875 138C595.944 138 596 138.056 596 138.125L596 142.692C596 143.146 596.306 143.542 596.744 143.659 598.503 144.124 600.202 144.829 601.792 145.754 602.186 145.982 602.681 145.919 603.002 145.597L606.234 142.365 606.255 142.365C606.302 142.365 606.412 142.364 606.412 142.365L612.636 148.588C612.685 148.637 612.685 148.717 612.636 148.766L609.403 151.999C609.082 152.319 609.018 152.816 609.246 153.208 610.172 154.8 610.877 156.498 611.341 158.255 611.457 158.694 611.854 159 612.308 159L616.875 159C616.944 159 617 159.056 617 159.125L617 163 609.975 163C609.706 153.031 601.532 145 591.5 145 581.468 145 573.294 153.031 573.025 163L564 163C563.447 163 563 163.448 563 164L563 168.875C563 170.046 563.953 171 565.125 171L570.008 171C570.437 172.424 571.008 173.806 571.712 175.123L569.024 177.824C568.202 178.651 568.203 179.996 569.024 180.822L575.215 187.042C575.616 187.446 576.15 187.668 576.72 187.668L576.722 187.668C577.291 187.668 577.826 187.446 578.229 187.042L580.903 184.354C582.214 185.061 583.586 185.633 585 186.063L585 189.875C585 191.046 585.953 192 587.125 192L595.875 192C597.047 192 598 191.046 598 189.875L598 186.063C599.414 185.633 600.786 185.061 602.097 184.354L604.772 187.043C605.174 187.446 605.709 187.668 606.278 187.668L606.28 187.668C606.85 187.668 607.384 187.446 607.785 187.042L613.976 180.822C614.797 179.996 614.798 178.651 613.976 177.823L611.288 175.123C611.992 173.806 612.563 172.424 612.992 171L616.875 171C618.047 171 619 170.046 619 168.875L619 168 617 168 617 168.875C617 168.944 616.944 169 616.875 169L612.235 169C611.781 169 611.384 169.306 611.269 169.745 610.804 171.508 610.102 173.206 609.183 174.793 608.956 175.185 609.02 175.679 609.339 176L612.558 179.233C612.606 179.283 612.606 179.363 612.558 179.411L606.367 185.631 606.318 185.631C606.268 185.63 606.188 185.631 606.189 185.631L602.979 182.404C602.655 182.082 602.157 182.018 601.765 182.247 600.184 183.171 598.493 183.876 596.743 184.342 596.305 184.458 596 184.855 596 185.308L596 189.875C596 189.944 595.944 190 595.875 190L587.125 190C587.056 190 587 189.944 587 189.875L587 185.308C587 184.855 586.695 184.458 586.257 184.342 584.507 183.876 582.816 183.171 581.235 182.247 580.842 182.018 580.344 182.082 580.021 182.404L576.811 185.631 577.52 186.337 576.633 185.631 570.442 179.412C570.394 179.363 570.394 179.283 570.442 179.234L573.661 176C573.98 175.679 574.044 175.185 573.817 174.793 572.898 173.206 572.196 171.508 571.731 169.745 571.616 169.306 571.219 169 570.765 169L565.125 169C565.056 169 565 168.944 565 168.875L565 165 573.076 165Z" fill="#FFFFFF" fill-rule="evenodd" fill-opacity="1"/></g></g></g></g></g></svg>