<svg width="50" height="50" xmlns="http://www.w3.org/2000/svg" xmlns:xlink="http://www.w3.org/1999/xlink" xml:space="preserve" overflow="hidden"><g transform="translate(-326 -294)"><g><g><g><g><path d="M356.035 333.38 357.133 334.403 350.998 341 344.865 334.403 345.964 333.38 350 337.723 350 322.103 334.961 314.387 336.981 319.958 335.569 320.469 332.501 311.999 341.17 309.554 341.579 310.998 335.871 312.607 351 320.369 366.126 312.608 360.422 311 360.83 309.555 369.501 312.002 366.431 320.47 365.019 319.96 367.041 314.385 352 322.103 352 337.72 356.035 333.38ZM368.5 333C367.121 333 366 331.879 366 330.5 366 329.122 367.121 328 368.5 328 369.879 328 371 329.122 371 330.5 371 331.879 369.879 333 368.5 333ZM368.5 326C367.984 326 367.496 326.105 367.035 326.266L362.473 318.97 360.778 320.03 365.33 327.311C364.738 327.9 364.315 328.654 364.122 329.495L354 329.495 354 331.495 364.119 331.495C364.574 333.498 366.361 335 368.5 335 370.981 335 373 332.982 373 330.5 373 328.019 370.981 326 368.5 326ZM333.5 333C332.121 333 331 331.879 331 330.5 331 329.122 332.121 328 333.5 328 334.879 328 336 329.122 336 330.5 336 331.879 334.879 333 333.5 333ZM348 331.495 348 329.495 337.878 329.495C337.684 328.654 337.262 327.9 336.67 327.311L341.222 320.03 339.526 318.97 334.965 326.266C334.503 326.105 334.015 326 333.5 326 331.018 326 329 328.019 329 330.5 329 332.982 331.018 335 333.5 335 335.639 335 337.426 333.498 337.881 331.495L348 331.495ZM351 300C352.379 300 353.5 301.122 353.5 302.5 353.5 303.879 352.379 305 351 305 349.621 305 348.5 303.879 348.5 302.5 348.5 301.122 349.621 300 351 300ZM344.453 314.863 349.536 306.735C349.997 306.895 350.484 307 351 307 351.515 307 352.003 306.895 352.465 306.734L357.547 314.863 359.242 313.802 354.17 305.69C354.99 304.874 355.5 303.746 355.5 302.5 355.5 300.019 353.481 298 351 298 348.518 298 346.5 300.019 346.5 302.5 346.5 303.746 347.01 304.874 347.831 305.69L342.758 313.802 344.453 314.863Z" fill="#8C4FFF" fill-rule="evenodd" fill-opacity="1"/></g></g></g></g></g></svg>