<svg xmlns="http://www.w3.org/2000/svg" xmlns:lucid="lucid" width="121" height="121"><g lucid:page-tab-id="0_0" stroke="#000" stroke-opacity="0"><path d="M.5.5h120v120H.5z" fill="#8c4fff"/><path d="M47.3 31.68L33.88 21.4l1.77-2.42 13.52 10.27-1.85 2.43zm25.46-.1l-1.84-2.33 13.52-10.27 1.85 2.42-13.54 10.2zM63.52 92h4.46v-4.5h-4.46v4.5zm-10.5 0h4.46v-4.5h-4.46v4.5zm10.5-10.44h4.46v-4.5h-4.46v4.5zm-10.5 0h4.46v-4.5h-4.46v4.5zm31.42-26.8l-13.52-10.3 1.84-2.32L86.3 52.3l-1.86 2.43zm-8.9-15.2h21V36.5h-21v3zM47.3 42.1l1.86 2.42-13.52 10.2-1.77-2.35L47.3 42.1zM26 39.52h21v-3h-21v3zM75.54 99V88.3c17.3 1.6 23.6 4.43 23.94 5.68-.68 1.5-9 4-23.94 5zm-3.03.16c-3.68.25-7.63.33-12 .33s-8.32-.1-12-.34V71h24v28.16zM45.47 85.38c-8.9.75-18.73 2.17-23.68 4.76 2.18-17.87 17.8-31.5 37.2-32.16V68H45.47V85.4zm0 13.6c-15.03-1-23.35-3.5-23.94-5 .26-1.17 6.56-4.1 23.94-5.6V99zm9.08-62.46c0-3.26 2.68-6 5.96-6s5.96 2.74 5.96 6c0 3.34-2.68 6-5.96 6s-5.96-2.66-5.96-6zm44.52 53.54c-4.96-2.6-14.62-4-23.52-4.76V68H62V58c18.4.76 34.12 14.54 37.06 32.08zm3.44 3.84C101.4 72.93 83.43 55.73 62 54.98v-9.6c4.2-.68 7.5-4.43 7.5-8.86 0-4.93-4.04-9.02-9-9.02s-9 4.1-9 9.02c0 4.43 3.3 8.18 7.5 8.85v9.6c-22.27.76-39.9 17.38-40.5 38.5h.08c-.08.18-.08.34-.08.5 0 8.45 40.32 8.53 42 8.53 1.68 0 42-.08 42-8.52v-.08z" fill="#fff"/></g></svg>