<svg xmlns="http://www.w3.org/2000/svg" xmlns:lucid="lucid" width="121" height="121"><g lucid:page-tab-id="0_0" stroke="#000" stroke-opacity="0"><path d="M120.5 60.14v48.72c0 7.2-12.24 10.92-24.24 10.92-12 0-24.24-3.72-24.24-10.92V60.14c0-7.2 12.24-10.92 24.24-10.92 12 0 24.24 3.72 24.24 10.92zM69.98 120.5h-54C7.46 120.5.5 113.54.5 105.02V15.98C.5 7.46 7.46.5 15.98.5h88.8c8.52 0 15.36 6.96 15.36 15.48V50.9h-4.68V15.98c0-5.88-4.8-10.68-10.68-10.68h-88.8C10.1 5.3 5.3 10.1 5.3 15.98v89.04c0 5.88 4.8 10.68 10.68 10.68h54zm45.72-43.32V66.86c-4.68 2.76-12.12 4.2-19.44 4.2-7.44 0-14.76-1.44-19.44-4.2v10.32c0 2.04 6.84 6.12 19.44 6.12 12.6 0 19.44-4.08 19.44-6.12zm0 16.8V83.9c-4.68 2.76-12.12 4.2-19.44 4.2-7.44 0-14.76-1.44-19.44-4.2v10.08c0 2.04 6.84 6.12 19.44 6.12 12.6 0 19.44-4.08 19.44-6.12zm0 14.88v-8.16c-4.68 2.76-12.12 4.2-19.44 4.2-7.44 0-14.76-1.44-19.44-4.2v8.16c0 2.16 6.84 6.12 19.44 6.12 12.6 0 19.44-3.96 19.44-6.12zM76.82 60.14c0 2.04 6.84 6.12 19.44 6.12 12.6 0 19.44-4.08 19.44-6.12 0-2.16-6.84-6.24-19.44-6.24-12.6 0-19.44 4.08-19.44 6.24zM30.86 26.66h-4.8V10.94h4.68c1.92 0 3.48.6 4.44 1.92 1.08 1.44 1.56 3.36 1.56 5.88 0 2.64-.48 4.56-1.56 6-.96 1.32-2.4 1.92-4.32 1.92zm-6.6 0h-3.24l-2.76-5.88h-1.2v5.88h-3.12V10.94h4.92c1.44 0 2.52.36 3.36 1.32.84.84 1.2 2.04 1.2 3.6 0 1.08-.12 2.04-.6 2.76-.36.72-.96 1.32-1.68 1.68zm35.64-5.88h-1.8v5.88h-3.12V10.94h4.92c1.44 0 2.52.36 3.36 1.32.84.84 1.2 2.04 1.2 3.6s-.36 2.76-1.2 3.6c-.84.96-1.92 1.32-3.36 1.32zm22.32 4.56c-.84 1.08-1.92 1.68-3.48 1.68-1.44 0-2.64-.6-3.48-1.68-.72-.96-1.2-2.52-1.2-4.44 0-2.04.48-3.48 1.2-4.56.84-1.08 2.04-1.56 3.48-1.56 1.56 0 2.64.48 3.48 1.56.84 1.08 1.2 2.52 1.2 4.56 0 1.92-.36 3.48-1.2 4.44zM42.86 20.3l-1.2-.6c-1.08-.6-1.92-1.32-2.4-2.04s-.72-1.56-.72-2.52.24-1.68.6-2.4c.48-.72 1.08-1.2 1.8-1.56.72-.48 1.56-.6 2.52-.6 1.2 0 2.4.24 3.48.84v2.4c-1.2-.48-2.28-.72-3.24-.72-.6 0-1.08.12-1.44.48-.36.36-.6.72-.6 1.32 0 .48.12.84.36 1.2.24.24.72.6 1.44.96l1.2.72c.72.36 1.44.84 1.8 1.2.48.48.84.96 1.08 1.44.24.48.36 1.2.36 1.92 0 1.44-.48 2.64-1.44 3.48-.96.84-2.16 1.2-3.84 1.2-.72 0-1.44-.12-2.16-.24-.72-.12-1.32-.36-1.8-.72v-2.28c.6.12 1.2.36 1.92.48s1.32.24 1.8.24c.72 0 1.32-.24 1.68-.48.36-.36.6-.84.6-1.56 0-.48-.24-.84-.48-1.2-.24-.24-.72-.6-1.32-.96zm55.8 7.08v-.48l-3.72-11.88h3.24l1.8 8.64 1.68-8.64h3.24l-3.84 13.44c-.36 1.08-.72 1.92-1.32 2.4-.48.6-1.2.84-2.04.84-.72 0-1.32-.12-2.04-.36v-2.16c.48.12.84.12 1.08.12.6 0 1.08-.12 1.32-.48.24-.24.48-.84.6-1.44zm-4.56-.72h-3.36l-1.92-3.72-1.56 3.72h-3.12l3.24-5.88-3.12-5.76h3.24l1.8 3.6 1.56-3.6h3l-3.12 5.76zm-24.24 0h-3.12V15.02h2.64l.24 1.56c.48-.6.96-.96 1.44-1.2.36-.36.84-.48 1.44-.48.24 0 .48 0 .72.12v2.76c-.48-.12-.84-.12-1.2-.12-.72 0-1.44.12-2.16.48zM30.5 13.34h-1.32v10.92h1.32c.96 0 1.8-.48 2.28-1.32.48-.84.72-2.16.72-3.96v-.48c0-1.68-.24-3-.72-3.84-.48-.84-1.32-1.32-2.28-1.32zm47.04 10.32c.24.6.72.96 1.2.96.6 0 .96-.36 1.2-.96s.48-1.44.48-2.76c0-1.32-.24-2.28-.48-2.88-.24-.6-.6-.96-1.2-.96-.48 0-.96.36-1.2.96s-.36 1.56-.36 2.88c0 1.32.12 2.16.36 2.76zM58.1 13.22v5.28h1.44c.6 0 1.08-.24 1.32-.72.36-.36.48-1.08.48-1.92 0-.84-.12-1.44-.48-1.92-.24-.48-.72-.72-1.32-.72zm-41.04 0v5.28h1.44c.6 0 1.08-.24 1.32-.72.36-.36.48-1.08.48-1.92 0-.84-.12-1.44-.48-1.92-.24-.48-.72-.72-1.32-.72z" fill="#2e27ad"/><path d="M15.82 3.6h89.77c8.4 0 12.64 4.23 12.64 12.66v88.7c0 8.43-4.25 12.65-12.65 12.65H15.8c-8.4 0-12.66-4.2-12.66-12.65v-88.7c0-8.42 4.26-12.64 12.66-12.64z" fill-opacity="0"/></g></svg>