<svg width="82" height="80" xmlns="http://www.w3.org/2000/svg" xmlns:xlink="http://www.w3.org/1999/xlink" xml:space="preserve" overflow="hidden"><g transform="translate(-550 -124)"><g><g><g><g><path d="M551 124 631 124 631 204 551 204Z" fill="#DD344C" fill-rule="evenodd" fill-opacity="1"/><path d="M592 147.378 592 161.987 594 161.987 594 146.673C594 146.251 593.734 145.874 593.336 145.732L581.336 141.446C581.119 141.369 580.881 141.369 580.664 141.446L568.664 145.732C568.266 145.874 568 146.251 568 146.673L568 165.53C568 168.544 571.081 176.816 581 176.816L581 174.816C571.912 174.816 570 167.058 570 165.53L570 147.378 580 143.807 580 165.987 582 165.987 582 143.807 592 147.378ZM614.248 185.191 612.248 185.191C612.248 187.839 610.094 189.993 607.446 189.993 604.799 189.993 602.645 187.839 602.645 185.191L600.645 185.191C600.645 187.839 598.49 189.993 595.843 189.993 593.194 189.993 591.04 187.839 591.04 185.191L589.04 185.191C589.04 187.839 586.886 189.993 584.238 189.993L584.238 191.993C586.69 191.993 588.843 190.69 590.04 188.738 591.237 190.69 593.391 191.993 595.843 191.993 598.294 191.993 600.447 190.689 601.645 188.738 602.842 190.689 604.995 191.993 607.446 191.993 609.898 191.993 612.051 190.69 613.248 188.738 614.445 190.69 616.599 191.993 619.051 191.993L619.051 189.993C616.402 189.993 614.248 187.839 614.248 185.191ZM614.248 175.404 612.248 175.404C612.248 178.052 610.094 180.207 607.446 180.207 604.799 180.207 602.645 178.052 602.645 175.404L600.645 175.404C600.645 178.052 598.49 180.207 595.843 180.207 593.194 180.207 591.04 178.052 591.04 175.404L589.04 175.404C589.04 178.052 586.886 180.207 584.238 180.207L584.238 182.207C586.69 182.207 588.843 180.902 590.04 178.952 591.237 180.902 593.391 182.207 595.843 182.207 598.294 182.207 600.447 180.902 601.645 178.952 602.842 180.902 604.995 182.207 607.446 182.207 609.898 182.207 612.051 180.902 613.248 178.952 614.445 180.902 616.599 182.207 619.051 182.207L619.051 180.207C616.402 180.207 614.248 178.052 614.248 175.404ZM614.248 165.485 612.248 165.485C612.248 168.133 610.094 170.287 607.446 170.287 604.799 170.287 602.645 168.133 602.645 165.485L600.645 165.485C600.645 168.133 598.49 170.287 595.843 170.287 593.194 170.287 591.04 168.133 591.04 165.485L589.04 165.485C589.04 168.133 586.886 170.287 584.238 170.287L584.238 172.287C586.69 172.287 588.843 170.983 590.04 169.032 591.237 170.983 593.391 172.287 595.843 172.287 598.294 172.287 600.447 170.983 601.645 169.032 602.842 170.983 604.995 172.287 607.446 172.287 609.898 172.287 612.051 170.983 613.248 169.032 614.445 170.983 616.599 172.287 619.051 172.287L619.051 170.287C616.402 170.287 614.248 168.133 614.248 165.485ZM581.516 180.205 581.516 182.205C572.487 182.205 567.982 177.68 565.792 173.885 563.078 169.181 563 164.238 563 163.69L563 143.672C563 143.257 563.256 142.885 563.644 142.737L581.159 136.065C581.396 135.976 581.657 135.978 581.891 136.073L598.375 142.745C598.753 142.898 599 143.265 599 143.672L599 161.987 597 161.987 597 144.346 581.505 138.074 565 144.361 565 163.69C565 164.364 565.188 180.205 581.516 180.205Z" fill="#FFFFFF" fill-rule="evenodd" fill-opacity="1"/></g></g></g></g></g></svg>