<svg width="81" height="80" xmlns="http://www.w3.org/2000/svg" xmlns:xlink="http://www.w3.org/1999/xlink" xml:space="preserve" overflow="hidden"><g transform="translate(-313 -124)"><g><g><g><g><path d="M314 124 394 124 394 204 314 204Z" fill="#ED7100" fill-rule="evenodd" fill-opacity="1"/><path d="M374.013 183.891 374.013 175.986 380.013 172.46 380.013 180.451 374.013 183.891ZM379.224 189.967 364.59 189.967 362.644 181.966 364.599 181.966 372.517 186.496C372.67 186.585 372.842 186.629 373.013 186.629 373.151 186.629 373.287 186.591 373.417 186.535L373.418 186.536 373.437 186.527C373.463 186.514 373.49 186.508 373.515 186.493 373.538 186.48 373.556 186.46 373.578 186.445L376.449 184.799 379.224 189.967ZM331.697 184.883 334.517 186.496C334.67 186.585 334.842 186.629 335.013 186.629 335.151 186.629 335.287 186.591 335.417 186.535L335.418 186.536 335.437 186.527C335.463 186.514 335.49 186.508 335.515 186.493 335.538 186.48 335.556 186.46 335.578 186.445L343.389 181.966 345.266 181.966 343.199 189.967 328.849 189.967 331.697 184.883ZM328.013 172.505 334.013 175.932 334.013 183.904 328.013 180.471 328.013 172.505ZM335.044 167.16 341.074 170.695 335.063 174.229 328.987 170.758 335.044 167.16ZM343.846 162.988 349.388 166.02 347.851 171.966 344.013 171.966 344.013 170.966 344.009 170.966C344.034 170.879 344.049 170.788 344.049 170.693 344.049 170.339 343.861 170.01 343.555 169.831L340.833 168.236 343.846 162.988ZM342.013 145.531 353.013 150.607 353.013 165.723 342.013 159.706 342.013 145.531ZM354.009 138.135 364.771 143.9 354.013 148.865 343.254 143.9 354.009 138.135ZM367.415 168.049 367.465 168.143 364.483 169.913C364.177 170.096 363.991 170.426 363.993 170.781 363.994 170.846 364.007 170.906 364.019 170.966L364.013 170.966 364.013 171.966 360.213 171.966 358.742 165.917 364.546 162.801 367.415 168.049ZM366.013 172.508 372.013 175.938 372.013 183.904 366.013 180.471 366.013 172.508ZM355.013 165.65 355.013 150.607 366.013 145.531 366.013 159.743 355.013 165.65ZM353.534 168.286C353.683 168.367 353.848 168.409 354.013 168.409 354.19 168.409 354.366 168.361 354.523 168.27 354.62 168.212 354.701 168.134 354.772 168.049L356.921 166.896 358.154 171.966 349.916 171.966 351.197 167.008 353.534 168.286ZM344.013 173.966 347.334 173.966 345.783 179.966 344.013 179.966 344.013 173.966ZM336.013 175.991 342.013 172.464 342.013 173.966 342.013 180.451 336.013 183.891 336.013 175.991ZM360.586 181.966 362.532 189.967 345.263 189.967 347.331 181.966 360.586 181.966ZM347.848 179.966 349.399 173.966 358.641 173.966 360.1 179.966 347.848 179.966ZM364.013 179.966 362.158 179.966 360.699 173.966 364.013 173.966 364.013 179.966ZM373.037 167.16 379.067 170.695 373.055 174.229 366.98 170.758 373.037 167.16ZM382.042 170.693C382.042 170.339 381.854 170.01 381.548 169.831L373.54 165.137C373.226 164.952 372.836 164.953 372.524 165.139L369.175 167.128 366.307 161.855 367.486 161.223C367.811 161.048 368.013 160.71 368.013 160.341L368.013 143.966 368.01 143.966C368.009 143.6 367.811 143.26 367.486 143.085L354.482 136.118C354.187 135.96 353.831 135.96 353.536 136.118L340.54 143.085C340.215 143.26 340.017 143.6 340.016 143.966L340.013 143.966 340.013 160.299C340.013 160.665 340.212 161.001 340.534 161.176L342.088 162.027 339.083 167.21 335.547 165.137C335.233 164.952 334.843 164.953 334.531 165.139L326.49 169.913C326.184 170.096 325.997 170.426 326 170.781 326.001 170.846 326.014 170.906 326.026 170.966L326.013 170.966 326.013 181.051C326.013 181.41 326.205 181.742 326.517 181.921L329.962 183.891 326.277 190.467C326.105 190.773 326.107 191.147 326.281 191.452 326.455 191.758 326.777 191.949 327.127 191.956L380.525 191.967 380.899 191.966C381.249 191.966 381.575 191.781 381.754 191.479 381.935 191.177 381.943 190.803 381.777 190.493L378.185 183.805 381.51 181.897C381.822 181.719 382.013 181.389 382.013 181.029L382.013 170.966 382.002 170.966C382.027 170.879 382.042 170.788 382.042 170.693Z" fill="#FFFFFF" fill-rule="evenodd" fill-opacity="1"/></g></g></g></g></g></svg>