<svg width="82" height="80" xmlns="http://www.w3.org/2000/svg" xmlns:xlink="http://www.w3.org/1999/xlink" xml:space="preserve" overflow="hidden"><g transform="translate(-790 -124)"><g><g><g><g><path d="M791 124 871 124 871 204 791 204Z" fill="#8C4FFF" fill-rule="evenodd" fill-opacity="1"/><path d="M823.066 185.16 822.384 187.041C815.946 184.709 810.78 179.727 808.213 173.374L810.067 172.625C812.422 178.452 817.16 183.021 823.066 185.16ZM852.259 172.625 854.113 173.374C851.52 179.791 846.294 184.795 839.772 187.101L839.106 185.216C845.087 183.1 849.88 178.511 852.259 172.625ZM810.067 156.363 808.213 155.614C810.735 149.375 815.79 144.435 822.081 142.06L822.788 143.931C817.016 146.109 812.38 150.64 810.067 156.363ZM839.106 143.772 839.772 141.887C846.294 144.193 851.52 149.197 854.113 155.614L852.259 156.363C849.88 150.477 845.087 145.888 839.106 143.772ZM830.998 138C832.652 138 833.998 139.346 833.998 141 833.998 142.654 832.652 144 830.998 144 829.343 144 827.998 142.654 827.998 141 827.998 139.346 829.343 138 830.998 138ZM830.998 146C833.754 146 835.998 143.757 835.998 141 835.998 138.243 833.754 136 830.998 136 828.241 136 825.998 138.243 825.998 141 825.998 143.757 828.241 146 830.998 146ZM832.917 189.306C831.645 190.364 829.751 190.19 828.692 188.919 827.633 187.647 827.807 185.752 829.079 184.694 829.638 184.228 830.318 184.001 830.995 184.001 831.856 184.001 832.711 184.369 833.303 185.081 834.362 186.352 834.188 188.247 832.917 189.306ZM827.799 183.157C825.68 184.92 825.391 188.079 827.155 190.198 828.142 191.385 829.567 191.998 831.002 191.997 832.129 191.997 833.263 191.619 834.196 190.843 836.315 189.079 836.604 185.92 834.84 183.802 833.077 181.682 829.919 181.393 827.799 183.157ZM853.998 167C852.343 167 850.998 165.654 850.998 164 850.998 162.346 852.343 161 853.998 161 855.652 161 856.998 162.346 856.998 164 856.998 165.654 855.652 167 853.998 167ZM853.998 159C851.241 159 848.998 161.243 848.998 164 848.998 166.757 851.241 169 853.998 169 856.754 169 858.998 166.757 858.998 164 858.998 161.243 856.754 159 853.998 159ZM809.917 166.306C808.644 167.364 806.751 167.19 805.692 165.919 804.634 164.647 804.807 162.752 806.079 161.694 807.35 160.637 809.245 160.81 810.303 162.081 811.362 163.352 811.188 165.247 809.917 166.306ZM811.84 160.802C810.077 158.681 806.918 158.394 804.799 160.157 802.68 161.92 802.391 165.079 804.155 167.198 805.142 168.385 806.567 168.997 808.002 168.997 809.129 168.997 810.263 168.619 811.196 167.843 813.315 166.079 813.604 162.92 811.84 160.802ZM829.283 171.128 824.916 167.02 826.287 165.563 829.373 168.466 836.514 162.596 837.784 164.14 829.283 171.128ZM824.998 154.674C824.998 153.2 826.493 152 828.331 152L833.666 152C835.503 152 836.998 153.2 836.998 154.674L836.998 158 824.998 158 824.998 154.674ZM820.998 175 840.998 175 840.998 160 820.998 160 820.998 175ZM820.552 158C819.695 158 818.998 158.697 818.998 159.555L818.998 175.445C818.998 176.303 819.695 177 820.552 177L841.443 177C842.3 177 842.998 176.303 842.998 175.445L842.998 159.555C842.998 158.697 842.3 158 841.443 158L838.998 158 838.998 154.674C838.998 152.097 836.606 150 833.666 150L828.331 150C825.39 150 822.998 152.097 822.998 154.674L822.998 158 820.552 158Z" fill="#FFFFFF" fill-rule="evenodd" fill-opacity="1"/></g></g></g></g></g></svg>