<svg width="81" height="80" xmlns="http://www.w3.org/2000/svg" xmlns:xlink="http://www.w3.org/1999/xlink" xml:space="preserve" overflow="hidden"><g transform="translate(-789 -124)"><g><g><g><g><path d="M790 124 870 124 870 204 790 204Z" fill="#ED7100" fill-rule="nonzero" fill-opacity="1"/><path d="M820 166 820 148.439 816.704 151.71 815.296 150.29 820.335 145.29C820.523 145.104 820.775 145 821.039 145L821.043 145C821.309 145.001 821.562 145.107 821.749 145.296L826.71 150.296 825.29 151.704 822 148.388 822 166 820 166ZM836 158 836 152.388 839.29 155.704 840.71 154.296 835.749 149.296C835.562 149.107 835.309 149.001 835.043 149L835.039 149C834.775 149 834.523 149.104 834.335 149.29L829.296 154.29 830.704 155.71 834 152.439 834 158 836 158ZM833 168 817 168C816.447 168 816 168.448 816 169L816 185C816 185.552 816.447 186 817 186L824 186 824 184 818 184 818 170 832 170 832 184 830 184 830 186 833 186C833.553 186 834 185.552 834 185L834 169C834 168.448 833.553 168 833 168ZM843 160 827 160C826.447 160 826 160.448 826 161L826 166 828 166 828 162 842 162 842 176 836 176 836 178 843 178C843.553 178 844 177.552 844 177L844 161C844 160.448 843.553 160 843 160ZM820 192 822 192 822 188 820 188 820 192ZM832 192 834 192 834 188 832 188 832 192ZM826 190 828 190 828 180 826 180 826 190ZM838 190 840 190 840 180 838 180 838 190ZM848.898 152.176C848.966 151.787 849 151.394 849 151 849 147.14 845.859 144 842 144 841.023 144 840.063 144.204 839.178 144.596 836.432 139.34 830.979 136 825 136 816.178 136 809 143.178 809 152 809 152.243 809.006 152.49 809.019 152.744 804.789 154.376 802 158.402 802 163 802 169.065 806.935 174 813 174L814 174 814 172 813 172C808.037 172 804 167.962 804 163 804 159.017 806.558 155.558 810.364 154.394 810.818 154.255 811.112 153.816 811.067 153.343 811.023 152.862 811 152.423 811 152 811 144.28 817.28 138 825 138 830.548 138 835.578 141.288 837.815 146.376 837.934 146.645 838.163 146.848 838.445 146.932 838.726 147.015 839.029 146.971 839.276 146.811 840.091 146.28 841.032 146 842 146 844.757 146 847 148.243 847 151 847 151.57 846.898 152.14 846.699 152.693 846.592 152.989 846.631 153.317 846.804 153.581 846.976 153.844 847.263 154.01 847.576 154.03 852.3 154.33 856 158.27 856 163 856 167.962 851.963 172 847 172L846 172 846 174 847 174C853.065 174 858 169.065 858 163 858 157.623 854.09 153.081 848.898 152.176Z" fill="#FFFFFF" fill-rule="nonzero" fill-opacity="1"/></g></g></g></g></g></svg>